<?xml version="1.0" standalone="no"?><!-- Generator: Gravit.io --><svg xmlns="http://www.w3.org/2000/svg" xmlns:xlink="http://www.w3.org/1999/xlink" style="isolation:isolate" viewBox="0 0 959.998 114.732" width="959.998" height="114.732"><defs><clipPath id="_clipPath_BvL1f1eeXAFqO4oobsu0J0Qppa4hw0X5"><rect width="959.998" height="114.732"/></clipPath></defs><g clip-path="url(#_clipPath_BvL1f1eeXAFqO4oobsu0J0Qppa4hw0X5)"><g><clipPath id="_clipPath_E7H4CX6nhPd83d4cuT6ngJjXkhcHZrTp"><rect x="0" y="20.524" width="959.998" height="94.192" transform="matrix(1,0,0,1,0,0)" fill="rgb(255,255,255)"/></clipPath><g clip-path="url(#_clipPath_E7H4CX6nhPd83d4cuT6ngJjXkhcHZrTp)"><g><path d="M 0 0.001 L 7.201 0.001 L 7.201 7.202 L 0 7.202 L 0 0.001 Z" style="stroke:none;fill:#F0F0F0;stroke-miterlimit:10;"/></g></g><linearGradient id="_lgradient_0" x1="0" y1="0.1325159160575336" x2="1.0009001575275673" y2="0.1325159160575336" gradientTransform="matrix(959.998,0,0,80.942,0,0.001)" gradientUnits="userSpaceOnUse"><stop offset="0%" stop-opacity="1" style="stop-color:rgb(34,32,32)"/><stop offset="23.043478260869566%" stop-opacity="1" style="stop-color:rgb(57,57,57)"/><stop offset="54.78260869565217%" stop-opacity="1" style="stop-color:rgb(0,0,0)"/><stop offset="100%" stop-opacity="1" style="stop-color:rgb(34,34,34)"/></linearGradient><path d=" M 305.405 54.442 L 357.47 80.943 L 616.786 80.943 L 668.851 54.442 L 959.998 54.442 L 959.998 0.001 L 0 0.001 L 0 54.442 L 305.405 54.442 Z " fill="url(#_lgradient_0)"/><linearGradient id="_lgradient_1" x1="0" y1="0.057101865136298446" x2="1.0009001575275673" y2="0.057101865136298446" gradientTransform="matrix(959.998,0,0,28.589,0,54.442)" gradientUnits="userSpaceOnUse"><stop offset="0%" stop-opacity="1" style="stop-color:rgb(98,98,98)"/><stop offset="25.098%" stop-opacity="1" style="stop-color:rgb(225,225,225)"/><stop offset="47.0588%" stop-opacity="1" style="stop-color:rgb(124,124,125)"/><stop offset="65.098%" stop-opacity="1" style="stop-color:rgb(245,246,246)"/><stop offset="83.9216%" stop-opacity="1" style="stop-color:rgb(148,149,149)"/><stop offset="100%" stop-opacity="1" style="stop-color:rgb(98,98,98)"/></linearGradient><path d=" M 4.177 56.53 L 305.405 56.53 L 357.47 83.031 L 616.786 83.031 L 668.851 56.53 L 956.757 56.53 L 959.998 54.946 L 959.998 54.442 L 668.851 54.442 L 616.786 80.943 L 357.47 80.943 L 305.405 54.442 L 0 54.442 L 4.177 56.53 Z " fill="url(#_lgradient_1)"/><linearGradient id="_lgradient_2" x1="0" y1="0.05721324938406788" x2="1.0009001575275673" y2="0.05721324938406788" gradientTransform="matrix(959.998,0,0,30.029,0,42.344)" gradientUnits="userSpaceOnUse"><stop offset="2.1739130434782608%" stop-opacity="1" style="stop-color:rgb(21,119,6)"/><stop offset="22.17391304347826%" stop-opacity="1" style="stop-color:rgb(39,234,9)"/><stop offset="46.08695652173913%" stop-opacity="1" style="stop-color:rgb(27,162,6)"/><stop offset="64.78260869565217%" stop-opacity="1" style="stop-color:rgb(44,221,17)"/><stop offset="83.91304347826087%" stop-opacity="1" style="stop-color:rgb(23,151,4)"/><stop offset="100%" stop-opacity="1" style="stop-color:rgb(34,219,6)"/></linearGradient><path d=" M 0 45.872 L 305.405 45.872 L 357.47 72.373 L 616.786 72.373 L 668.851 45.872 L 959.998 45.872 L 959.998 42.344 L 668.851 42.344 L 616.786 68.844 L 357.47 68.844 L 305.405 42.344 L 0 42.344 L 0 45.872 Z " fill="url(#_lgradient_2)"/><linearGradient id="_lgradient_3" x1="0" y1="0.022068965517241385" x2="1.0009001575275673" y2="0.022068965517241385" gradientTransform="matrix(959.998,0,0,27.581,0,42.344)" gradientUnits="userSpaceOnUse"><stop offset="0.8695652173913043%" stop-opacity="1" style="stop-color:rgb(13,80,2)"/><stop offset="96.95652173913044%" stop-opacity="1" style="stop-color:rgb(13,80,2)"/></linearGradient><path d=" M 668.851 42.344 L 616.786 68.844 L 357.47 68.844 L 305.405 42.344 L 0 42.344 L 0 43.424 L 305.405 43.424 L 357.47 69.925 L 616.786 69.925 L 668.851 43.424 L 959.998 43.424 L 959.998 42.344 L 668.851 42.344 Z " fill="url(#_lgradient_3)"/></g></g></svg>