<?xml version="1.0" standalone="no"?><!-- Generator: Gravit.io --><svg xmlns="http://www.w3.org/2000/svg" xmlns:xlink="http://www.w3.org/1999/xlink" style="isolation:isolate" viewBox="0 0 500 500" width="500" height="500"><defs><clipPath id="_clipPath_V2bltxbWApgUqZQy05YuQUaIo4xddtxS"><rect x="0" y="0" width="500" height="500"/></clipPath></defs><g clip-path="url(#_clipPath_V2bltxbWApgUqZQy05YuQUaIo4xddtxS)"><g><path d=" M 0 0 L 0 500 L 500 500 L 500 0 L 0 0 Z " fill="none"/><path d=" M 0 0 L 0 500 L 500 500 L 500 0 L 0 0 Z " fill="none"/><path d=" M 0 0 L 0 500 L 500 500 L 500 0 L 0 0 Z " fill="none"/><path d=" M 0 0 L 0 500 L 500 500 L 500 0 L 0 0 Z " fill="none"/><path d=" M 0 0 L 0 500 L 500 500 L 500 0 L 0 0 Z " fill="none"/><path d=" M 0 0 L 0 500 L 500 500 L 500 0 L 0 0 Z " fill="none"/><path d=" M 0 0 L 0 500 L 500 500 L 500 0 L 0 0 Z " fill="none"/><path d=" M 0 0 L 0 500 L 500 500 L 500 0 L 0 0 Z " fill="none"/><path d=" M 0 0 L 0 500 L 500 500 L 500 0 L 0 0 Z " fill="none"/><path d=" M 0 0 L 0 500 L 500 500 L 500 0 L 0 0 Z " fill="none"/><path d=" M 0 0 L 0 500 L 500 500 L 500 0 L 0 0 Z " fill="none"/><path d=" M 0 0 L 0 500 L 500 500 L 500 0 L 0 0 Z " fill="none"/><path d=" M 0 0 L 0 500 L 500 500 L 500 0 L 0 0 Z " fill="none"/><path d=" M 0 0 L 0 500 L 500 500 L 500 0 L 0 0 Z " fill="none"/><path d=" M 0 0 L 0 500 L 500 500 L 500 0 L 0 0 Z " fill="none"/><path d=" M 0 0 L 0 500 L 500 500 L 500 0 L 0 0 Z " fill="none"/><path d=" M 0 0 L 0 500 L 500 500 L 500 0 L 0 0 Z " fill="none"/><path d=" M 0 0 L 0 500 L 500 500 L 500 0 L 0 0 Z " fill="none"/><path d=" M 0 0 L 0 500 L 500 500 L 500 0 L 0 0 Z " fill="none"/><path d=" M 0 0 L 0 500 L 500 500 L 500 0 L 0 0 Z " fill="none"/><path d=" M 0 0 L 0 500 L 500 500 L 500 0 L 0 0 Z " fill="none"/><path d=" M 0 0 L 0 500 L 500 500 L 500 0 L 0 0 Z " fill="none"/><path d=" M 0 0 L 0 500 L 500 500 L 500 0 L 0 0 Z " fill="none"/><path d=" M 0 0 L 0 500 L 500 500 L 500 0 L 0 0 Z " fill="none"/><path d=" M 0 0 L 0 500 L 500 500 L 500 0 L 0 0 Z " fill="none"/><path d=" M 0 0 L 0 500 L 500 500 L 500 0 L 0 0 Z " fill="none"/><path d=" M 0 0 L 0 500 L 500 500 L 500 0 L 0 0 Z " fill="none"/><path d=" M 0 0 L 0 500 L 500 500 L 500 0 L 0 0 Z " fill="none"/><path d=" M 0 0 L 0 500 L 500 500 L 500 0 L 0 0 Z " fill="none"/><path d=" M 0 0 L 0 500 L 500 500 L 500 0 L 0 0 Z " fill="none"/><path d=" M 0 0 L 0 500 L 500 500 L 500 0 L 0 0 Z " fill="none"/><path d=" M 0 0 L 0 500 L 500 500 L 500 0 L 0 0 Z " fill="none"/><path d=" M 0 0 L 0 500 L 500 500 L 500 0 L 0 0 Z " fill="none"/><path d=" M 0 0 L 0 500 L 500 500 L 500 0 L 0 0 Z " fill="none"/><path d=" M 0 0 L 0 500 L 500 500 L 500 0 L 0 0 Z " fill="none"/><path d=" M 0 0 L 0 500 L 500 500 L 500 0 L 0 0 Z " fill="none"/><path d=" M 0 0 L 0 500 L 500 500 L 500 0 L 0 0 Z " fill="none"/><path d=" M 0 0 L 0 500 L 500 500 L 500 0 L 0 0 Z " fill="none"/><path d=" M 0 0 L 0 500 L 500 500 L 500 0 L 0 0 Z " fill="none"/><path d=" M 0 0 L 0 500 L 500 500 L 500 0 L 0 0 Z " fill="none"/><path d=" M 0 0 L 0 500 L 500 500 L 500 0 L 0 0 Z " fill="none"/><path d=" M 0 0 L 0 500 L 500 500 L 500 0 L 0 0 Z " fill="none"/><path d=" M 0 0 L 0 500 L 500 500 L 500 0 L 0 0 Z " fill="none"/><path d=" M 0 0 L 0 500 L 500 500 L 500 0 L 0 0 Z " fill="none"/><path d=" M 0 0 L 0 500 L 500 500 L 500 0 L 0 0 Z " fill="none"/><path d=" M 0 0 L 0 500 L 500 500 L 500 0 L 0 0 Z " fill="none"/><path d=" M 0 0 L 0 500 L 500 500 L 500 0 L 0 0 Z " fill="none"/><path d=" M 0 0 L 0 500 L 500 500 L 500 0 L 0 0 Z " fill="none"/><path d=" M 0 0 L 0 500 L 500 500 L 500 0 L 0 0 Z " fill="none"/><path d=" M 0 0 L 0 500 L 500 500 L 500 0 L 0 0 Z " fill="none"/><path d=" M 0 0 L 0 500 L 500 500 L 500 0 L 0 0 Z " fill="none"/><path d=" M 0 0 L 0 500 L 500 500 L 500 0 L 0 0 Z " fill="none"/><path d=" M 0 0 L 0 500 L 500 500 L 500 0 L 0 0 Z " fill="none"/><path d=" M 0 0 L 0 500 L 500 500 L 500 0 L 0 0 Z " fill="none"/><path d=" M 0 0 L 0 500 L 500 500 L 500 0 L 0 0 Z " fill="none"/><path d=" M 0 0 L 0 500 L 500 500 L 500 0 L 0 0 Z " fill="none"/><path d=" M 0 0 L 0 500 L 500 500 L 500 0 L 0 0 Z " fill="none"/><path d=" M 0 0 L 0 500 L 500 500 L 500 0 L 0 0 Z " fill="none"/><path d=" M 0 0 L 0 500 L 500 500 L 500 0 L 0 0 Z " fill="none"/><path d=" M 0 0 L 0 500 L 500 500 L 500 0 L 0 0 Z " fill="none"/><path d=" M 0 0 L 0 500 L 500 500 L 500 0 L 0 0 Z " fill="none"/><path d=" M 0 0 L 0 500 L 500 500 L 500 0 L 0 0 Z " fill="none"/><path d=" M 0 0 L 0 500 L 500 500 L 500 0 L 0 0 Z " fill="none"/><path d=" M 0 0 L 0 500 L 500 500 L 500 0 L 0 0 Z " fill="none"/><path d=" M 0 0 L 0 500 L 500 500 L 500 0 L 0 0 Z " fill="none"/><path d=" M 0 0 L 0 500 L 500 500 L 500 0 L 0 0 Z " fill="none"/><path d=" M 0 0 L 0 500 L 500 500 L 500 0 L 0 0 Z " fill="none"/><path d=" M 0 0 L 0 500 L 500 500 L 500 0 L 0 0 Z " fill="none"/><path d=" M 0 0 L 0 500 L 500 500 L 500 0 L 0 0 Z " fill="none"/><path d=" M 0 0 L 0 500 L 500 500 L 500 0 L 0 0 Z " fill="none"/><path d=" M 0 0 L 0 500 L 500 500 L 500 0 L 0 0 Z " fill="none"/><path d=" M 0 0 L 0 500 L 500 500 L 500 0 L 0 0 Z " fill="none"/><path d=" M 0 0 L 0 500 L 500 500 L 500 0 L 0 0 Z " fill="none"/><path d=" M 0 0 L 0 500 L 500 500 L 500 0 L 0 0 Z " fill="none"/><path d=" M 0 0 L 0 500 L 500 500 L 500 0 L 0 0 Z " fill="none"/><path d=" M 0 0 L 0 500 L 500 500 L 500 0 L 0 0 Z " fill="none"/><path d=" M 0 0 L 0 500 L 500 500 L 500 0 L 0 0 Z " fill="none"/><path d=" M 0 0 L 0 500 L 500 500 L 500 0 L 0 0 Z " fill="none"/><path d=" M 0 0 L 0 500 L 500 500 L 500 0 L 0 0 Z " fill="none"/><path d=" M 0 0 L 0 500 L 500 500 L 500 0 L 0 0 Z " fill="none"/><path d=" M 0 0 L 0 500 L 500 500 L 500 0 L 0 0 Z " fill="none"/><path d=" M 0 0 L 0 500 L 500 500 L 500 0 L 0 0 Z " fill="none"/><path d=" M 0 0 L 0 500 L 500 500 L 500 0 L 0 0 Z " fill="none"/><path d=" M 0 0 L 0 500 L 500 500 L 500 0 L 0 0 Z " fill="none"/><path d=" M 0 0 L 0 500 L 500 500 L 500 0 L 0 0 Z " fill="none"/><path d=" M 24 233 L 24 372 L 257 372 L 257 233 L 24 233 Z " fill="none"/><path d=" M 0 0 L 0 500 L 500 500 L 500 0 L 0 0 Z " fill="none"/><path d=" M 0 0 L 0 500 L 500 500 L 500 0 L 0 0 Z " fill="none"/><path d=" M 0 0 L 0 500 L 500 500 L 500 0 L 0 0 Z " fill="none"/><path d=" M 0 0 L 0 500 L 500 500 L 500 0 L 0 0 Z " fill="none"/><path d=" M 0 0 L 0 500 L 500 500 L 500 0 L 0 0 Z " fill="none"/><path d=" M 0 0 L 0 500 L 500 500 L 500 0 L 0 0 Z " fill="none"/><path d=" M 0 0 L 0 500 L 500 500 L 500 0 L 0 0 Z " fill="none"/><path d=" M 0 0 L 0 500 L 500 500 L 500 0 L 0 0 Z " fill="none"/><path d=" M 0 0 L 0 500 L 500 500 L 500 0 L 0 0 Z " fill="none"/><path d=" M 0 0 L 0 500 L 500 500 L 500 0 L 0 0 Z " fill="none"/><path d=" M 0 0 L 0 500 L 500 500 L 500 0 L 0 0 Z " fill="none"/><path d=" M 0 0 L 0 500 L 500 500 L 500 0 L 0 0 Z " fill="none"/><path d=" M 0 0 L 0 500 L 500 500 L 500 0 L 0 0 Z " fill="none"/><path d=" M 0 0 L 0 500 L 500 500 L 500 0 L 0 0 Z " fill="none"/><path d=" M 0 0 L 0 500 L 500 500 L 500 0 L 0 0 Z " fill="none"/><path d=" M 0 0 L 0 500 L 500 500 L 500 0 L 0 0 Z " fill="none"/><path d=" M 0 0 L 0 500 L 500 500 L 500 0 L 0 0 Z " fill="none"/><path d=" M 0 0 L 0 500 L 500 500 L 500 0 L 0 0 Z " fill="none"/><path d=" M 0 0 L 0 500 L 500 500 L 500 0 L 0 0 Z " fill="none"/><path d=" M 0 0 L 0 500 L 500 500 L 500 0 L 0 0 Z " fill="none"/><path d=" M 0 0 L 0 500 L 500 500 L 500 0 L 0 0 Z " fill="none"/><path d=" M 0 0 L 0 500 L 500 500 L 500 0 L 0 0 Z " fill="none"/><path d=" M 0 0 L 0 500 L 500 500 L 500 0 L 0 0 Z " fill="none"/><path d=" M 0 0 L 0 500 L 500 500 L 500 0 L 0 0 Z " fill="none"/><path d=" M 0 0 L 0 500 L 500 500 L 500 0 L 0 0 Z " fill="none"/><path d=" M 0 0 L 0 500 L 500 500 L 500 0 L 0 0 Z " fill="none"/><path d=" M 0 0 L 0 500 L 500 500 L 500 0 L 0 0 Z " fill="none"/><path d=" M 0 0 L 0 500 L 500 500 L 500 0 L 0 0 Z " fill="none"/><path d=" M 0 0 L 0 500 L 500 500 L 500 0 L 0 0 Z " fill="none"/><path d=" M 0 0 L 0 500 L 500 500 L 500 0 L 0 0 Z " fill="none"/><path d=" M 0 0 L 0 500 L 500 500 L 500 0 L 0 0 Z " fill="none"/><path d=" M 0 0 L 0 500 L 500 500 L 500 0 L 0 0 Z " fill="none"/><path d=" M 0 0 L 0 500 L 500 500 L 500 0 L 0 0 Z " fill="none"/><path d=" M 0 0 L 0 500 L 500 500 L 500 0 L 0 0 Z " fill="none"/><path d=" M 0 0 L 0 500 L 500 500 L 500 0 L 0 0 Z " fill="none"/><path d=" M 0 0 L 0 500 L 500 500 L 500 0 L 0 0 Z " fill="none"/><path d=" M 0 0 L 0 500 L 500 500 L 500 0 L 0 0 Z " fill="none"/><path d=" M 0 0 L 0 500 L 500 500 L 500 0 L 0 0 Z " fill="none"/><path d=" M 0 0 L 0 500 L 500 500 L 500 0 L 0 0 Z " fill="none"/><path d=" M 0 0 L 0 500 L 500 500 L 500 0 L 0 0 Z " fill="none"/><path d=" M 0 0 L 0 500 L 500 500 L 500 0 L 0 0 Z " fill="none"/><path d=" M 0 0 L 0 500 L 500 500 L 500 0 L 0 0 Z " fill="none"/><path d=" M 0 0 L 0 500 L 500 500 L 500 0 L 0 0 Z " fill="none"/><path d=" M 0 0 L 0 500 L 500 500 L 500 0 L 0 0 Z " fill="none"/><path d=" M 0 0 L 0 500 L 500 500 L 500 0 L 0 0 Z " fill="none"/><path d=" M 0 0 L 0 500 L 500 500 L 500 0 L 0 0 Z " fill="none"/><path d=" M 0 0 L 0 500 L 500 500 L 500 0 L 0 0 Z " fill="none"/><path d=" M 0 0 L 0 500 L 500 500 L 500 0 L 0 0 Z " fill="none"/><path d=" M 0 0 L 0 500 L 500 500 L 500 0 L 0 0 Z " fill="none"/><path d=" M 0 0 L 0 500 L 500 500 L 500 0 L 0 0 Z " fill="none"/><path d=" M 0 0 L 0 500 L 500 500 L 500 0 L 0 0 Z " fill="none"/><path d=" M 0 0 L 0 500 L 500 500 L 500 0 L 0 0 Z " fill="none"/><path d=" M 0 0 L 0 500 L 500 500 L 500 0 L 0 0 Z " fill="none"/><path d=" M 0 0 L 0 500 L 500 500 L 500 0 L 0 0 Z " fill="none"/><path d=" M 0 0 L 0 500 L 500 500 L 500 0 L 0 0 Z " fill="none"/><path d=" M 0 0 L 0 500 L 500 500 L 500 0 L 0 0 Z " fill="none"/><path d=" M 0 0 L 0 500 L 500 500 L 500 0 L 0 0 Z " fill="none"/><path d=" M 0 0 L 0 500 L 500 500 L 500 0 L 0 0 Z " fill="none"/><path d=" M 0 0 L 0 500 L 500 500 L 500 0 L 0 0 Z " fill="none"/><path d=" M 0 0 L 0 500 L 500 500 L 500 0 L 0 0 Z " fill="none"/><path d=" M 0 0 L 0 500 L 500 500 L 500 0 L 0 0 Z " fill="none"/><path d=" M 0 0 L 0 500 L 500 500 L 500 0 L 0 0 Z " fill="none"/><path d=" M 0 0 L 0 500 L 500 500 L 500 0 L 0 0 Z " fill="none"/><path d=" M 0 0 L 0 500 L 500 500 L 500 0 L 0 0 Z " fill="none"/><path d=" M 0 0 L 0 500 L 500 500 L 500 0 L 0 0 Z " fill="none"/><path d=" M 0 0 L 0 500 L 500 500 L 500 0 L 0 0 Z " fill="none"/><path d=" M 0 0 L 0 500 L 500 500 L 500 0 L 0 0 Z " fill="none"/><path d=" M 0 0 L 0 500 L 500 500 L 500 0 L 0 0 Z " fill="none"/><path d=" M 0 0 L 0 500 L 500 500 L 500 0 L 0 0 Z " fill="none"/><path d=" M 0 0 L 0 500 L 500 500 L 500 0 L 0 0 Z " fill="none"/><path d=" M 0 0 L 0 500 L 500 500 L 500 0 L 0 0 Z " fill="none"/><path d=" M 0 0 L 0 500 L 500 500 L 500 0 L 0 0 Z " fill="none"/><path d=" M 0 0 L 0 500 L 500 500 L 500 0 L 0 0 Z " fill="none"/><path d=" M 0 0 L 0 500 L 500 500 L 500 0 L 0 0 Z " fill="none"/><path d=" M 0 0 L 0 500 L 500 500 L 500 0 L 0 0 Z " fill="none"/><path d=" M 0 0 L 0 500 L 500 500 L 500 0 L 0 0 Z " fill="none"/><path d=" M 0 0 L 0 500 L 500 500 L 500 0 L 0 0 Z " fill="none"/><path d=" M 0 0 L 0 500 L 500 500 L 500 0 L 0 0 Z " fill="none"/><path d=" M 0 0 L 0 500 L 500 500 L 500 0 L 0 0 Z " fill="none"/><path d=" M 0 0 L 0 500 L 500 500 L 500 0 L 0 0 Z " fill="none"/><path d=" M 0 0 L 0 500 L 500 500 L 500 0 L 0 0 Z " fill="none"/><path d=" M 0 0 L 0 500 L 500 500 L 500 0 L 0 0 Z " fill="none"/><path d=" M 0 0 L 0 500 L 500 500 L 500 0 L 0 0 Z " fill="none"/><path d=" M 0 0 L 0 500 L 500 500 L 500 0 L 0 0 Z " fill="none"/><path d=" M 0 0 L 0 500 L 500 500 L 500 0 L 0 0 Z " fill="none"/><path d=" M 0 0 L 0 500 L 500 500 L 500 0 L 0 0 Z " fill="none"/><path d=" M 0 0 L 0 500 L 500 500 L 500 0 L 0 0 Z " fill="none"/><path d=" M 0 0 L 0 500 L 500 500 L 500 0 L 0 0 Z " fill="none"/><path d=" M 0 0 L 0 500 L 500 500 L 500 0 L 0 0 Z " fill="none"/><path d=" M 0 0 L 0 500 L 500 500 L 500 0 L 0 0 Z " fill="none"/><path d=" M 0 0 L 0 500 L 500 500 L 500 0 L 0 0 Z " fill="none"/><path d=" M 0 0 L 0 500 L 500 500 L 500 0 L 0 0 Z " fill="none"/><path d=" M 0 0 L 0 500 L 500 500 L 500 0 L 0 0 Z " fill="none"/><path d=" M 0 0 L 0 500 L 500 500 L 500 0 L 0 0 Z " fill="none"/><path d=" M 0 0 L 0 500 L 500 500 L 500 0 L 0 0 Z " fill="none"/><path d=" M 0 0 L 0 500 L 500 500 L 500 0 L 0 0 Z " fill="none"/><path d=" M 0 0 L 0 500 L 500 500 L 500 0 L 0 0 Z " fill="none"/><path d=" M 0 0 L 0 500 L 500 500 L 500 0 L 0 0 Z " fill="none"/><path d=" M 0 0 L 0 500 L 500 500 L 500 0 L 0 0 Z " fill="none"/><path d=" M 0 0 L 0 500 L 500 500 L 500 0 L 0 0 Z " fill="none"/><path d=" M 0 0 L 0 500 L 500 500 L 500 0 L 0 0 Z " fill="none"/><path d=" M 0 0 L 0 500 L 500 500 L 500 0 L 0 0 Z " fill="none"/><path d=" M 0 0 L 0 500 L 500 500 L 500 0 L 0 0 Z " fill="none"/><path d=" M 0 0 L 0 500 L 500 500 L 500 0 L 0 0 Z " fill="none"/><path d=" M 0 0 L 0 500 L 500 500 L 500 0 L 0 0 Z " fill="none"/><path d=" M 0 0 L 0 500 L 500 500 L 500 0 L 0 0 Z " fill="none"/><path d=" M 0 0 L 0 500 L 500 500 L 500 0 L 0 0 Z " fill="none"/><path d=" M 0 0 L 0 500 L 500 500 L 500 0 L 0 0 Z " fill="none"/><path d=" M 0 0 L 0 500 L 500 500 L 500 0 L 0 0 Z " fill="none"/><path d=" M 0 0 L 0 500 L 500 500 L 500 0 L 0 0 Z " fill="none"/><path d=" M 0 0 L 0 500 L 500 500 L 500 0 L 0 0 Z " fill="none"/><path d=" M 0 0 L 0 500 L 500 500 L 500 0 L 0 0 Z " fill="none"/><path d=" M 0 0 L 0 500 L 500 500 L 500 0 L 0 0 Z " fill="none"/><path d=" M 0 0 L 0 500 L 500 500 L 500 0 L 0 0 Z " fill="none"/><clipPath id="_clipPath_FgTiXl6Vo78Q1zwuV3KiIn0DFpTGsyHq"><path d=" M 0 0 L 0 500 L 500 500 L 500 0 L 0 0 Z " fill="rgb(255,255,255)"/></clipPath><g clip-path="url(#_clipPath_FgTiXl6Vo78Q1zwuV3KiIn0DFpTGsyHq)"><path d=" M 247.091 252.134 C 247.091 252.134 247.911 252.563 247.122 254.584 L 247.082 254.663 L 246.531 255.804 L 246.521 255.823 C 246.411 256.014 246.301 256.214 246.171 256.424 C 243.971 260.054 242.471 263.384 242.471 263.384 L 237.091 267.804 C 237.091 267.804 236.631 265.623 234.941 265.934 C 233.261 266.254 232.301 268.044 232.301 268.044 L 230.881 268.044 C 230.881 268.044 239.011 256.844 241.591 254.254 C 241.591 254.254 243.761 251.714 247.091 252.134 Z " fill="rgb(38,39,51)"/></g><clipPath id="_clipPath_1OaPtp1njBhsu35A8PUpUPUv1jxY8u8P"><path d=" M 0 0 L 0 500 L 500 500 L 500 0 L 0 0 Z " fill="rgb(255,255,255)"/></clipPath><g clip-path="url(#_clipPath_1OaPtp1njBhsu35A8PUpUPUv1jxY8u8P)"><path d=" M 243.131 281.764 L 243.141 287.584 C 242.401 289.304 240.731 289.924 239.562 290.134 C 238.832 290.273 238.301 290.254 238.301 290.254 L 235.641 290.254 L 227.141 290.254 L 227.131 290.243 L 233.461 284.493 C 240.082 285.073 242.511 283.504 243.051 282.123 C 243.102 281.993 243.131 281.873 243.131 281.764 Z " fill="rgb(57,60,76)"/></g><clipPath id="_clipPath_56qoYppGYhFulhFW0LBqhIuA3fjFouZu"><path d=" M 0 0 L 0 500 L 500 500 L 500 0 L 0 0 Z " fill="rgb(255,255,255)"/></clipPath><g clip-path="url(#_clipPath_56qoYppGYhFulhFW0LBqhIuA3fjFouZu)"><path d=" M 243.141 287.584 L 235.141 312.584 L 231.181 314.754 L 239.591 290.254 L 239.562 290.134 C 240.731 289.924 242.401 289.304 243.141 287.584 Z " fill="rgb(57,60,76)"/></g><clipPath id="_clipPath_Z95vwnIONHzf8MsZbTBPEUP2SrO4SqJd"><path d=" M 0 0 L 0 500 L 500 500 L 500 0 L 0 0 Z " fill="rgb(255,255,255)"/></clipPath><g clip-path="url(#_clipPath_Z95vwnIONHzf8MsZbTBPEUP2SrO4SqJd)"><path d=" M 243.131 281.563 L 243.131 281.764 C 243.131 281.873 243.102 281.993 243.051 282.123 C 242.511 283.504 240.082 285.073 233.461 284.493 L 234.042 283.974 C 234.042 283.974 239.821 284.313 241.631 282.004 L 241.631 280.123 C 241.631 280.123 243.031 280.584 243.131 281.544 L 243.131 281.563 Z " fill="rgb(38,39,51)"/></g><clipPath id="_clipPath_jh2inFWx1p1dFc6D9D0cySouPbjr3Ecb"><path d=" M 0 0 L 0 500 L 500 500 L 500 0 L 0 0 Z " fill="rgb(255,255,255)"/></clipPath><g clip-path="url(#_clipPath_jh2inFWx1p1dFc6D9D0cySouPbjr3Ecb)"><path d=" M 241.631 280.123 L 241.631 282.004 C 239.821 284.313 234.042 283.974 234.042 283.974 L 238.131 280.243 L 236.241 276.573 C 239.411 276.644 241.631 274.623 241.631 274.623 L 241.631 280.123 Z " fill="rgb(253,201,106)"/></g><clipPath id="_clipPath_NVarWsYzA1wvzvrkKlsrqKguStrZS7vf"><path d=" M 0 0 L 0 500 L 500 500 L 500 0 L 0 0 Z " fill="rgb(255,255,255)"/></clipPath><g clip-path="url(#_clipPath_NVarWsYzA1wvzvrkKlsrqKguStrZS7vf)"><path d=" M 240.571 273.123 L 241.631 274.623 C 241.631 274.623 239.411 276.644 236.241 276.573 L 235.481 275.113 L 235.491 275.113 C 240.102 275.483 240.571 273.123 240.571 273.123 Z " fill="rgb(36,37,43)"/></g><clipPath id="_clipPath_KQTb4tzYzQD4TM7eZjcCKj1oRuEUXTmX"><path d=" M 0 0 L 0 500 L 500 500 L 500 0 L 0 0 Z " fill="rgb(255,255,255)"/></clipPath><g clip-path="url(#_clipPath_KQTb4tzYzQD4TM7eZjcCKj1oRuEUXTmX)"><path d=" M 238.961 271.714 C 238.961 271.714 240.381 272.004 240.571 273.123 C 240.571 273.123 240.102 275.483 235.491 275.113 L 235.481 275.113 L 234.941 274.063 C 234.941 274.063 235.341 273.733 235.641 273.224 C 235.801 273.663 238.991 272.964 238.961 271.714 Z " fill="rgb(45,47,59)"/></g><clipPath id="_clipPath_wdc3Y4izY8Tcene5uhzv9I85RrecJ07h"><path d=" M 0 0 L 0 500 L 500 500 L 500 0 L 0 0 Z " fill="rgb(255,255,255)"/></clipPath><g clip-path="url(#_clipPath_wdc3Y4izY8Tcene5uhzv9I85RrecJ07h)"><path d=" M 239.562 290.134 L 239.591 290.254 L 231.181 314.754 L 228.261 312.674 L 235.641 290.254 L 238.301 290.254 C 238.301 290.254 238.832 290.273 239.562 290.134 Z " fill="rgb(38,39,51)"/></g><clipPath id="_clipPath_JKJxHUO0i8WcJthAsYFJJI2XjcguR8tQ"><path d=" M 0 0 L 0 500 L 500 500 L 500 0 L 0 0 Z " fill="rgb(255,255,255)"/></clipPath><g clip-path="url(#_clipPath_JKJxHUO0i8WcJthAsYFJJI2XjcguR8tQ)"><path d=" M 238.961 271.714 C 238.991 272.964 235.801 273.663 235.641 273.224 C 235.821 272.913 235.971 272.533 235.971 272.123 C 235.971 272.123 236.381 271.434 236.381 270.273 C 236.381 270.273 236.731 269.943 236.981 269.493 C 236.981 269.493 238.341 270.033 238.872 271.363 L 238.911 271.464 L 238.961 271.714 Z " fill="rgb(45,47,59)"/></g><clipPath id="_clipPath_HWwkCDUfuEa2oI3Wwx0YOHvb8aC2TWun"><path d=" M 0 0 L 0 500 L 500 500 L 500 0 L 0 0 Z " fill="rgb(255,255,255)"/></clipPath><g clip-path="url(#_clipPath_HWwkCDUfuEa2oI3Wwx0YOHvb8aC2TWun)"><path d=" M 236.241 276.573 L 238.131 280.243 L 234.042 283.974 L 233.461 284.493 L 227.131 290.243 L 223.631 293.434 L 216.691 293.063 L 217.891 290.773 L 221.691 283.504 L 223.881 279.304 L 226.131 275.004 L 230.071 272.123 C 230.071 272.123 229.571 273.813 231.542 274.373 C 233.511 274.934 234.941 274.063 234.941 274.063 L 235.481 275.113 L 236.241 276.573 Z " fill="rgb(38,39,51)"/></g><clipPath id="_clipPath_1GjDwGblLuSuDZoZ8sYhWSYBRBFmdj0C"><path d=" M 0 0 L 0 500 L 500 500 L 500 0 L 0 0 Z " fill="rgb(255,255,255)"/></clipPath><g clip-path="url(#_clipPath_1GjDwGblLuSuDZoZ8sYhWSYBRBFmdj0C)"><path d=" M 237.091 267.804 L 237.221 268.873 C 237.181 269.094 237.091 269.304 236.981 269.493 C 236.731 269.943 236.381 270.273 236.381 270.273 C 236.381 271.434 235.971 272.123 235.971 272.123 C 235.971 272.533 235.821 272.913 235.641 273.224 C 235.341 273.733 234.941 274.063 234.941 274.063 C 234.941 274.063 233.511 274.934 231.542 274.373 C 229.571 273.813 230.071 272.123 230.071 272.123 L 230.881 270.894 C 231.091 269.813 232.301 269.104 232.301 269.104 C 232.261 267.983 232.301 268.044 232.301 268.044 C 232.301 268.044 233.261 266.254 234.941 265.934 C 236.631 265.623 237.091 267.804 237.091 267.804 Z " fill="rgb(36,37,43)"/></g><clipPath id="_clipPath_8g1Sr2TFBcwH9UcfdJgiq69SK1q8zXhj"><path d=" M 0 0 L 0 500 L 500 500 L 500 0 L 0 0 Z " fill="rgb(255,255,255)"/></clipPath><g clip-path="url(#_clipPath_8g1Sr2TFBcwH9UcfdJgiq69SK1q8zXhj)"><path d=" M 223.881 279.304 L 221.691 283.504 L 179.352 284.623 L 180.381 283.634 L 180.391 283.634 L 183.591 280.584 L 223.881 279.304 Z " fill="rgb(38,39,51)"/></g><clipPath id="_clipPath_GJ5KAZsw2ksA00XmhDwq6hYSuRLt8lB3"><path d=" M 0 0 L 0 500 L 500 500 L 500 0 L 0 0 Z " fill="rgb(255,255,255)"/></clipPath><g clip-path="url(#_clipPath_GJ5KAZsw2ksA00XmhDwq6hYSuRLt8lB3)"><path d=" M 186.421 293.413 L 186.421 293.434 L 188.921 296.554 L 185.721 297.323 L 185.711 297.323 L 186.171 291.703 L 174.251 283.644 L 174.261 283.634 L 180.381 283.634 L 179.352 284.623 L 221.691 283.504 L 217.891 290.773 L 186.421 293.413 Z " fill="rgb(57,60,76)"/></g><clipPath id="_clipPath_RGY4lP4x8a0hTdn2hRcYC3B4snsx8KQ3"><path d=" M 0 0 L 0 500 L 500 500 L 500 0 L 0 0 Z " fill="rgb(255,255,255)"/></clipPath><g clip-path="url(#_clipPath_RGY4lP4x8a0hTdn2hRcYC3B4snsx8KQ3)"><path d=" M 210.881 259.743 L 209.261 262.434 L 172.381 261.604 L 167.381 256.844 L 165.761 256.844 L 165.761 256.134 L 164.471 255.304 C 165.821 255.403 166.281 254.863 166.441 254.413 L 175.071 253.813 L 210.881 259.743 Z " fill="rgb(38,39,51)"/></g><clipPath id="_clipPath_ucMZ8T4Rm8bhh2ymUTieUlrVAw7t6ltb"><path d=" M 0 0 L 0 500 L 500 500 L 500 0 L 0 0 Z " fill="rgb(255,255,255)"/></clipPath><g clip-path="url(#_clipPath_ucMZ8T4Rm8bhh2ymUTieUlrVAw7t6ltb)"><path d=" M 188.921 296.554 L 188.921 302.123 L 183.792 304.094 L 185.671 297.834 L 185.711 297.323 L 185.721 297.323 L 188.921 296.554 Z " fill="rgb(36,37,43)"/></g><clipPath id="_clipPath_tyeROBASrBUMDGocLdCdXbHi1vCf8Jr3"><path d=" M 0 0 L 0 500 L 500 500 L 500 0 L 0 0 Z " fill="rgb(255,255,255)"/></clipPath><g clip-path="url(#_clipPath_tyeROBASrBUMDGocLdCdXbHi1vCf8Jr3)"><path d=" M 186.171 291.703 L 185.711 297.323 L 185.671 297.834 L 163.631 282.123 L 160.321 279.304 L 169.671 280.544 L 174.251 283.644 L 186.171 291.703 Z " fill="rgb(75,79,99)"/></g><clipPath id="_clipPath_dJBZrbtjpla5TjQaPD2VGGAAiGpG7iyk"><path d=" M 0 0 L 0 500 L 500 500 L 500 0 L 0 0 Z " fill="rgb(255,255,255)"/></clipPath><g clip-path="url(#_clipPath_dJBZrbtjpla5TjQaPD2VGGAAiGpG7iyk)"><path d=" M 163.381 312.754 L 160.321 313.794 L 162.171 306.004 L 185.671 297.834 L 183.792 304.094 L 183.221 306.004 L 180.661 306.873 L 169.071 310.813 L 163.381 312.754 Z " fill="rgb(57,60,76)"/></g><clipPath id="_clipPath_zhl6vSsYMColXW0JPv3E2EKSqaCdCJlI"><path d=" M 0 0 L 0 500 L 500 500 L 500 0 L 0 0 Z " fill="rgb(255,255,255)"/></clipPath><g clip-path="url(#_clipPath_zhl6vSsYMColXW0JPv3E2EKSqaCdCJlI)"><path d=" M 185.671 297.834 L 162.171 306.004 C 162.171 306.004 148.481 291.104 138.241 288.634 C 140.812 288.903 143.011 288.754 143.011 288.754 L 163.631 282.123 L 185.671 297.834 Z " fill="rgb(100,103,119)"/></g><clipPath id="_clipPath_0FhDA8ePkrhD1Ep3g73AxTGbNPaEwjoW"><path d=" M 0 0 L 0 500 L 500 500 L 500 0 L 0 0 Z " fill="rgb(255,255,255)"/></clipPath><g clip-path="url(#_clipPath_0FhDA8ePkrhD1Ep3g73AxTGbNPaEwjoW)"><path d=" M 180.661 306.873 C 180.661 306.873 186.171 328.663 166.341 330.004 C 156.891 330.634 151.812 325.493 149.091 319.934 L 149.082 319.934 C 147.981 317.684 147.261 315.373 146.792 313.344 L 146.792 313.334 L 150.471 313.413 C 151.571 313.684 152.501 313.913 152.551 313.903 L 156.071 313.214 L 156.221 318.243 C 155.551 322.373 157.381 323.623 157.381 323.623 L 160.451 324.044 C 162.901 324.794 163.381 321.703 163.381 321.703 L 163.381 321.004 L 167.571 324.743 C 172.381 325.373 174.551 322.203 175.341 319.123 C 176.131 316.044 173.521 314.334 173.521 314.334 L 169.071 310.813 L 180.661 306.873 Z " fill="rgb(175,219,218)"/></g><clipPath id="_clipPath_g9SZajSLjNc0ujGC9XLhDwqViXDqPs68"><path d=" M 0 0 L 0 500 L 500 500 L 500 0 L 0 0 Z " fill="rgb(255,255,255)"/></clipPath><g clip-path="url(#_clipPath_g9SZajSLjNc0ujGC9XLhDwqViXDqPs68)"><path d=" M 172.901 322.754 C 174.852 321.014 175.451 318.483 174.231 317.123 C 173.011 315.754 170.441 316.063 168.481 317.804 C 166.531 319.554 165.931 322.073 167.151 323.434 C 168.372 324.804 170.951 324.504 172.901 322.754 Z  M 173.521 314.334 C 173.521 314.334 176.131 316.044 175.341 319.123 C 174.551 322.203 172.381 325.373 167.571 324.743 L 163.381 321.004 L 163.381 312.754 L 169.071 310.813 L 173.521 314.334 Z " fill="rgb(36,37,43)"/></g><clipPath id="_clipPath_7b9uIE7mtSUOo7j1Wwrp0icsUvgdaUjO"><path d=" M 0 0 L 0 500 L 500 500 L 500 0 L 0 0 Z " fill="rgb(255,255,255)"/></clipPath><g clip-path="url(#_clipPath_7b9uIE7mtSUOo7j1Wwrp0icsUvgdaUjO)"><path d=" M 171.891 321.844 C 173.361 320.533 173.941 318.804 173.201 317.974 C 172.461 317.134 170.671 317.523 169.201 318.834 C 167.741 320.144 167.151 321.873 167.891 322.703 C 168.641 323.544 170.431 323.153 171.891 321.844 Z  M 174.231 317.123 C 175.451 318.483 174.852 321.014 172.901 322.754 C 170.951 324.504 168.372 324.804 167.151 323.434 C 165.931 322.073 166.531 319.554 168.481 317.804 C 170.441 316.063 173.011 315.754 174.231 317.123 Z " fill="rgb(57,60,76)"/></g><clipPath id="_clipPath_daFLFaM8Zx9FjkTmhT64tAspghsE0t2J"><path d=" M 0 0 L 0 500 L 500 500 L 500 0 L 0 0 Z " fill="rgb(255,255,255)"/></clipPath><g clip-path="url(#_clipPath_daFLFaM8Zx9FjkTmhT64tAspghsE0t2J)"><path d=" M 173.201 317.974 C 173.941 318.804 173.361 320.533 171.891 321.844 C 170.431 323.153 168.641 323.544 167.891 322.703 C 167.151 321.873 167.741 320.144 169.201 318.834 C 170.671 317.523 172.461 317.134 173.201 317.974 Z " fill="rgb(115,195,191)"/></g><clipPath id="_clipPath_BtAUn6aaL0f4zAE9yFsDaIoBB6kVfdC8"><path d=" M 0 0 L 0 500 L 500 500 L 500 0 L 0 0 Z " fill="rgb(255,255,255)"/></clipPath><g clip-path="url(#_clipPath_BtAUn6aaL0f4zAE9yFsDaIoBB6kVfdC8)"><path d=" M 166.441 254.413 C 166.281 254.863 165.821 255.403 164.471 255.304 L 165.761 256.134 L 165.761 256.844 C 165.761 256.844 164.261 257.804 161.881 256.134 L 161.191 256.134 L 161.191 256.934 L 159.381 256.884 L 159.381 256.134 L 155.881 256.434 L 154.631 256.434 L 154.631 255.334 L 154.631 253.684 C 154.631 253.684 154.622 253.283 154.881 252.924 C 155.051 252.684 155.361 252.453 155.881 252.394 C 157.171 252.224 158.761 252.394 158.761 252.394 C 158.761 252.394 160.091 252.304 159.971 253.854 L 161.551 253.854 C 161.551 253.854 161.381 252.764 162.631 252.764 C 163.881 252.764 166.381 252.394 166.511 253.854 C 166.511 253.854 166.542 254.113 166.441 254.413 Z " fill="rgb(36,37,43)"/></g><clipPath id="_clipPath_jRe2idpHMVAd89Uw51jfOxzR4SE2Waq8"><path d=" M 0 0 L 0 500 L 500 500 L 500 0 L 0 0 Z " fill="rgb(255,255,255)"/></clipPath><g clip-path="url(#_clipPath_jRe2idpHMVAd89Uw51jfOxzR4SE2Waq8)"><path d=" M 166.511 264.214 L 166.511 268.243 C 166.151 268.943 165.531 269.493 164.852 269.913 L 164.841 269.924 C 163.341 270.854 161.551 271.163 161.551 271.163 L 155.921 277.123 C 154.381 276.373 152.531 275.493 150.591 274.584 L 160.591 264.413 L 161.292 266.214 C 166.011 266.434 166.511 264.214 166.511 264.214 Z " fill="rgb(57,60,76)"/></g><clipPath id="_clipPath_fmX7abxgMYE0lPIBu2Cu41t7oRfMNWqi"><path d=" M 0 0 L 0 500 L 500 500 L 500 0 L 0 0 Z " fill="rgb(255,255,255)"/></clipPath><g clip-path="url(#_clipPath_fmX7abxgMYE0lPIBu2Cu41t7oRfMNWqi)"><path d=" M 166.511 258.214 L 166.511 264.214 C 166.511 264.214 166.011 266.434 161.292 266.214 L 160.591 264.413 L 155.671 264.413 L 154.881 265.283 L 154.881 257.924 C 154.881 257.924 155.341 260.004 160.131 260.004 C 164.921 260.004 166.511 258.214 166.511 258.214 Z " fill="rgb(253,201,106)"/></g><clipPath id="_clipPath_ZTytYAAvaiUkRTKfggAfKZVYNGiGHXG5"><path d=" M 0 0 L 0 500 L 500 500 L 500 0 L 0 0 Z " fill="rgb(255,255,255)"/></clipPath><g clip-path="url(#_clipPath_ZTytYAAvaiUkRTKfggAfKZVYNGiGHXG5)"><path d=" M 165.761 257.504 C 166.171 257.674 166.511 258.214 166.511 258.214 C 166.511 258.214 164.921 260.004 160.131 260.004 C 155.341 260.004 154.881 257.924 154.881 257.924 C 154.881 257.924 155.051 257.224 155.881 257.094 L 155.881 257.863 C 155.881 257.863 156.551 258.884 160.691 258.884 C 164.841 258.884 165.761 257.924 165.761 257.924 L 165.761 257.504 Z " fill="rgb(36,37,43)"/></g><clipPath id="_clipPath_f44OsX2JAkjf1SFm8l2ZbzubUOFJZV7h"><path d=" M 0 0 L 0 500 L 500 500 L 500 0 L 0 0 Z " fill="rgb(255,255,255)"/></clipPath><g clip-path="url(#_clipPath_f44OsX2JAkjf1SFm8l2ZbzubUOFJZV7h)"><path d=" M 165.761 257.504 L 165.761 257.924 C 165.761 257.924 164.841 258.884 160.691 258.884 C 156.551 258.884 155.881 257.863 155.881 257.863 L 155.881 257.094 L 155.881 256.434 L 159.381 256.134 L 159.381 256.884 L 161.191 256.934 L 161.191 256.134 L 161.881 256.134 C 164.261 257.804 165.761 256.844 165.761 256.844 L 165.761 257.504 Z " fill="rgb(45,47,59)"/></g><clipPath id="_clipPath_TyzS3gzxo5wxoWawEeCKlwhqcWmj3xf5"><path d=" M 0 0 L 0 500 L 500 500 L 500 0 L 0 0 Z " fill="rgb(255,255,255)"/></clipPath><g clip-path="url(#_clipPath_TyzS3gzxo5wxoWawEeCKlwhqcWmj3xf5)"><path d=" M 164.841 269.924 L 162.551 272.453 L 161.551 272.623 L 161.551 271.163 C 161.551 271.163 163.341 270.854 164.841 269.924 Z " fill="rgb(253,201,106)"/></g><clipPath id="_clipPath_XPZMnWI2lxamctLztwewlPiFe2f6jS8V"><path d=" M 0 0 L 0 500 L 500 500 L 500 0 L 0 0 Z " fill="rgb(255,255,255)"/></clipPath><g clip-path="url(#_clipPath_XPZMnWI2lxamctLztwewlPiFe2f6jS8V)"><path d=" M 155.921 277.123 C 158.542 278.403 160.321 279.304 160.321 279.304 L 163.631 282.123 L 143.011 288.754 L 118.011 274.584 L 132.261 268.913 C 135.381 269.834 139.821 269.913 139.821 269.913 C 142.091 270.764 144.891 271.974 147.681 273.233 C 148.661 273.684 149.641 274.134 150.591 274.584 C 152.531 275.493 154.381 276.373 155.921 277.123 Z " fill="rgb(75,79,99)"/></g><clipPath id="_clipPath_rwmlEc33crRWw8ZhYQx3Tnh7LEYHAS7K"><path d=" M 0 0 L 0 500 L 500 500 L 500 0 L 0 0 Z " fill="rgb(255,255,255)"/></clipPath><g clip-path="url(#_clipPath_rwmlEc33crRWw8ZhYQx3Tnh7LEYHAS7K)"><path d=" M 163.381 321.004 L 163.381 321.703 C 163.381 321.703 162.901 324.794 160.451 324.044 L 160.451 318.464 L 158.671 316.623 L 158.441 312.743 L 159.471 313.243 L 160.321 313.794 L 163.381 312.754 L 163.381 321.004 Z " fill="rgb(57,60,76)"/></g><clipPath id="_clipPath_Dq1Ko3GaxCRLp5iMxOfB7GZeznyktF1D"><path d=" M 0 0 L 0 500 L 500 500 L 500 0 L 0 0 Z " fill="rgb(255,255,255)"/></clipPath><g clip-path="url(#_clipPath_Dq1Ko3GaxCRLp5iMxOfB7GZeznyktF1D)"><path d=" M 139.881 310.153 L 135.082 307.703 L 136.171 306.754 L 134.841 298.913 L 135.261 298.224 C 140.312 301.193 146.421 304.563 146.421 304.563 L 162.171 306.004 L 160.321 313.794 L 159.471 313.243 C 159.471 313.243 161.511 308.023 159.721 307.214 C 157.921 306.413 146.971 305.453 146.971 305.453 L 146.761 312.453 C 146.761 312.453 148.812 312.993 150.471 313.413 L 146.792 313.334 L 146.091 313.323 L 139.881 310.153 Z " fill="rgb(36,37,43)"/></g><clipPath id="_clipPath_afGHyf6F179v5Gm7Yc201NdSrRmsK8HZ"><path d=" M 0 0 L 0 500 L 500 500 L 500 0 L 0 0 Z " fill="rgb(255,255,255)"/></clipPath><g clip-path="url(#_clipPath_afGHyf6F179v5Gm7Yc201NdSrRmsK8HZ)"><path d=" M 162.171 306.004 L 146.421 304.563 C 146.421 304.563 140.312 301.193 135.261 298.224 C 131.801 296.203 128.841 294.363 128.671 293.924 C 128.261 292.834 130.841 288.794 130.841 288.794 C 131.341 287.934 132.841 287.663 136.171 288.334 C 136.861 288.474 137.562 288.563 138.241 288.634 C 148.481 291.104 162.171 306.004 162.171 306.004 Z " fill="rgb(75,79,99)"/></g><clipPath id="_clipPath_G72BcgP29AdA0wBrL2cz8GMyiRrbfjyz"><path d=" M 0 0 L 0 500 L 500 500 L 500 0 L 0 0 Z " fill="rgb(255,255,255)"/></clipPath><g clip-path="url(#_clipPath_G72BcgP29AdA0wBrL2cz8GMyiRrbfjyz)"><path d=" M 160.591 264.413 L 150.591 274.584 C 149.641 274.134 148.661 273.684 147.681 273.233 L 154.881 265.294 L 154.881 265.283 L 155.671 264.413 L 160.591 264.413 Z " fill="rgb(38,39,51)"/></g><clipPath id="_clipPath_EiSTtxuKELzvW4K5S0XjSj84O2kp4DWU"><path d=" M 0 0 L 0 500 L 500 500 L 500 0 L 0 0 Z " fill="rgb(255,255,255)"/></clipPath><g clip-path="url(#_clipPath_EiSTtxuKELzvW4K5S0XjSj84O2kp4DWU)"><path d=" M 160.451 318.464 L 160.451 324.044 L 157.381 323.623 C 157.381 323.623 155.551 322.373 156.221 318.243 L 156.071 313.214 L 158.441 312.743 L 158.671 316.623 L 160.451 318.464 Z " fill="rgb(36,37,43)"/></g><clipPath id="_clipPath_keaginGssn31TVKeML1UOcwArXvCUxX6"><path d=" M 0 0 L 0 500 L 500 500 L 500 0 L 0 0 Z " fill="rgb(255,255,255)"/></clipPath><g clip-path="url(#_clipPath_keaginGssn31TVKeML1UOcwArXvCUxX6)"><path d=" M 159.721 307.214 C 161.511 308.023 159.471 313.243 159.471 313.243 L 158.441 312.743 C 158.441 312.743 158.551 310.834 158.571 309.684 C 158.591 308.533 157.981 306.773 155.321 307.123 C 152.651 307.474 152.551 310.313 152.551 310.313 L 152.551 313.903 C 152.501 313.913 151.571 313.684 150.471 313.413 C 148.812 312.993 146.761 312.453 146.761 312.453 L 146.971 305.453 C 146.971 305.453 157.921 306.413 159.721 307.214 Z " fill="rgb(57,60,76)"/></g><clipPath id="_clipPath_PRi3xwSvUUFJC1aWE0RHOpIWrzjOUqVW"><path d=" M 0 0 L 0 500 L 500 500 L 500 0 L 0 0 Z " fill="rgb(255,255,255)"/></clipPath><g clip-path="url(#_clipPath_PRi3xwSvUUFJC1aWE0RHOpIWrzjOUqVW)"><path d=" M 157.741 310.384 C 157.741 309.144 156.812 308.144 155.671 308.144 C 154.531 308.144 153.602 309.144 153.602 310.384 C 153.602 311.623 154.531 312.623 155.671 312.623 C 156.812 312.623 157.741 311.623 157.741 310.384 Z  M 155.321 307.123 C 157.981 306.773 158.591 308.533 158.571 309.684 C 158.551 310.834 158.441 312.743 158.441 312.743 L 156.071 313.214 L 152.551 313.903 L 152.551 310.313 C 152.551 310.313 152.651 307.474 155.321 307.123 Z " fill="rgb(36,37,43)"/></g><clipPath id="_clipPath_fTtP68px2kHpiYu8hRfNGWLfLoRuOngz"><path d=" M 0 0 L 0 500 L 500 500 L 500 0 L 0 0 Z " fill="rgb(255,255,255)"/></clipPath><g clip-path="url(#_clipPath_fTtP68px2kHpiYu8hRfNGWLfLoRuOngz)"><path d=" M 155.671 308.144 C 156.812 308.144 157.741 309.144 157.741 310.384 C 157.741 311.623 156.812 312.623 155.671 312.623 C 154.531 312.623 153.602 311.623 153.602 310.384 C 153.602 309.144 154.531 308.144 155.671 308.144 Z " fill="rgb(238,77,73)"/></g><clipPath id="_clipPath_FZoY7HJDyC9zV7eRU09iZmicVM1v348o"><path d=" M 0 0 L 0 500 L 500 500 L 500 0 L 0 0 Z " fill="rgb(255,255,255)"/></clipPath><g clip-path="url(#_clipPath_FZoY7HJDyC9zV7eRU09iZmicVM1v348o)"><path d=" M 151.011 253.434 L 154.881 252.924 C 154.622 253.283 154.631 253.684 154.631 253.684 L 154.631 255.334 C 154.631 255.334 112.511 251.834 112.761 250.753 C 113.011 249.664 113.591 249.833 113.591 249.833 L 150.741 253.724 L 151.011 253.434 Z " fill="rgb(38,39,51)"/></g><clipPath id="_clipPath_k8gQ16fYgqkLp9EKdUJAN7mAHO3duDFI"><path d=" M 0 0 L 0 500 L 500 500 L 500 0 L 0 0 Z " fill="rgb(255,255,255)"/></clipPath><g clip-path="url(#_clipPath_k8gQ16fYgqkLp9EKdUJAN7mAHO3duDFI)"><path d=" M 149.082 319.934 L 141.441 317.934 L 139.881 310.153 L 146.091 313.323 L 146.792 313.334 L 146.792 313.344 C 147.261 315.373 147.981 317.684 149.082 319.934 Z " fill="rgb(36,37,43)"/></g><clipPath id="_clipPath_JFIOpSFJbcYIY15n4LLlyQiu7ZroGV8r"><path d=" M 0 0 L 0 500 L 500 500 L 500 0 L 0 0 Z " fill="rgb(255,255,255)"/></clipPath><g clip-path="url(#_clipPath_JFIOpSFJbcYIY15n4LLlyQiu7ZroGV8r)"><path d=" M 112.891 317.613 L 121.321 319.733 L 147.631 326.373 L 143.511 330.054 L 110.001 328.584 L 101.631 328.214 L 98.631 322.123 L 95.931 320.464 L 93.441 318.934 C 93.441 318.934 99.011 318.813 98.441 317.004 C 98.312 316.584 98.252 316.334 98.221 316.193 L 98.221 316.174 L 98.211 316.134 C 98.171 315.794 98.511 316.504 98.511 316.504 L 105.261 316.504 L 108.511 316.504 L 112.891 317.613 Z " fill="rgb(38,39,51)"/></g><clipPath id="_clipPath_BF4hrsQrvM1GtEgBeB4pwHXve3MwxtC2"><path d=" M 0 0 L 0 500 L 500 500 L 500 0 L 0 0 Z " fill="rgb(255,255,255)"/></clipPath><g clip-path="url(#_clipPath_BF4hrsQrvM1GtEgBeB4pwHXve3MwxtC2)"><path d=" M 118.011 274.584 L 143.011 288.754 C 143.011 288.754 140.812 288.903 138.241 288.634 C 137.562 288.563 136.861 288.474 136.171 288.334 C 132.841 287.663 131.341 287.934 130.841 288.794 L 112.171 277.584 L 118.011 274.584 Z " fill="rgb(57,60,76)"/></g><clipPath id="_clipPath_926JWux3H7UzQkrscncB0o5uqizNByrq"><path d=" M 0 0 L 0 500 L 500 500 L 500 0 L 0 0 Z " fill="rgb(255,255,255)"/></clipPath><g clip-path="url(#_clipPath_926JWux3H7UzQkrscncB0o5uqizNByrq)"><path d=" M 139.881 310.153 L 141.441 317.934 L 137.901 317.934 L 134.891 307.873 L 135.082 307.703 L 139.881 310.153 Z " fill="rgb(45,47,59)"/></g><clipPath id="_clipPath_t4UJrww7euEwzuryFEPnc9gJNRTwPX47"><path d=" M 0 0 L 0 500 L 500 500 L 500 0 L 0 0 Z " fill="rgb(255,255,255)"/></clipPath><g clip-path="url(#_clipPath_t4UJrww7euEwzuryFEPnc9gJNRTwPX47)"><path d=" M 134.891 307.873 L 137.901 317.934 L 130.021 312.134 L 134.891 307.873 Z " fill="rgb(36,37,43)"/></g><clipPath id="_clipPath_jDDWfhfccy7jTYz1r6Tw85dUzKVYcTpb"><path d=" M 0 0 L 0 500 L 500 500 L 500 0 L 0 0 Z " fill="rgb(255,255,255)"/></clipPath><g clip-path="url(#_clipPath_jDDWfhfccy7jTYz1r6Tw85dUzKVYcTpb)"><path d=" M 134.891 307.873 L 130.021 312.134 L 121.321 319.733 L 112.891 317.613 L 134.841 298.913 L 136.171 306.754 L 135.082 307.703 L 134.891 307.873 Z " fill="rgb(57,60,76)"/></g><clipPath id="_clipPath_rEcUn4OUix6eHB9N0nz5tsBlSDzG2IrY"><path d=" M 0 0 L 0 500 L 500 500 L 500 0 L 0 0 Z " fill="rgb(255,255,255)"/></clipPath><g clip-path="url(#_clipPath_rEcUn4OUix6eHB9N0nz5tsBlSDzG2IrY)"><path d=" M 135.261 298.224 L 134.841 298.913 L 129.102 299.174 L 129.091 298.913 C 129.091 298.663 112.761 288.504 112.761 288.504 L 112.511 283.834 L 112.171 277.584 L 130.841 288.794 C 130.841 288.794 128.261 292.834 128.671 293.924 C 128.841 294.363 131.801 296.203 135.261 298.224 Z " fill="rgb(36,37,43)"/></g><clipPath id="_clipPath_bQc4BPKANZCXUHI0pFNkYgn7Ipm3SMiQ"><path d=" M 0 0 L 0 500 L 500 500 L 500 0 L 0 0 Z " fill="rgb(255,255,255)"/></clipPath><g clip-path="url(#_clipPath_bQc4BPKANZCXUHI0pFNkYgn7Ipm3SMiQ)"><path d=" M 124.741 299.983 L 125.511 299.334 L 129.102 299.174 L 134.841 298.913 L 112.891 317.613 L 108.511 316.504 L 105.261 316.504 L 119.221 304.663 L 124.741 299.983 Z " fill="rgb(38,39,51)"/></g><clipPath id="_clipPath_IezYue93h3AL4mKcRWLvCrny4rFkob4W"><path d=" M 0 0 L 0 500 L 500 500 L 500 0 L 0 0 Z " fill="rgb(255,255,255)"/></clipPath><g clip-path="url(#_clipPath_IezYue93h3AL4mKcRWLvCrny4rFkob4W)"><path d=" M 132.261 268.913 L 118.011 274.584 L 112.171 271.273 L 124.511 267.504 L 132.261 268.913 Z " fill="rgb(57,60,76)"/></g><clipPath id="_clipPath_CCYFrAvZxdC0Uqlu2tv9OBH1w7Grtl4N"><path d=" M 0 0 L 0 500 L 500 500 L 500 0 L 0 0 Z " fill="rgb(255,255,255)"/></clipPath><g clip-path="url(#_clipPath_CCYFrAvZxdC0Uqlu2tv9OBH1w7Grtl4N)"><path d=" M 129.091 298.913 L 129.102 299.174 L 125.511 299.334 L 124.741 299.983 L 113.761 292.163 L 113.131 291.443 L 108.281 285.823 L 107.171 284.544 L 111.031 280.544 L 110.841 282.123 L 112.511 283.834 L 112.761 288.504 C 112.761 288.504 129.091 298.663 129.091 298.913 Z " fill="rgb(48,50,56)"/></g><clipPath id="_clipPath_HsINNK3MW4bgJiDlbwcPW5KrvHmNmUm0"><path d=" M 0 0 L 0 500 L 500 500 L 500 0 L 0 0 Z " fill="rgb(255,255,255)"/></clipPath><g clip-path="url(#_clipPath_HsINNK3MW4bgJiDlbwcPW5KrvHmNmUm0)"><path d=" M 124.741 299.983 L 119.221 304.663 L 119.131 304.563 L 112.171 298.733 C 112.731 298.174 113.122 297.483 113.131 296.663 C 113.181 293.703 111.421 292.304 111.421 292.304 L 113.761 292.163 L 124.741 299.983 Z " fill="rgb(36,37,43)"/></g><clipPath id="_clipPath_tM6BNYgcwjt6UmTs1fdKPRoJGr3NMQrO"><path d=" M 0 0 L 0 500 L 500 500 L 500 0 L 0 0 Z " fill="rgb(255,255,255)"/></clipPath><g clip-path="url(#_clipPath_tM6BNYgcwjt6UmTs1fdKPRoJGr3NMQrO)"><path d=" M 118.011 274.584 L 112.171 277.584 L 112.511 283.834 L 110.841 282.123 L 111.031 280.544 L 112.171 271.273 L 118.011 274.584 Z " fill="rgb(75,79,99)"/></g><clipPath id="_clipPath_gFCnDMwoSmTLH9geGJweMBzrAUU4HL0Y"><path d=" M 0 0 L 0 500 L 500 500 L 500 0 L 0 0 Z " fill="rgb(255,255,255)"/></clipPath><g clip-path="url(#_clipPath_gFCnDMwoSmTLH9geGJweMBzrAUU4HL0Y)"><path d=" M 113.131 291.443 L 113.761 292.163 L 111.421 292.304 L 106.221 292.623 L 106.421 291.703 L 113.131 291.443 Z " fill="rgb(57,60,76)"/></g><clipPath id="_clipPath_94wSWYjapw5HY67BMzxXMH3RzVnmSFVP"><path d=" M 0 0 L 0 500 L 500 500 L 500 0 L 0 0 Z " fill="rgb(255,255,255)"/></clipPath><g clip-path="url(#_clipPath_94wSWYjapw5HY67BMzxXMH3RzVnmSFVP)"><path d=" M 107.171 286.644 L 108.281 285.823 L 113.131 291.443 L 106.421 291.703 L 103.221 289.584 L 107.171 286.644 Z " fill="rgb(38,39,44)"/></g><clipPath id="_clipPath_WUgxdP8YX6ZzIUEP7JdqiyGvd0ifb5KX"><path d=" M 0 0 L 0 500 L 500 500 L 500 0 L 0 0 Z " fill="rgb(255,255,255)"/></clipPath><g clip-path="url(#_clipPath_WUgxdP8YX6ZzIUEP7JdqiyGvd0ifb5KX)"><path d=" M 111.421 292.304 C 111.421 292.304 113.181 293.703 113.131 296.663 C 113.122 297.483 112.731 298.174 112.171 298.733 C 111.491 299.434 110.551 299.943 109.751 300.273 C 110.261 299.873 110.591 299.203 110.511 298.123 C 110.221 294.203 106.221 292.623 106.221 292.623 L 111.421 292.304 Z " fill="rgb(45,47,59)"/></g><clipPath id="_clipPath_l5dpnccefcsNRY9DVKi28MsvU1Hk0Zgj"><path d=" M 0 0 L 0 500 L 500 500 L 500 0 L 0 0 Z " fill="rgb(255,255,255)"/></clipPath><g clip-path="url(#_clipPath_l5dpnccefcsNRY9DVKi28MsvU1Hk0Zgj)"><path d=" M 110.511 298.123 C 110.591 299.203 110.261 299.873 109.751 300.273 L 109.731 300.283 C 109.082 300.563 108.531 300.724 108.292 300.794 L 108.251 300.804 C 107.021 300.924 105.761 300.544 105.761 300.544 L 105.761 292.354 L 106.221 292.623 C 106.221 292.623 110.221 294.203 110.511 298.123 Z " fill="rgb(36,37,43)"/></g><clipPath id="_clipPath_ZukpDifgyl9rZ0rZMCUuIuEEgLLIOyll"><path d=" M 0 0 L 0 500 L 500 500 L 500 0 L 0 0 Z " fill="rgb(255,255,255)"/></clipPath><g clip-path="url(#_clipPath_ZukpDifgyl9rZ0rZMCUuIuEEgLLIOyll)"><path d=" M 110.001 328.584 L 102.921 334.254 C 102.921 334.254 104.011 337.254 99.511 339.334 L 107.761 360.243 L 100.761 362.504 L 91.261 340.873 C 91.261 340.873 86.921 341.203 86.721 337.834 L 86.721 331.373 C 86.721 331.373 86.881 333.373 93.631 332.834 C 100.381 332.294 101.631 328.214 101.631 328.214 L 110.001 328.584 Z " fill="rgb(57,60,76)"/></g><clipPath id="_clipPath_KreduqBDTYvpyuIJah1nfcVKTx9BYx7m"><path d=" M 0 0 L 0 500 L 500 500 L 500 0 L 0 0 Z " fill="rgb(255,255,255)"/></clipPath><g clip-path="url(#_clipPath_KreduqBDTYvpyuIJah1nfcVKTx9BYx7m)"><path d=" M 108.281 285.823 L 107.171 286.644 L 107.171 284.544 L 108.281 285.823 Z " fill="rgb(38,39,44)"/></g><clipPath id="_clipPath_EXeJLfGv1cpJzPHuEBApDRgKkIolqkRZ"><path d=" M 0 0 L 0 500 L 500 500 L 500 0 L 0 0 Z " fill="rgb(255,255,255)"/></clipPath><g clip-path="url(#_clipPath_EXeJLfGv1cpJzPHuEBApDRgKkIolqkRZ)"><path d=" M 106.421 291.703 L 106.221 292.623 L 105.761 292.354 L 103.221 290.834 L 103.221 289.584 L 106.421 291.703 Z " fill="rgb(57,60,76)"/></g><clipPath id="_clipPath_agwJgl1MOWiUa2NZSR7TSREnZo8Cs1vK"><path d=" M 0 0 L 0 500 L 500 500 L 500 0 L 0 0 Z " fill="rgb(255,255,255)"/></clipPath><g clip-path="url(#_clipPath_agwJgl1MOWiUa2NZSR7TSREnZo8Cs1vK)"><path d=" M 105.761 292.354 L 105.761 300.544 L 59.051 301.653 L 59.051 297.913 L 61.231 295.174 L 62.542 293.523 L 105.761 292.354 Z " fill="rgb(57,60,76)"/></g><clipPath id="_clipPath_7bPYVemOuHF9cl99AM0Sw6zO0ij6yBzA"><path d=" M 0 0 L 0 500 L 500 500 L 500 0 L 0 0 Z " fill="rgb(255,255,255)"/></clipPath><g clip-path="url(#_clipPath_7bPYVemOuHF9cl99AM0Sw6zO0ij6yBzA)"><path d=" M 103.221 290.834 L 105.761 292.354 L 62.542 293.523 L 63.801 291.934 L 103.221 290.834 Z " fill="rgb(38,39,51)"/></g><clipPath id="_clipPath_THCzghs9xWVhaS5fFzn5oWzh8KVoB5sj"><path d=" M 0 0 L 0 500 L 500 500 L 500 0 L 0 0 Z " fill="rgb(255,255,255)"/></clipPath><g clip-path="url(#_clipPath_THCzghs9xWVhaS5fFzn5oWzh8KVoB5sj)"><path d=" M 98.631 322.123 L 101.631 328.214 C 101.631 328.214 100.381 332.294 93.631 332.834 C 86.881 333.373 86.721 331.373 86.721 331.373 C 85.491 327.563 85.352 322.813 85.352 322.813 L 85.931 322.813 L 85.931 323.964 C 85.931 323.964 92.691 326.813 98.631 322.123 Z " fill="rgb(253,201,106)"/></g><clipPath id="_clipPath_9yCOqD22j1Tu2MHTzBUHZVd6NPjWm8EY"><path d=" M 0 0 L 0 500 L 500 500 L 500 0 L 0 0 Z " fill="rgb(255,255,255)"/></clipPath><g clip-path="url(#_clipPath_9yCOqD22j1Tu2MHTzBUHZVd6NPjWm8EY)"><path d=" M 95.931 320.464 L 98.631 322.123 C 92.691 326.813 85.931 323.964 85.931 323.964 L 85.931 322.813 L 85.931 319.254 C 87.031 319.993 90.301 321.674 95.931 320.464 Z " fill="rgb(36,37,43)"/></g><clipPath id="_clipPath_lQrSfuzhvEI8wCuZTwwzS2yA0EeJcmoR"><path d=" M 0 0 L 0 500 L 500 500 L 500 0 L 0 0 Z " fill="rgb(255,255,255)"/></clipPath><g clip-path="url(#_clipPath_lQrSfuzhvEI8wCuZTwwzS2yA0EeJcmoR)"><path d=" M 85.511 316.594 L 85.191 316.504 C 80.941 316.504 81.571 315.243 81.571 315.243 L 81.661 315.054 C 82.332 314.073 85.511 314.123 85.511 314.123 C 85.511 314.123 84.551 314.953 85.511 315.584 C 86.471 316.203 88.841 315.584 88.841 315.584 C 88.841 315.584 89.301 316.504 92.011 316.504 C 92.011 316.504 93.071 318.004 95.761 317.504 C 98.191 317.054 98.241 316.323 98.221 316.193 C 98.252 316.334 98.312 316.584 98.441 317.004 C 99.011 318.813 93.441 318.934 93.441 318.934 L 85.511 316.594 Z " fill="rgb(36,37,43)"/></g><clipPath id="_clipPath_mioc5qjO2vJIDDTSttFDLBRHkYJTGxqM"><path d=" M 0 0 L 0 500 L 500 500 L 500 0 L 0 0 Z " fill="rgb(255,255,255)"/></clipPath><g clip-path="url(#_clipPath_mioc5qjO2vJIDDTSttFDLBRHkYJTGxqM)"><path d=" M 98.221 316.193 C 98.241 316.323 98.191 317.054 95.761 317.504 C 93.071 318.004 92.011 316.504 92.011 316.504 C 89.301 316.504 88.841 315.584 88.841 315.584 C 88.841 315.584 86.471 316.203 85.511 315.584 C 84.551 314.953 85.511 314.123 85.511 314.123 C 88.511 312.493 90.721 314.123 90.721 314.123 C 92.301 314.033 93.261 315.123 93.261 315.123 C 93.261 315.123 94.421 315.044 96.301 315.123 C 97.941 315.193 98.181 315.943 98.211 316.134 L 98.221 316.174 L 98.221 316.193 Z " fill="rgb(36,37,43)"/></g><clipPath id="_clipPath_vVT5AkTf61vViFAEcYAQNP1jWM7OeFsv"><path d=" M 0 0 L 0 500 L 500 500 L 500 0 L 0 0 Z " fill="rgb(255,255,255)"/></clipPath><g clip-path="url(#_clipPath_vVT5AkTf61vViFAEcYAQNP1jWM7OeFsv)"><path d=" M 93.441 318.934 L 95.931 320.464 C 90.301 321.674 87.031 319.993 85.931 319.254 C 85.651 319.063 85.511 318.934 85.511 318.934 L 85.511 317.504 L 85.511 316.594 L 93.441 318.934 Z " fill="rgb(45,47,59)"/></g><clipPath id="_clipPath_h8YpEvQFzYKBlN1IoSYI9kgcHQE3utxz"><path d=" M 0 0 L 0 500 L 500 500 L 500 0 L 0 0 Z " fill="rgb(255,255,255)"/></clipPath><g clip-path="url(#_clipPath_h8YpEvQFzYKBlN1IoSYI9kgcHQE3utxz)"><path d=" M 85.511 316.594 L 85.511 317.504 L 71.881 316.504 L 42.321 310.934 L 44.941 309.424 C 44.941 309.424 69.821 311.684 81.542 315.004 L 81.661 315.054 L 81.571 315.243 C 81.571 315.243 80.941 316.504 85.191 316.504 L 85.511 316.594 Z " fill="rgb(38,39,51)"/></g><clipPath id="_clipPath_5lNCSCSVDLvJpC7W2sufgIX6WODqya6w"><path d=" M 0 0 L 0 500 L 500 500 L 500 0 L 0 0 Z " fill="rgb(255,255,255)"/></clipPath><g clip-path="url(#_clipPath_5lNCSCSVDLvJpC7W2sufgIX6WODqya6w)"><path d=" M 63.341 263.163 L 67.421 262.254 C 66.761 264.504 61.011 278.163 61.011 278.163 L 56.011 283.334 C 56.011 283.334 56.091 281.123 54.511 281.163 C 52.921 281.203 51.511 282.834 51.511 282.834 L 50.671 281.413 L 63.341 263.163 Z " fill="rgb(38,39,51)"/></g><clipPath id="_clipPath_vzU8biwEaXcerr1MW1d5HuNBhJK3KOl3"><path d=" M 0 0 L 0 500 L 500 500 L 500 0 L 0 0 Z " fill="rgb(255,255,255)"/></clipPath><g clip-path="url(#_clipPath_vzU8biwEaXcerr1MW1d5HuNBhJK3KOl3)"><path d=" M 58.381 302.714 C 54.361 303.913 51.641 303.464 50.341 303.073 C 49.741 302.884 49.441 302.714 49.441 302.714 L 49.441 301.934 L 52.221 298.834 C 52.221 298.834 57.691 298.993 59.261 296.493 L 59.341 295.123 L 61.161 295.123 L 61.231 295.174 L 59.051 297.913 L 59.051 301.653 L 59.051 302.504 C 58.821 302.584 58.602 302.653 58.381 302.714 Z " fill="rgb(57,60,76)"/></g><clipPath id="_clipPath_E9VVEBcpX6Edxzs1UpqfX9tCimK57UN7"><path d=" M 0 0 L 0 500 L 500 500 L 500 0 L 0 0 Z " fill="rgb(255,255,255)"/></clipPath><g clip-path="url(#_clipPath_E9VVEBcpX6Edxzs1UpqfX9tCimK57UN7)"><path d=" M 59.341 291.163 C 59.341 293.004 59.341 295.123 59.341 295.123 L 59.261 296.493 C 57.691 298.993 52.221 298.834 52.221 298.834 L 54.261 296.563 L 52.091 292.434 C 52.211 292.493 53.502 293.023 57.091 291.163 C 58.562 290.403 58.891 289.533 58.731 288.743 L 58.741 288.743 C 58.741 288.743 59.341 289.334 59.341 291.163 Z " fill="rgb(253,201,106)"/></g><clipPath id="_clipPath_LDWpJmIjnY7nZAeAYHFcEWraiSpMaBWA"><path d=" M 0 0 L 0 500 L 500 500 L 500 0 L 0 0 Z " fill="rgb(255,255,255)"/></clipPath><g clip-path="url(#_clipPath_LDWpJmIjnY7nZAeAYHFcEWraiSpMaBWA)"><path d=" M 58.731 288.743 C 58.891 289.533 58.562 290.403 57.091 291.163 C 53.502 293.023 52.211 292.493 52.091 292.434 L 52.082 292.424 L 51.661 291.623 L 51.671 291.623 C 54.372 291.304 57.471 289.504 57.381 287.754 C 57.352 287.123 57.221 286.743 57.071 286.523 L 57.091 286.504 C 57.091 286.504 58.502 287.514 58.731 288.743 Z " fill="rgb(36,37,43)"/></g><clipPath id="_clipPath_KOGdFe7EAVXmBwCAcnntoOgPHjRlCcmX"><path d=" M 0 0 L 0 500 L 500 500 L 500 0 L 0 0 Z " fill="rgb(255,255,255)"/></clipPath><g clip-path="url(#_clipPath_KOGdFe7EAVXmBwCAcnntoOgPHjRlCcmX)"><path d=" M 58.381 302.714 L 58.381 304.563 C 52.542 305.594 50.341 304.563 50.341 304.563 L 50.341 303.073 C 51.641 303.464 54.361 303.913 58.381 302.714 Z " fill="rgb(253,201,106)"/></g><clipPath id="_clipPath_mmyaNOkupZqIwAmmKW3OQGF2mMYLvQVr"><path d=" M 0 0 L 0 500 L 500 500 L 500 0 L 0 0 Z " fill="rgb(255,255,255)"/></clipPath><g clip-path="url(#_clipPath_mmyaNOkupZqIwAmmKW3OQGF2mMYLvQVr)"><path d=" M 57.381 287.754 C 57.471 289.504 54.372 291.304 51.671 291.623 L 51.661 291.623 L 51.421 291.163 L 51.721 290.653 L 51.731 290.653 C 56.821 288.544 56.471 286.203 56.471 286.203 C 56.471 286.203 56.812 286.123 57.071 286.523 C 57.221 286.743 57.352 287.123 57.381 287.754 Z " fill="rgb(45,47,59)"/></g><clipPath id="_clipPath_uMKYjRajRleCVwmDzBpGtBrp0imJE3uj"><path d=" M 0 0 L 0 500 L 500 500 L 500 0 L 0 0 Z " fill="rgb(255,255,255)"/></clipPath><g clip-path="url(#_clipPath_uMKYjRajRleCVwmDzBpGtBrp0imJE3uj)"><path d=" M 56.471 286.203 C 56.471 286.203 56.821 288.544 51.731 290.653 L 51.721 290.653 L 56.011 283.334 L 56.471 286.203 Z " fill="rgb(45,47,59)"/></g><clipPath id="_clipPath_3dpmndiaHimkyRUMqXQNlsKICglHZK54"><path d=" M 0 0 L 0 500 L 500 500 L 500 0 L 0 0 Z " fill="rgb(255,255,255)"/></clipPath><g clip-path="url(#_clipPath_3dpmndiaHimkyRUMqXQNlsKICglHZK54)"><path d=" M 54.511 281.163 C 56.091 281.123 56.011 283.334 56.011 283.334 L 51.721 290.653 L 51.421 291.163 C 46.761 292.584 47.171 289.584 47.171 289.584 L 51.511 282.834 C 51.511 282.834 52.921 281.203 54.511 281.163 Z " fill="rgb(36,37,43)"/></g><clipPath id="_clipPath_9bn9JddRf3YVBXpkXXvZufjCqoWH00nH"><path d=" M 0 0 L 0 500 L 500 500 L 500 0 L 0 0 Z " fill="rgb(255,255,255)"/></clipPath><g clip-path="url(#_clipPath_9bn9JddRf3YVBXpkXXvZufjCqoWH00nH)"><path d=" M 52.091 292.434 L 54.261 296.563 L 52.221 298.834 L 49.441 301.934 L 41.792 310.453 L 37.341 315.413 L 31.671 314.913 L 42.971 292.623 L 47.171 289.584 C 47.171 289.584 46.761 292.584 51.421 291.163 L 51.661 291.623 L 52.082 292.424 L 52.091 292.434 Z " fill="rgb(38,39,51)"/></g><path d=" M 0 0 L 0 500 L 500 500 L 500 0 L 0 0 Z " fill="none"/><path d=" M 0 0 L 0 500 L 500 500 L 500 0 L 0 0 Z " fill="none"/><path d=" M 0 0 L 0 500 L 500 500 L 500 0 L 0 0 Z " fill="none"/><path d=" M 0 0 L 0 500 L 500 500 L 500 0 L 0 0 Z " fill="none"/><path d=" M 0 0 L 0 500 L 500 500 L 500 0 L 0 0 Z " fill="none"/><path d=" M 0 0 L 0 500 L 500 500 L 500 0 L 0 0 Z " fill="none"/><path d=" M 0 0 L 0 500 L 500 500 L 500 0 L 0 0 Z " fill="none"/><path d=" M 0 0 L 0 500 L 500 500 L 500 0 L 0 0 Z " fill="none"/><path d=" M 0 0 L 0 500 L 500 500 L 500 0 L 0 0 Z " fill="none"/><path d=" M 0 0 L 0 500 L 500 500 L 500 0 L 0 0 Z " fill="none"/><path d=" M 0 0 L 0 500 L 500 500 L 500 0 L 0 0 Z " fill="none"/><path d=" M 0 0 L 0 500 L 500 500 L 500 0 L 0 0 Z " fill="none"/><path d=" M 0 0 L 0 500 L 500 500 L 500 0 L 0 0 Z " fill="none"/><path d=" M 0 0 L 0 500 L 500 500 L 500 0 L 0 0 Z " fill="none"/><path d=" M 0 0 L 0 500 L 500 500 L 500 0 L 0 0 Z " fill="none"/><path d=" M 0 0 L 0 500 L 500 500 L 500 0 L 0 0 Z " fill="none"/><path d=" M 0 0 L 0 500 L 500 500 L 500 0 L 0 0 Z " fill="none"/><path d=" M 0 0 L 0 500 L 500 500 L 500 0 L 0 0 Z " fill="none"/><path d=" M 0 0 L 0 500 L 500 500 L 500 0 L 0 0 Z " fill="none"/><path d=" M 0 0 L 0 500 L 500 500 L 500 0 L 0 0 Z " fill="none"/><path d=" M 0 0 L 0 500 L 500 500 L 500 0 L 0 0 Z " fill="none"/><path d=" M 0 0 L 0 500 L 500 500 L 500 0 L 0 0 Z " fill="none"/><path d=" M 0 0 L 0 500 L 500 500 L 500 0 L 0 0 Z " fill="none"/><clipPath id="_clipPath_0msBVJkG0L9GislBHK1eua9GfJAs08zk"><path d=" M 0 0 L 0 500 L 500 500 L 500 0 L 0 0 Z " fill="rgb(255,255,255)"/></clipPath><g clip-path="url(#_clipPath_0msBVJkG0L9GislBHK1eua9GfJAs08zk)"><line x1="245.273" y1="471.917" x2="245.272" y2="471.906"/></g><clipPath id="_clipPath_3aevQNXapEZTrWl73LDrddVLQtcbo9dW"><path d=" M 0 0 L 0 500 L 500 500 L 500 0 L 0 0 Z " fill="rgb(255,255,255)"/></clipPath><g clip-path="url(#_clipPath_3aevQNXapEZTrWl73LDrddVLQtcbo9dW)"><path d=" M 245.355 472.435 L 245.356 472.435 C 245.326 472.287 245.301 472.141 245.283 471.996 C 245.301 472.143 245.326 472.289 245.355 472.435 Z " fill="rgb(38,39,51)"/></g><clipPath id="_clipPath_n8jszqnMtYZOgXvWnSRfQ2Y0CCbvrC5t"><path d=" M 0 0 L 0 500 L 500 500 L 500 0 L 0 0 Z " fill="rgb(255,255,255)"/></clipPath><g clip-path="url(#_clipPath_n8jszqnMtYZOgXvWnSRfQ2Y0CCbvrC5t)"><line x1="245.892" y1="473.938" x2="245.881" y2="473.918"/></g><clipPath id="_clipPath_gYkqRozI2KEGd47KJ1ccHC0cc3tMced0"><path d=" M 0 0 L 0 500 L 500 500 L 500 0 L 0 0 Z " fill="rgb(255,255,255)"/></clipPath><g clip-path="url(#_clipPath_gYkqRozI2KEGd47KJ1ccHC0cc3tMced0)"><line x1="245.84" y1="473.839" x2="245.799" y2="473.755"/></g><clipPath id="_clipPath_KHMfqtWDSYeGzBG5aD5yDJkjsDq9mBHl"><path d=" M 0 0 L 0 500 L 500 500 L 500 0 L 0 0 Z " fill="rgb(255,255,255)"/></clipPath><g clip-path="url(#_clipPath_KHMfqtWDSYeGzBG5aD5yDJkjsDq9mBHl)"><path d=" M 245.506 473.015 C 245.585 473.265 245.681 473.507 245.791 473.738 C 245.678 473.502 245.585 473.259 245.507 473.015 L 245.506 473.015 Z " fill="rgb(38,39,51)"/></g><path d=" M 0 0 L 0 500 L 500 500 L 500 0 L 0 0 Z " fill="none"/><path d=" M 0 0 L 0 500 L 500 500 L 500 0 L 0 0 Z " fill="none"/><path d=" M 0 0 L 0 500 L 500 500 L 500 0 L 0 0 Z " fill="none"/><path d=" M 0 0 L 0 500 L 500 500 L 500 0 L 0 0 Z " fill="none"/><path d=" M 0 0 L 0 500 L 500 500 L 500 0 L 0 0 Z " fill="none"/></g></g></svg>