<?xml version="1.0" standalone="no"?><!-- Generator: Gravit.io --><svg xmlns="http://www.w3.org/2000/svg" xmlns:xlink="http://www.w3.org/1999/xlink" style="isolation:isolate" viewBox="0 0 500 500" width="500" height="500"><defs><clipPath id="_clipPath_2NmuugbfV20j9YWd1SnlrJZotyDFPH88"><rect width="500" height="500"/></clipPath></defs><g clip-path="url(#_clipPath_2NmuugbfV20j9YWd1SnlrJZotyDFPH88)"><clipPath id="_clipPath_9P5cjx0ujEWanQPwr12cjQPrul8DdCMw"><rect x="-59.6" y="-10" width="682" height="500" transform="matrix(1,0,0,1,0,0)" fill="rgb(255,255,255)"/></clipPath><g clip-path="url(#_clipPath_9P5cjx0ujEWanQPwr12cjQPrul8DdCMw)"><path d=" M -71.876 63 L -71.876 551.2 L 610.124 551.2 L 610.124 63 L -71.876 63 Z " fill="none"/><path d=" M -71.876 63 L -71.876 551.2 L 610.124 551.2 L 610.124 63 L -71.876 63 Z " fill="none"/><path d=" M -71.876 63 L -71.876 551.2 L 610.124 551.2 L 610.124 63 L -71.876 63 Z " fill="none"/><path d=" M -71.876 63 L -71.876 551.2 L 610.124 551.2 L 610.124 63 L -71.876 63 Z " fill="none"/><g><linearGradient id="_lgradient_22" x1="0.0003345895114992281" y1="0.49792584356156144" x2="0.9996830204627902" y2="0.49965162104192684" gradientTransform="matrix(78.505,0,0,22.831,100.673,12.513)" gradientUnits="userSpaceOnUse"><stop offset="0%" stop-opacity="1" style="stop-color:rgb(41,41,41)"/><stop offset="9.582228571428573%" stop-opacity="1" style="stop-color:rgb(43,43,44)"/><stop offset="19.96297619047619%" stop-opacity="1" style="stop-color:rgb(44,47,54)"/><stop offset="25.552609523809522%" stop-opacity="1" style="stop-color:rgb(42,49,61)"/><stop offset="31.940761904761906%" stop-opacity="1" style="stop-color:rgb(42,52,70)"/><stop offset="38.32891428571429%" stop-opacity="1" style="stop-color:rgb(44,56,80)"/><stop offset="49.508180952380954%" stop-opacity="1" style="stop-color:rgb(49,66,99)"/><stop offset="50.306700000000006%" stop-opacity="1" style="stop-color:rgb(49,66,100)"/><stop offset="60.56087301587302%" stop-opacity="1" style="stop-color:rgb(44,80,118)"/><stop offset="72.39261111111112%" stop-opacity="1" style="stop-color:rgb(40,99,139)"/><stop offset="86.59069682539682%" stop-opacity="1" style="stop-color:rgb(43,122,163)"/><stop offset="100%" stop-opacity="1" style="stop-color:rgb(45,143,183)"/></linearGradient><path d=" M 146.828 35.345 L 100.673 35.287 L 133.022 12.513 L 179.178 12.571 L 146.828 35.345 Z " fill="url(#_lgradient_22)"/></g><path d=" M -71.876 63 L -71.876 551.2 L 610.124 551.2 L 610.124 63 L -71.876 63 Z " fill="none"/><g><linearGradient id="_lgradient_23" x1="0.0003455823061848662" y1="0.4979485266691537" x2="0.9996544176938134" y2="0.4996764382000826" gradientTransform="matrix(36.004,0,0,10.471,101.758,3.634)" gradientUnits="userSpaceOnUse"><stop offset="0%" stop-opacity="1" style="stop-color:rgb(63,121,152)"/><stop offset="14.373342857142857%" stop-opacity="1" style="stop-color:rgb(73,140,174)"/><stop offset="49.508180952380954%" stop-opacity="1" style="stop-color:rgb(104,187,228)"/><stop offset="50.306700000000006%" stop-opacity="1" style="stop-color:rgb(104,188,228)"/><stop offset="78.70287142857143%" stop-opacity="1" style="stop-color:rgb(117,203,242)"/><stop offset="100%" stop-opacity="1" style="stop-color:rgb(131,212,246)"/></linearGradient><path d=" M 122.927 14.105 L 101.758 14.08 L 116.595 3.634 L 137.762 3.66 L 122.927 14.105 Z " fill="url(#_lgradient_23)"/></g><path d=" M -71.876 63 L -71.876 551.2 L 610.124 551.2 L 610.124 63 L -71.876 63 Z " fill="none"/><g><linearGradient id="_lgradient_24" x1="0.00034556903701421504" y1="0.49785527788138495" x2="0.9996160344033171" y2="0.4995831230664557" gradientTransform="matrix(36.005,0,0,10.471,4.852,16.477)" gradientUnits="userSpaceOnUse"><stop offset="0%" stop-opacity="1" style="stop-color:rgb(178,179,180)"/><stop offset="49.508180952380954%" stop-opacity="1" style="stop-color:rgb(202,202,202)"/><stop offset="50.306700000000006%" stop-opacity="1" style="stop-color:rgb(202,202,202)"/><stop offset="100%" stop-opacity="1" style="stop-color:rgb(217,218,219)"/></linearGradient><path d=" M 26.018 26.948 L 4.852 26.922 L 19.689 16.477 L 40.857 16.502 L 26.018 26.948 Z " fill="url(#_lgradient_24)"/></g><path d=" M -71.876 63 L -71.876 551.2 L 610.124 551.2 L 610.124 63 L -71.876 63 Z " fill="none"/><g><linearGradient id="_lgradient_25" x1="-0.0036810931180224493" y1="0.5205911192043713" x2="1.003650796055322" y2="0.502746149274206" gradientTransform="matrix(91.262,0,0,27.882,0.052,35.179)" gradientUnits="userSpaceOnUse"><stop offset="0%" stop-opacity="1" style="stop-color:rgb(48,51,83)"/><stop offset="24.754090476190477%" stop-opacity="1" style="stop-color:rgb(49,64,98)"/><stop offset="49.508180952380954%" stop-opacity="1" style="stop-color:rgb(41,81,114)"/><stop offset="50.306700000000006%" stop-opacity="1" style="stop-color:rgb(41,81,114)"/><stop offset="63.71600317460317%" stop-opacity="1" style="stop-color:rgb(42,98,133)"/><stop offset="77.12530634920635%" stop-opacity="1" style="stop-color:rgb(43,114,152)"/><stop offset="100%" stop-opacity="1" style="stop-color:rgb(45,143,183)"/></linearGradient><path d=" M 54.136 63.061 L 0.052 63.061 L 37.224 35.179 L 91.314 35.179 L 54.136 63.061 Z " fill="url(#_lgradient_25)"/></g><path d=" M -71.876 63 L -71.876 551.2 L 610.124 551.2 L 610.124 63 L -71.876 63 Z " fill="none"/><g><linearGradient id="_lgradient_26" x1="0.8535447422652251" y1="0.1464418838955024" x2="0.14644188400766145" y2="0.8535447421530659" gradientTransform="matrix(90.45,0,0,63.882,35.199,2.136)" gradientUnits="userSpaceOnUse"><stop offset="0%" stop-opacity="1" style="stop-color:rgb(63,121,152)"/><stop offset="14.373342857142857%" stop-opacity="1" style="stop-color:rgb(73,140,174)"/><stop offset="49.508180952380954%" stop-opacity="1" style="stop-color:rgb(104,187,228)"/><stop offset="50.306700000000006%" stop-opacity="1" style="stop-color:rgb(104,188,228)"/><stop offset="78.70287142857143%" stop-opacity="1" style="stop-color:rgb(117,203,242)"/><stop offset="100%" stop-opacity="1" style="stop-color:rgb(131,212,246)"/></linearGradient><path d=" M 48.885 11.806 C 66.3 -0.493 94.539 -0.492 111.95 11.807 C 129.365 24.106 129.369 44.047 111.95 56.347 C 94.539 68.645 66.3 68.645 48.881 56.345 C 31.467 44.046 31.467 24.106 48.885 11.806 Z  M 112.402 56.661 C 130.064 44.189 130.064 23.965 112.402 11.492 C 94.741 -0.982 66.107 -0.982 48.443 11.491 C 30.784 23.965 30.783 44.191 48.443 56.663 C 66.104 69.137 94.741 69.137 112.402 56.661 Z " fill-rule="evenodd" fill="url(#_lgradient_26)"/></g><path d=" M -71.876 63 L -71.876 551.2 L 610.124 551.2 L 610.124 63 L -71.876 63 Z " fill="none"/><g><linearGradient id="_lgradient_27" x1="0" y1="0.4999909999099992" x2="1" y2="0.4999909999099992" gradientTransform="matrix(76.805,0,0,54.244,42.017,6.955)" gradientUnits="userSpaceOnUse"><stop offset="0%" stop-opacity="1" style="stop-color:rgb(63,121,152)"/><stop offset="14.373342857142857%" stop-opacity="1" style="stop-color:rgb(73,140,174)"/><stop offset="49.508180952380954%" stop-opacity="1" style="stop-color:rgb(104,187,228)"/><stop offset="50.306700000000006%" stop-opacity="1" style="stop-color:rgb(104,188,228)"/><stop offset="78.70287142857143%" stop-opacity="1" style="stop-color:rgb(117,203,242)"/><stop offset="100%" stop-opacity="1" style="stop-color:rgb(131,212,246)"/></linearGradient><path d=" M 118.822 34.077 C 118.822 49.055 101.63 61.199 80.418 61.199 C 59.212 61.199 42.017 49.055 42.017 34.077 C 42.017 19.098 59.212 6.955 80.418 6.955 C 101.63 6.956 118.822 19.098 118.822 34.077 Z " fill="url(#_lgradient_27)"/></g><path d=" M -71.876 63 L -71.876 551.2 L 610.124 551.2 L 610.124 63 L -71.876 63 Z " fill="none"/><path d=" M -71.876 63 L -71.876 551.2 L 610.124 551.2 L 610.124 63 L -71.876 63 Z " fill="none"/><g><path d=" M 78.921 311.874 L 78.921 310.55 L 73.712 310.55 L 73.712 298.824 L 71.681 298.824 L 71.681 311.874 L 78.921 311.874 Z  M 80.301 308.723 C 80.301 310.699 81.682 312.004 84.468 312.004 C 87.281 312.004 88.661 310.699 88.661 308.723 L 88.661 301.974 C 88.661 299.979 87.281 298.693 84.468 298.693 C 81.682 298.693 80.301 299.979 80.301 301.974 L 80.301 308.723 Z  M 82.306 301.9 C 82.306 300.725 83.009 300.017 84.468 300.017 C 85.952 300.017 86.629 300.725 86.629 301.9 L 86.629 308.798 C 86.629 309.991 85.952 310.68 84.468 310.68 C 83.009 310.68 82.306 309.991 82.306 308.798 L 82.306 301.9 Z  M 94.52 298.693 C 91.733 298.693 90.432 299.998 90.432 301.974 L 90.432 308.723 C 90.432 310.699 91.733 312.004 94.52 312.004 C 97.332 312.004 98.635 310.699 98.635 308.723 L 98.635 304.883 L 94.832 304.883 L 94.832 306.187 L 96.708 306.187 L 96.708 308.798 C 96.708 309.972 96.057 310.68 94.572 310.68 C 93.113 310.68 92.437 309.972 92.437 308.798 L 92.437 301.9 C 92.437 300.725 93.113 300.017 94.572 300.017 C 96.057 300.017 96.708 300.725 96.708 301.9 L 96.708 303.093 L 98.635 303.093 L 98.635 301.974 C 98.635 299.998 97.332 298.693 94.52 298.693 Z  M 100.405 308.723 C 100.405 310.699 101.786 312.004 104.572 312.004 C 107.386 312.004 108.767 310.699 108.767 308.723 L 108.767 301.974 C 108.767 299.979 107.386 298.693 104.572 298.693 C 101.786 298.693 100.405 299.979 100.405 301.974 L 100.405 308.723 Z  M 102.412 301.9 C 102.412 300.725 103.114 300.017 104.572 300.017 C 106.058 300.017 106.734 300.725 106.734 301.9 L 106.734 308.798 C 106.734 309.991 106.058 310.68 104.572 310.68 C 103.114 310.68 102.412 309.991 102.412 308.798 L 102.412 301.9 Z " fill="rgb(254,254,254)"/></g><path d=" M -71.876 63 L -71.876 551.2 L 610.124 551.2 L 610.124 63 L -71.876 63 Z " fill="none"/><path d=" M -71.876 63 L -71.876 551.2 L 610.124 551.2 L 610.124 63 L -71.876 63 Z " fill="none"/><path d=" M -71.876 63 L -71.876 551.2 L 610.124 551.2 L 610.124 63 L -71.876 63 Z " fill="none"/><path d=" M -71.876 63 L -71.876 551.2 L 610.124 551.2 L 610.124 63 L -71.876 63 Z " fill="none"/><path d=" M -71.876 63 L -71.876 551.2 L 610.124 551.2 L 610.124 63 L -71.876 63 Z " fill="none"/><path d=" M -71.876 63 L -71.876 551.2 L 610.124 551.2 L 610.124 63 L -71.876 63 Z " fill="none"/><path d=" M -71.876 63 L -71.876 551.2 L 610.124 551.2 L 610.124 63 L -71.876 63 Z " fill="none"/><path d=" M -71.876 63 L -71.876 551.2 L 610.124 551.2 L 610.124 63 L -71.876 63 Z " fill="none"/><path d=" M -71.876 63 L -71.876 551.2 L 610.124 551.2 L 610.124 63 L -71.876 63 Z " fill="none"/><g><path d=" M 78.921 394.813 L 78.921 393.489 L 73.712 393.489 L 73.712 381.763 L 71.681 381.763 L 71.681 394.813 L 78.921 394.813 Z  M 80.301 391.662 C 80.301 393.638 81.682 394.944 84.468 394.944 C 87.281 394.944 88.661 393.638 88.661 391.662 L 88.661 384.913 C 88.661 382.918 87.281 381.633 84.468 381.633 C 81.682 381.633 80.301 382.918 80.301 384.913 L 80.301 391.662 Z  M 82.306 384.839 C 82.306 383.664 83.009 382.957 84.468 382.957 C 85.952 382.957 86.629 383.664 86.629 384.839 L 86.629 391.737 C 86.629 392.93 85.952 393.62 84.468 393.62 C 83.009 393.62 82.306 392.93 82.306 391.737 L 82.306 384.839 Z  M 94.52 381.633 C 91.733 381.633 90.432 382.937 90.432 384.913 L 90.432 391.662 C 90.432 393.638 91.733 394.944 94.52 394.944 C 97.332 394.944 98.635 393.638 98.635 391.662 L 98.635 387.822 L 94.832 387.822 L 94.832 389.126 L 96.708 389.126 L 96.708 391.737 C 96.708 392.911 96.057 393.62 94.572 393.62 C 93.113 393.62 92.437 392.911 92.437 391.737 L 92.437 384.839 C 92.437 383.664 93.113 382.957 94.572 382.957 C 96.057 382.957 96.708 383.664 96.708 384.839 L 96.708 386.032 L 98.635 386.032 L 98.635 384.913 C 98.635 382.937 97.332 381.633 94.52 381.633 Z  M 100.405 391.662 C 100.405 393.638 101.786 394.944 104.572 394.944 C 107.386 394.944 108.767 393.638 108.767 391.662 L 108.767 384.913 C 108.767 382.918 107.386 381.633 104.572 381.633 C 101.786 381.633 100.405 382.918 100.405 384.913 L 100.405 391.662 Z  M 102.412 384.839 C 102.412 383.664 103.114 382.957 104.572 382.957 C 106.058 382.957 106.734 383.664 106.734 384.839 L 106.734 391.737 C 106.734 392.93 106.058 393.62 104.572 393.62 C 103.114 393.62 102.412 392.93 102.412 391.737 L 102.412 384.839 Z " fill="rgb(254,254,254)"/></g><path d=" M -71.876 63 L -71.876 551.2 L 610.124 551.2 L 610.124 63 L -71.876 63 Z " fill="none"/><path d=" M -71.876 63 L -71.876 551.2 L 610.124 551.2 L 610.124 63 L -71.876 63 Z " fill="none"/><path d=" M -71.876 63 L -71.876 551.2 L 610.124 551.2 L 610.124 63 L -71.876 63 Z " fill="none"/><path d=" M -71.876 63 L -71.876 551.2 L 610.124 551.2 L 610.124 63 L -71.876 63 Z " fill="none"/><path d=" M -71.876 63 L -71.876 551.2 L 610.124 551.2 L 610.124 63 L -71.876 63 Z " fill="none"/><path d=" M -71.876 63 L -71.876 551.2 L 610.124 551.2 L 610.124 63 L -71.876 63 Z " fill="none"/><path d=" M -71.876 63 L -71.876 551.2 L 610.124 551.2 L 610.124 63 L -71.876 63 Z " fill="none"/><path d=" M -71.876 63 L -71.876 551.2 L 610.124 551.2 L 610.124 63 L -71.876 63 Z " fill="none"/><path d=" M -71.876 63 L -71.876 551.2 L 610.124 551.2 L 610.124 63 L -71.876 63 Z " fill="none"/><path d=" M -71.876 63 L -71.876 551.2 L 610.124 551.2 L 610.124 63 L -71.876 63 Z " fill="none"/><path d=" M -71.876 63 L -71.876 551.2 L 610.124 551.2 L 610.124 63 L -71.876 63 Z " fill="none"/><path d=" M -71.876 63 L -71.876 551.2 L 610.124 551.2 L 610.124 63 L -71.876 63 Z " fill="none"/><path d=" M -71.876 63 L -71.876 551.2 L 610.124 551.2 L 610.124 63 L -71.876 63 Z " fill="none"/><path d=" M -71.876 63 L -71.876 551.2 L 610.124 551.2 L 610.124 63 L -71.876 63 Z " fill="none"/><path d=" M -71.876 63 L -71.876 551.2 L 610.124 551.2 L 610.124 63 L -71.876 63 Z " fill="none"/><path d=" M -71.876 63 L -71.876 551.2 L 610.124 551.2 L 610.124 63 L -71.876 63 Z " fill="none"/><path d=" M -71.876 63 L -71.876 551.2 L 610.124 551.2 L 610.124 63 L -71.876 63 Z " fill="none"/><path d=" M -71.876 63 L -71.876 551.2 L 610.124 551.2 L 610.124 63 L -71.876 63 Z " fill="none"/><path d=" M -71.876 63 L -71.876 551.2 L 610.124 551.2 L 610.124 63 L -71.876 63 Z " fill="none"/><path d=" M -71.876 63 L -71.876 551.2 L 610.124 551.2 L 610.124 63 L -71.876 63 Z " fill="none"/><path d=" M -71.876 63 L -71.876 551.2 L 610.124 551.2 L 610.124 63 L -71.876 63 Z " fill="none"/><path d=" M -71.876 63 L -71.876 551.2 L 610.124 551.2 L 610.124 63 L -71.876 63 Z " fill="none"/><path d=" M -71.876 63 L -71.876 551.2 L 610.124 551.2 L 610.124 63 L -71.876 63 Z " fill="none"/><path d=" M -71.876 63 L -71.876 551.2 L 610.124 551.2 L 610.124 63 L -71.876 63 Z " fill="none"/><g><line x1="262.675" y1="524.747" x2="262.674" y2="524.737"/></g><path d=" M -71.876 63 L -71.876 551.2 L 610.124 551.2 L 610.124 63 L -71.876 63 Z " fill="none"/><g><path d=" M 262.787 525.253 L 262.788 525.253 C 262.746 525.109 262.713 524.966 262.687 524.825 C 262.713 524.967 262.746 525.111 262.787 525.253 Z " fill="rgb(85,85,85)"/></g><path d=" M -71.876 63 L -71.876 551.2 L 610.124 551.2 L 610.124 63 L -71.876 63 Z " fill="none"/><g><line x1="263.518" y1="526.722" x2="263.503" y2="526.701"/></g><path d=" M -71.876 63 L -71.876 551.2 L 610.124 551.2 L 610.124 63 L -71.876 63 Z " fill="none"/><g><line x1="263.448" y1="526.624" x2="263.392" y2="526.542"/></g><path d=" M -71.876 63 L -71.876 551.2 L 610.124 551.2 L 610.124 63 L -71.876 63 Z " fill="none"/><g><path d=" M 262.991 525.819 C 263.099 526.064 263.23 526.3 263.382 526.525 C 263.227 526.295 263.099 526.058 262.996 525.819 L 262.991 525.819 Z " fill="rgb(85,85,85)"/></g></g></g></svg>