<?xml version="1.0" standalone="no"?><!-- Generator: Gravit.io --><svg xmlns="http://www.w3.org/2000/svg" xmlns:xlink="http://www.w3.org/1999/xlink" style="isolation:isolate" viewBox="0 0 959.998 114.732" width="959.998" height="114.732"><defs><clipPath id="_clipPath_zqO1FscBC2T4ckxrzhB0yXxfVoaaNYTw"><rect width="959.998" height="114.732"/></clipPath></defs><g clip-path="url(#_clipPath_zqO1FscBC2T4ckxrzhB0yXxfVoaaNYTw)"><g filter="url(#3KvPnnHE7MQF9uD311ik7H13YgkwawD1)"><clipPath id="_clipPath_s0tvUyH9ZFJSibzyVYjQdjRTFev2lpHO"><rect x="0" y="20.524" width="959.998" height="94.192" transform="matrix(1,0,0,1,0,0)" fill="rgb(255,255,255)"/></clipPath><g clip-path="url(#_clipPath_s0tvUyH9ZFJSibzyVYjQdjRTFev2lpHO)"><g><path d="M 0 0.001 L 7.201 0.001 L 7.201 7.202 L 0 7.202 L 0 0.001 Z" style="stroke:none;fill:#F0F0F0;stroke-miterlimit:10;"/></g></g><defs><filter id="FVlp5dRb4RQXLRqRFH8nxv8ILqKNpTPu" x="-200%" y="-200%" width="400%" height="400%" filterUnits="objectBoundingBox" color-interpolation-filters="sRGB"><feGaussianBlur xmlns="http://www.w3.org/2000/svg" in="SourceGraphic" stdDeviation="8.587218125678056"/><feOffset xmlns="http://www.w3.org/2000/svg" dx="0" dy="0" result="pf_100_offsetBlur"/><feFlood xmlns="http://www.w3.org/2000/svg" flood-color="#000000" flood-opacity="0.8"/><feComposite xmlns="http://www.w3.org/2000/svg" in2="pf_100_offsetBlur" operator="in" result="pf_100_dropShadow"/><feBlend xmlns="http://www.w3.org/2000/svg" in="SourceGraphic" in2="pf_100_dropShadow" mode="normal"/></filter></defs><g filter="url(#FVlp5dRb4RQXLRqRFH8nxv8ILqKNpTPu)"><linearGradient id="_lgradient_4" x1="0" y1="0.1325159160575336" x2="1.0009001575275673" y2="0.1325159160575336" gradientTransform="matrix(959.998,0,0,80.942,0,0.001)" gradientUnits="userSpaceOnUse"><stop offset="0.8695652173913043%" stop-opacity="1" style="stop-color:rgb(13,80,2)"/><stop offset="50.8695652173913%" stop-opacity="1" style="stop-color:rgb(198,230,226)"/><stop offset="99.56521739130434%" stop-opacity="1" style="stop-color:rgb(13,80,2)"/><stop offset="100%" stop-opacity="1" style="stop-color:rgb(124,191,182)"/></linearGradient><path d=" M 305.405 54.442 L 357.47 80.943 L 616.786 80.943 L 668.851 54.442 L 959.998 54.442 L 959.998 0.001 L 0 0.001 L 0 54.442 L 305.405 54.442 Z " fill="url(#_lgradient_4)"/></g><linearGradient id="_lgradient_5" x1="0" y1="0.057101865136298446" x2="1.0009001575275673" y2="0.057101865136298446" gradientTransform="matrix(959.998,0,0,28.589,0,54.442)" gradientUnits="userSpaceOnUse"><stop offset="0%" stop-opacity="1" style="stop-color:rgb(98,98,98)"/><stop offset="25.098%" stop-opacity="1" style="stop-color:rgb(225,225,225)"/><stop offset="47.0588%" stop-opacity="1" style="stop-color:rgb(124,124,125)"/><stop offset="65.098%" stop-opacity="1" style="stop-color:rgb(245,246,246)"/><stop offset="83.9216%" stop-opacity="1" style="stop-color:rgb(148,149,149)"/><stop offset="100%" stop-opacity="1" style="stop-color:rgb(98,98,98)"/></linearGradient><path d=" M 4.177 56.53 L 305.405 56.53 L 357.47 83.031 L 616.786 83.031 L 668.851 56.53 L 956.757 56.53 L 959.998 54.946 L 959.998 54.442 L 668.851 54.442 L 616.786 80.943 L 357.47 80.943 L 305.405 54.442 L 0 54.442 L 4.177 56.53 Z " fill="url(#_lgradient_5)"/><linearGradient id="_lgradient_6" x1="0" y1="0.05721324938406788" x2="1.0009001575275673" y2="0.05721324938406788" gradientTransform="matrix(959.998,0,0,30.029,0,42.344)" gradientUnits="userSpaceOnUse"><stop offset="1.7391304347826086%" stop-opacity="1" style="stop-color:rgb(198,230,226)"/><stop offset="46.95652173913044%" stop-opacity="1" style="stop-color:rgb(13,80,2)"/><stop offset="100%" stop-opacity="1" style="stop-color:rgb(198,230,226)"/></linearGradient><path d=" M 0 45.872 L 305.405 45.872 L 357.47 72.373 L 616.786 72.373 L 632.647 64.3 L 668.851 45.872 L 959.998 45.872 L 959.998 42.344 L 668.851 42.344 L 616.786 68.844 L 357.47 68.844 L 305.405 42.344 L 0 42.344 L 0 45.872 Z " fill="url(#_lgradient_6)"/><linearGradient id="_lgradient_7" x1="0" y1="0.022068965517241385" x2="1.0009001575275673" y2="0.022068965517241385" gradientTransform="matrix(959.998,0,0,27.581,0,42.344)" gradientUnits="userSpaceOnUse"><stop offset="2.1739130434782608%" stop-opacity="1" style="stop-color:rgb(198,230,226)"/><stop offset="50.43478260869565%" stop-opacity="1" style="stop-color:rgb(13,80,2)"/><stop offset="98.26086956521739%" stop-opacity="1" style="stop-color:rgb(198,230,226)"/></linearGradient><mask id="_mask_iQSumY0I7pz378R3ODsxI98AeawHDPyp" x="-200%" y="-200%" width="400%" height="400%"><rect x="-200%" y="-200%" width="400%" height="400%" style="fill:white;"/><path d=" M 668.851 42.344 L 616.786 68.844 L 596.8 68.844 L 357.47 68.844 L 305.405 42.344 L 94.8 42.344 L 0 42.344 L 0 43.424 L 305.405 43.424 L 357.47 69.925 L 616.786 69.925 L 668.851 43.424 L 708.8 43.424 L 745.8 43.424 L 959.998 43.424 L 959.998 42.344 L 668.851 42.344 Z " fill="black" stroke="none"/></mask><path d=" M 668.851 42.344 L 616.786 68.844 L 596.8 68.844 L 357.47 68.844 L 305.405 42.344 L 94.8 42.344 L 0 42.344 L 0 43.424 L 305.405 43.424 L 357.47 69.925 L 616.786 69.925 L 668.851 43.424 L 708.8 43.424 L 745.8 43.424 L 959.998 43.424 L 959.998 42.344 L 668.851 42.344 Z " fill="url(#_lgradient_7)" mask="url(#_mask_iQSumY0I7pz378R3ODsxI98AeawHDPyp)" vector-effect="non-scaling-stroke" stroke-width="0.144" stroke="none" stroke-linejoin="miter" stroke-linecap="butt" stroke-miterlimit="4"/></g><defs><filter id="3KvPnnHE7MQF9uD311ik7H13YgkwawD1" x="-200%" y="-200%" width="400%" height="400%" filterUnits="objectBoundingBox" color-interpolation-filters="sRGB"><feGaussianBlur xmlns="http://www.w3.org/2000/svg" in="SourceGraphic" stdDeviation="8.587218125678056"/><feOffset xmlns="http://www.w3.org/2000/svg" dx="0" dy="0" result="pf_100_offsetBlur"/><feFlood xmlns="http://www.w3.org/2000/svg" flood-color="#106710" flood-opacity="1"/><feComposite xmlns="http://www.w3.org/2000/svg" in2="pf_100_offsetBlur" operator="in" result="pf_100_dropShadow"/><feBlend xmlns="http://www.w3.org/2000/svg" in="SourceGraphic" in2="pf_100_dropShadow" mode="normal"/></filter></defs></g></svg>