<?xml version="1.0" standalone="no"?><!-- Generator: Gravit.io --><svg xmlns="http://www.w3.org/2000/svg" xmlns:xlink="http://www.w3.org/1999/xlink" style="isolation:isolate" viewBox="0 0 959.998 114.732" width="959.998" height="114.732"><defs><clipPath id="_clipPath_62f8Ev0m0jX31TZs9zyy7s6yN5lTfdIA"><rect width="959.998" height="114.732"/></clipPath></defs><g clip-path="url(#_clipPath_62f8Ev0m0jX31TZs9zyy7s6yN5lTfdIA)"><g filter="url(#fmiKLfFi96AJoPfpW3IjAT5wh9lYjC70)"><clipPath id="_clipPath_Zu26GiTS6Je0rBN9lcA5SNZaNvHmNeBy"><rect x="0" y="20.524" width="959.998" height="94.192" transform="matrix(1,0,0,1,0,0)" fill="rgb(255,255,255)"/></clipPath><g clip-path="url(#_clipPath_Zu26GiTS6Je0rBN9lcA5SNZaNvHmNeBy)"><g><path d="M 0 0.001 L 7.201 0.001 L 7.201 7.202 L 0 7.202 L 0 0.001 Z" style="stroke:none;fill:#F0F0F0;stroke-miterlimit:10;"/></g></g><defs><filter id="g3u8pgLfDYbXou81qlmCA7tljB1IZ9i1" x="-200%" y="-200%" width="400%" height="400%" filterUnits="objectBoundingBox" color-interpolation-filters="sRGB"><feGaussianBlur xmlns="http://www.w3.org/2000/svg" in="SourceGraphic" stdDeviation="2.146804531419514"/><feOffset xmlns="http://www.w3.org/2000/svg" dx="0" dy="0" result="pf_100_offsetBlur"/><feFlood xmlns="http://www.w3.org/2000/svg" flood-color="#00FF00" flood-opacity="0.65"/><feComposite xmlns="http://www.w3.org/2000/svg" in2="pf_100_offsetBlur" operator="in" result="pf_100_dropShadow"/><feBlend xmlns="http://www.w3.org/2000/svg" in="SourceGraphic" in2="pf_100_dropShadow" mode="normal"/></filter></defs><g filter="url(#g3u8pgLfDYbXou81qlmCA7tljB1IZ9i1)"><linearGradient id="_lgradient_0" x1="0" y1="0.1325159160575336" x2="1.0009001575275673" y2="0.1325159160575336" gradientTransform="matrix(959.998,0,0,80.942,0,0.001)" gradientUnits="userSpaceOnUse"><stop offset="0.8695652173913043%" stop-opacity="1" style="stop-color:rgb(124,191,182)"/><stop offset="52.17391304347826%" stop-opacity="1" style="stop-color:rgb(198,230,226)"/><stop offset="100%" stop-opacity="1" style="stop-color:rgb(124,191,182)"/></linearGradient><path d=" M 305.405 54.442 L 357.47 80.943 L 616.786 80.943 L 668.851 54.442 L 959.998 54.442 L 959.998 0.001 L 0 0.001 L 0 54.442 L 305.405 54.442 Z " fill="url(#_lgradient_0)"/></g><linearGradient id="_lgradient_1" x1="0" y1="0.057101865136298446" x2="1.0009001575275673" y2="0.057101865136298446" gradientTransform="matrix(959.998,0,0,28.589,0,54.442)" gradientUnits="userSpaceOnUse"><stop offset="0%" stop-opacity="1" style="stop-color:rgb(98,98,98)"/><stop offset="25.098%" stop-opacity="1" style="stop-color:rgb(225,225,225)"/><stop offset="47.0588%" stop-opacity="1" style="stop-color:rgb(124,124,125)"/><stop offset="65.098%" stop-opacity="1" style="stop-color:rgb(245,246,246)"/><stop offset="83.9216%" stop-opacity="1" style="stop-color:rgb(148,149,149)"/><stop offset="100%" stop-opacity="1" style="stop-color:rgb(98,98,98)"/></linearGradient><path d=" M 4.177 56.53 L 305.405 56.53 L 357.47 83.031 L 616.786 83.031 L 668.851 56.53 L 956.757 56.53 L 959.998 54.946 L 959.998 54.442 L 668.851 54.442 L 616.786 80.943 L 357.47 80.943 L 305.405 54.442 L 0 54.442 L 4.177 56.53 Z " fill="url(#_lgradient_1)"/><linearGradient id="_lgradient_2" x1="0" y1="0.05721324938406788" x2="1.0009001575275673" y2="0.05721324938406788" gradientTransform="matrix(959.998,0,0,30.029,0,42.344)" gradientUnits="userSpaceOnUse"><stop offset="1.3043478260869565%" stop-opacity="1" style="stop-color:rgb(152,242,197)"/><stop offset="48.26086956521739%" stop-opacity="1" style="stop-color:rgb(92,153,126)"/><stop offset="98.69565217391305%" stop-opacity="1" style="stop-color:rgb(155,242,210)"/></linearGradient><path d=" M 0 45.872 L 305.405 45.872 L 357.47 72.373 L 616.786 72.373 L 668.851 45.872 L 959.998 45.872 L 959.998 42.344 L 668.851 42.344 L 616.786 68.844 L 357.47 68.844 L 305.405 42.344 L 0 42.344 L 0 45.872 Z " fill="url(#_lgradient_2)"/><g><radialGradient id="_rgradient_0" fx="0.4998731826241134" fy="0.26784513469387683" cx="0.4998731826241134" cy="0.26784513469387683" r="1" gradientTransform="matrix(121.845,0,0,3.529,156.915,42.344)" gradientUnits="userSpaceOnUse"><stop offset="0%" stop-opacity="1" style="stop-color:rgb(204,237,255)"/><stop offset="100%" stop-opacity="1" style="stop-color:rgb(0,0,0)"/></radialGradient><path d=" M 156.915 43.28 C 156.915 42.992 158.067 42.632 160.156 42.344 L 275.52 42.344 C 277.608 42.632 278.76 42.92 278.76 43.28 C 278.76 44.432 262.989 45.44 240.666 45.872 L 195.01 45.872 C 172.686 45.44 156.915 44.432 156.915 43.28 Z " fill="url(#_rgradient_0)" fill-opacity="0.8"/><radialGradient id="_rgradient_1" fx="0.49860940350877314" fy="0.5041439808153476" cx="0.49860940350877314" cy="0.5041439808153476" r="1" gradientTransform="matrix(61.571,0,0,30.029,612.25,42.344)" gradientUnits="userSpaceOnUse"><stop offset="0%" stop-opacity="1" style="stop-color:rgb(204,237,255)"/><stop offset="100%" stop-opacity="1" style="stop-color:rgb(0,0,0)"/></radialGradient><path d=" M 612.25 72.373 C 614.194 70.933 616.858 69.205 620.027 67.188 L 668.851 42.344 L 673.82 42.344 C 672.38 43.424 670.508 44.72 668.275 46.089 L 616.786 72.301 L 612.322 72.301 L 612.25 72.373 Z " fill="url(#_rgradient_1)" fill-opacity="0.8"/></g><linearGradient id="_lgradient_3" x1="0" y1="0.022068965517241385" x2="1.0009001575275673" y2="0.022068965517241385" gradientTransform="matrix(959.998,0,0,27.581,0,42.344)" gradientUnits="userSpaceOnUse"><stop offset="40.869565217391305%" stop-opacity="1" style="stop-color:rgb(21,113,46)"/><stop offset="86.08695652173914%" stop-opacity="1" style="stop-color:rgb(21,113,46)"/></linearGradient><mask id="_mask_kTh0CX4qKT3d88ZG23OdQbtcGkucx6kZ" x="-200%" y="-200%" width="400%" height="400%"><rect x="-200%" y="-200%" width="400%" height="400%" style="fill:white;"/><path d=" M 668.851 42.344 L 616.786 68.844 L 596.8 68.844 L 357.47 68.844 L 305.405 42.344 L 0 42.344 L 0 43.424 L 305.405 43.424 L 357.47 69.925 L 616.786 69.925 L 668.851 43.424 L 708.8 43.424 L 745.8 43.424 L 959.998 43.424 L 959.998 42.344 L 668.851 42.344 Z " fill="black" stroke="none"/></mask><path d=" M 668.851 42.344 L 616.786 68.844 L 596.8 68.844 L 357.47 68.844 L 305.405 42.344 L 0 42.344 L 0 43.424 L 305.405 43.424 L 357.47 69.925 L 616.786 69.925 L 668.851 43.424 L 708.8 43.424 L 745.8 43.424 L 959.998 43.424 L 959.998 42.344 L 668.851 42.344 Z " fill="url(#_lgradient_3)" mask="url(#_mask_kTh0CX4qKT3d88ZG23OdQbtcGkucx6kZ)" vector-effect="non-scaling-stroke" stroke-width="0.144" stroke="none" stroke-linejoin="miter" stroke-linecap="butt" stroke-miterlimit="4"/></g><defs><filter id="fmiKLfFi96AJoPfpW3IjAT5wh9lYjC70" x="-200%" y="-200%" width="400%" height="400%" filterUnits="objectBoundingBox" color-interpolation-filters="sRGB"><feGaussianBlur xmlns="http://www.w3.org/2000/svg" in="SourceGraphic" stdDeviation="8.587218125678056"/><feOffset xmlns="http://www.w3.org/2000/svg" dx="0" dy="0" result="pf_100_offsetBlur"/><feFlood xmlns="http://www.w3.org/2000/svg" flood-color="#106710" flood-opacity="1"/><feComposite xmlns="http://www.w3.org/2000/svg" in2="pf_100_offsetBlur" operator="in" result="pf_100_dropShadow"/><feBlend xmlns="http://www.w3.org/2000/svg" in="SourceGraphic" in2="pf_100_dropShadow" mode="normal"/></filter></defs></g></svg>