<?xml version="1.0" encoding="UTF-8"?>
<!DOCTYPE svg PUBLIC "-//W3C//DTD SVG 1.1//EN" "http://www.w3.org/Graphics/SVG/1.1/DTD/svg11.dtd">
<!-- Creator: CorelDRAW 2018 (64-Bit) -->
<svg xmlns="http://www.w3.org/2000/svg" xml:space="preserve" width="4.9157in" height="5.29552in" version="1.1" style="shape-rendering:geometricPrecision; text-rendering:geometricPrecision; image-rendering:optimizeQuality; fill-rule:evenodd; clip-rule:evenodd"
viewBox="0 0 551.19 593.78"
 xmlns:xlink="http://www.w3.org/1999/xlink">
 <defs>
  <style type="text/css">
   <![CDATA[
    .fil0 {fill:white}
    .fil1 {fill:#71BF4F}
   ]]> 
  </style>
 </defs>
 <g id="Layer_x0020_1">
  <metadata id="CorelCorpID_0Corel-Layer"/>
  <g id="_1481842710784">
   <path class="fil0" d="M292.42 153.66l0 0zm0 0l-11.31 8c-4.47,3.25 -16.16,12.91 -20.9,17.77l-13.77 15.16c-9.04,11.05 -14.51,19.93 -21.51,31.99 -0.65,1.11 -1.06,2.03 -1.69,3.11l-3.36 6.51c-15.37,31.82 -24.05,63.09 -27.91,99.05l-1.88 28.04c-0.08,1.54 -0.28,2.61 -0.28,4.57l-0 14.85c-0.01,2 0.27,2.85 0.29,4.56 0.33,27.69 5.06,55.46 11.46,81.81 1.9,7.82 6.51,23.05 9.14,29.96 6.1,16.01 9.78,25.37 17.92,40.56l7.15 12.31c7.21,11.41 9.08,13.07 16.35,22.49l13.09 13.58 6.82 5.51c-0.35,-1.37 -5.8,-9.42 -6.98,-11.62l-6.36 -12.27c-0.38,-0.83 -0.53,-1.37 -0.91,-2.2 -6.63,-14.27 -11.39,-29.14 -15.21,-44.52 -0.43,-1.74 -0.78,-3.2 -1.22,-5.03 -2.98,-12.4 -4.81,-24.64 -6.58,-37.45 -0.51,-3.7 -0.68,-7.41 -1.21,-11.32l-0.99 -11.83c-0.05,-5.8 -0.84,-11.96 -0.82,-18l-0 -19.14c-0.01,-2.42 0.29,-3.63 0.28,-5.99l1.42 -23.66c1.64,-16.39 3.89,-33.08 7.73,-49.11 3.97,-16.55 8.71,-32.1 14.88,-47.71 1.17,-2.97 2.56,-5.92 3.83,-8.89 5.52,-12.85 14.65,-28.04 23.26,-39.04l11.57 -13.44c28.88,-29.9 67.07,-43.9 108.19,-52.5 7.11,-1.49 29.63,-5.05 37.68,-5.26 5.8,-0.15 11.32,-1.18 17.1,-1.15 7.71,0.05 16.39,-0.69 24.03,-0 3.33,0.3 7.69,-0.7 10.69,-1.47 1.54,-0.4 3.13,-0.81 4.86,-1.26 16.06,-4.15 31.31,-14.7 37.6,-31.04 5.62,-14.61 2.04,-29.34 -5.2,-39.3 -6.72,-9.24 -17.56,-16.08 -30.47,-19.01 -5.23,-1.19 -10.7,-2.2 -16.12,-2.16 -2.36,0.01 -3.6,-0.3 -5.79,-0.29 -4.11,0.02 -7.56,-0.28 -11.87,-0.28 -7.13,0 -17.9,-0.37 -24.55,-0l-11.85 0.58c-3.75,0.05 -7.89,0.59 -11.6,0.56l-5.75 0.33c-5.57,0.64 -11.5,0.75 -16.99,1.55 -3.72,0.55 -7.55,0.69 -11,1.18 -3.76,0.53 -7.08,0.8 -10.83,1.35 -14.24,2.07 -27.88,4.29 -41.98,7.09 -10.08,2.01 -20.17,4.68 -30.12,6.8 -11.61,2.48 -37.42,10.45 -47.71,14.01 -3.03,1.05 -6.33,1.97 -9.38,3.15 -7.3,2.83 -14.98,5.36 -22.3,8.32l-13.32 5.34c-5.72,2.35 -11.53,4.89 -17.11,7.42l-12.59 5.81c-0.76,0.37 -1.33,0.73 -2.03,1.04l-20.61 10.36c-0.95,0.44 -1.21,0.63 -2.01,1.07 -3.98,2.16 -8.26,4.21 -12.15,6.55 -1.32,0.79 -2.57,1.32 -3.97,2.18l-15.7 9.17c-11.41,7.05 -22.8,14.17 -33.85,21.8 -5.44,3.75 -11.12,7.54 -16.36,11.63 -0.67,0.52 -1.04,0.84 -1.74,1.34 -10.17,7.25 -19.75,15.32 -29.47,23.18 -4.62,3.73 -12.59,10.41 -16.64,14.48l-11.38 10.49c-3.1,2.45 -6.39,6.78 -9.38,9.14 -1.01,0.8 -2.7,2.11 -3.03,3.43 4.64,-3.22 14.46,-8.17 19.98,-11.59 0.76,-0.47 1.22,-0.64 2,-1.07l14.34 -8c1.58,-0.81 2.6,-1.5 4.14,-2.29 2.96,-1.52 5.5,-2.99 8.37,-4.47l25.29 -12.95c8.6,-4.48 26.34,-12.82 34.53,-16.23 13.47,-5.61 26.9,-11.72 40.56,-16.84 1.57,-0.59 2.88,-1.18 4.62,-1.79l18.55 -6.79c6.25,-2.16 12.44,-4.24 18.89,-6.43l59.26 -16.9c10.18,-2.62 20.75,-4.79 31.1,-6.93 3.12,-0.65 7.73,-1.98 10.78,-1.98z"/>
   <path class="fil1" d="M351.46 345.3l0 0zm0 0c-2.22,3.44 -20.05,14.26 -24.19,16.66l-22.06 10.86c-8.64,3.99 -32.79,12.75 -42.3,15.04 0.78,0.56 1.81,0.73 2.85,1.04 18.82,5.62 42.2,8.15 61.98,7.53l7.71 -0.59c10.09,-0.58 24.1,-3.79 33.7,-7.1 4.83,-1.66 7.21,-2.79 11.71,-4.73 8.33,-3.58 18.09,-10.25 25.18,-16.2 10.76,-9.02 18.88,-19.47 26.23,-31.66 1.73,-2.87 8.12,-14.97 8.29,-17.14l-13.21 -4.32c-2.18,-0.7 -4.64,-1.34 -6.93,-1.96 -38.68,-10.51 -90.84,-18.09 -127.45,0.86 -3.93,2.03 -7.65,4.19 -11.08,6.81 -0.87,0.67 -1.65,1.26 -2.5,1.98 -8.18,6.96 -14.86,15.23 -19.62,25.1 -0.55,1.13 -0.85,2 -1.38,3.14 -2.91,6.27 -7.36,22.12 -7.36,28.94 0.94,-0.08 2.34,-0.61 3.28,-0.89 1.05,-0.32 2.02,-0.59 3.22,-0.95 14.12,-4.16 31.25,-9.43 44.85,-14.12l45.92 -17.01c1.27,-0.55 1.72,-0.96 3.15,-1.31z"/>
   <path class="fil0" d="M524.43 371.86l0.59 0.16 -0.59 -0.16zm2.76 -8.57c1.41,0 0.46,-0 0.83,0.29 -1.46,0 -0.41,-0 -0.83,-0.29zm0 0c-3.16,0 -10.64,-2.28 -13.79,-2.28 -0.27,0.58 -1.05,2.72 -1.1,3.43 0.92,0.22 7.77,4.57 9.12,5.41l3.02 2.02c-1.94,-0.17 -11.32,-4.38 -13.52,-4.57 -0.12,1.48 -0.78,2.27 -1.1,3.71l5.48 2.04c1.86,0.63 3.74,1.35 5.67,2.13 1.92,0.77 3.9,1.47 5.71,2.08 1.38,0.47 4.52,1.93 5.76,2.04l1.93 -5.43 -11.31 -7.43c1.81,0.04 10.76,2.28 13.24,2.28 0.34,-0.73 1.87,-4.95 1.93,-5.71 -1.05,-0.09 -9.47,-3.75 -11.15,-4.45 -1.87,-0.78 -9.86,-4.29 -11.19,-4.41 -0.19,0.83 -1.02,2.95 -1.38,3.71l12.69 5.43z"/>
   <path class="fil0" d="M131.87 67.12l-0.28 -0.29 0.28 0.29zm-0.28 -0.29l0 0zm7.17 -5.43l0.28 0.57 -0.28 -0.57zm0 0l0 0zm-6.9 5.71c2,1.39 3.46,3.15 5.17,4.93l5.03 5.07c0.96,-0.67 1.8,-1.33 2.76,-2 -0.44,-1.94 -5.31,-11.01 -5.79,-13.14l8.28 11.14c1.23,-0.67 2.19,-1.51 3.31,-2.28 -1.04,-1.61 -2.38,-3.29 -3.55,-4.9l-10.8 -15.1c-0.9,0.62 -3.91,2.71 -4.41,3.43l5.24 12.57c-0.6,-0.42 -0.63,-0.55 -1.17,-1.07l-8.48 -8.35c-1.6,1.11 -3.09,2.32 -4.69,3.43 0.96,1.88 2.21,3.42 3.31,5.14 1.12,1.75 2.23,3.31 3.36,5.09 0.62,0.97 1.07,1.55 1.71,2.51l5.13 7.83c1.12,-0.78 2.08,-1.61 3.31,-2.28l-5.79 -8.85c-0.56,-0.88 -1.68,-2.16 -1.93,-3.14z"/>
   <path class="fil0" d="M72 137.66l0.08 0.09c-0.01,-0.01 -0.11,-0.06 -0.08,-0.09zm-0.55 -0.29l0 0zm1.38 -3.43l0 0zm-0.83 -0.57l0.08 0.08c-0.01,-0.01 -0.11,-0.06 -0.08,-0.08zm3.59 -2l0 0zm0 0c-1.68,-0.4 -9.7,-4.75 -11.31,-5.14 -0.58,1.13 -1.26,2.1 -1.93,3.14 1.66,1.15 2.93,2.59 4.53,3.88l3.47 2.97c0.63,0.5 0.64,0.43 1.1,1.15l-10.76 -5.42c-0.6,1.16 -2.1,2.9 -2.21,4.28 0.87,0.48 1.7,0.73 2.67,1.23 1.02,0.53 1.73,0.9 2.76,1.43 1.88,0.98 3.55,1.69 5.43,2.67 1.79,0.92 9.62,4.92 10.94,5.24 0.23,-0.88 0.69,-1.33 1.09,-2.01 0.41,-0.69 0.75,-1.27 1.12,-1.99 -1.05,-1.62 -8.67,-7.33 -9.66,-8.85 1.34,0.32 1.78,0.66 2.94,1.24 1.1,0.55 1.94,0.88 3.03,1.43 2,1 4.03,1.74 5.89,2.76l2.48 -4.28 -6.86 -5.75c-0.84,-0.71 -1.63,-1.27 -2.45,-2.03l-9.45 -7.92c-0.58,1.14 -1.91,2.86 -2.21,4 0.66,0.93 8.67,6.89 9.38,8z"/>
   <path class="fil0" d="M53.52 144.23l6.02 3.48c0.75,0.48 1.33,0.86 2.26,1.09 -0.24,1.06 -1.04,2.23 -1.66,3.43 -1.41,-0.77 -2.76,-1.64 -4.23,-2.47 -1.11,-0.63 -3.29,-2.14 -4.32,-2.38 -0.57,1.11 -2.22,3.83 -2.48,4.86 1.58,0.86 19.32,11.85 20.97,12 0.58,-1.13 2.25,-3.81 2.48,-4.86 -1.67,-0.4 -7.1,-4.44 -8.83,-4.86 0.15,-1.81 1.02,-1.84 1.38,-3.43 0.86,0.24 3.7,2.05 4.64,2.63 0.78,0.49 1.55,0.92 2.27,1.36 0.69,0.41 1.58,1.08 2.47,1.16 0.58,-1.13 2.25,-3.81 2.48,-4.86l-18.15 -10.62c-0.76,-0.47 -1.86,-1.29 -2.81,-1.37 -0.58,1.13 -2.25,3.81 -2.48,4.86z"/>
   <path class="fil0" d="M333.53 544.94c0.16,2 1.1,3.69 1.1,6 -1.34,0 -1.67,0.4 -2.7,-0.03 -1.18,-0.5 -3.75,-5.5 1.6,-5.96zm-5.79 -7.43c0,-3.27 0.93,-2.25 3.31,-3.43 0.09,1.06 1.31,6.4 1.66,7.14 -1.22,0.1 -0.67,0.29 -2.76,0.29 -1.22,0 -2.21,-2.55 -2.21,-4zm-5.24 -1.14c0,3.77 0.89,7.93 4.97,8.28 -1.25,1.94 -1.65,0.59 -1.65,4.28 0,1.77 0.65,3.49 1.45,4.5 2.26,2.86 6.6,1.42 9.02,0.9 1.41,-0.3 3.32,-1 4.71,-1.12 -0.89,-3.97 -1.79,-8.03 -2.76,-12 -0.48,-1.96 -0.9,-4.03 -1.38,-6 -0.24,-1 -0.48,-1.86 -0.71,-2.98 -0.24,-1.16 -0.59,-2.31 -0.67,-3.31 -2.58,0.62 -5.5,1.25 -8.01,1.99 -2.26,0.66 -4.96,2.49 -4.96,5.43z"/>
   <path class="fil0" d="M367.18 518.38c0.15,1.86 3.41,8.15 3.59,10.28 -1.19,0.29 -2.05,1.03 -3.31,1.14 -0.13,-1.68 -3.01,-7.44 -3.59,-10 -0.71,0.35 -1.51,0.62 -2.36,0.98 -0.87,0.36 -1.77,0.82 -2.6,1.02 0.12,1.48 3.62,10.08 4.22,11.63l4.33 11.51c0.84,-0.07 4.45,-1.61 5.24,-2 -0.68,-1.33 -1.26,-3.11 -1.85,-4.65 -0.53,-1.38 -1.43,-3.43 -1.73,-4.77 1.26,-0.11 2.12,-0.86 3.31,-1.14 0.47,2.09 3.18,7.5 3.31,9.14 1.12,-0.1 4.35,-1.51 5.24,-2l-8.83 -23.13c-0.85,0.46 -1.35,0.58 -2.37,0.98 -0.9,0.36 -1.73,0.81 -2.6,1.02z"/>
   <path class="fil0" d="M497.4 398.99c0.97,0.27 3.25,1.78 4.32,2.38 0.86,0.49 1.2,0.75 2.12,1.23 1.01,0.53 1.35,0.99 2.39,1.24 -0.13,1.66 -1.04,2.13 -1.38,3.43 -1.73,-0.48 -7.77,-4.75 -9.38,-5.14 -0.84,1.65 -1.64,3.2 -2.48,4.86 0.95,0.52 19.42,11.62 20.97,12 0.43,-0.83 0.8,-1.46 1.29,-2.37 0.5,-0.92 0.94,-1.39 1.19,-2.48l-8.28 -4.86c0.54,-1.06 1.09,-2.04 1.65,-3.14l8.55 4.86 2.48 -4.86 -18.12 -10.66c-0.81,-0.47 -1.93,-1.26 -2.85,-1.34 -0.58,1.13 -2.25,3.81 -2.48,4.86z"/>
   <path class="fil0" d="M31.73 377.29c0.15,1.84 1.26,3.66 1.65,5.43 2.16,-1.07 6.99,-2.38 9.1,-3.43 0.27,0.58 1.05,2.72 1.1,3.43 -1.03,0.51 -7.77,3.05 -8.83,3.14 0.02,1.05 1.27,4.6 1.65,5.43 3.75,-0.9 19.68,-7.57 22.62,-8.28 -0.4,-1.76 -1.23,-3.26 -1.66,-5.14 -1.26,0.03 -1.61,0.33 -2.6,0.74l-7.33 2.69c-0.37,-0.79 -1.02,-2.41 -1.1,-3.43 0.75,-0.37 1.59,-0.57 2.44,-0.9l7.21 -2.81c-0.31,-0.67 -1.6,-4.4 -1.66,-5.14l-22.62 8.28z"/>
   <path class="fil0" d="M485.81 444.12c0,-1.1 1.06,-2.41 1.65,-2.86 0.94,0.65 4.13,3.48 4.97,3.71 -0.15,0.58 -0.1,0.35 -0.35,0.78 -2.47,4.29 -6.27,-0.14 -6.27,-1.63zm-9.38 -11.71l6.43 5.05c0.7,0.59 1.67,1.16 2.12,1.8l-0.89 0.8c-1.45,-0.3 -3.43,-1.45 -4.99,-2.14l-5.16 -2.37c-1.02,1.58 -2.27,2.96 -3.31,4.57 1.52,0.83 3.75,1.61 5.48,2.33 1.64,0.68 3.77,1.81 5.56,2.24 0,3.44 0.11,3.41 1.86,5.21 4.16,4.29 7.43,3.52 11.07,-1.25l4.17 -5.68c-2.27,-1.24 -15.28,-12.53 -19.04,-15.14 -1.04,1.6 -2.29,2.99 -3.31,4.57z"/>
   <path class="fil0" d="M113.66 73.97c2.93,-4.52 6.34,0.17 6.34,2 0,0.95 -1.45,2.57 -2.48,2.86 -0.3,-1.16 -2.95,-3.44 -3.86,-4.86zm-6.62 0.57l15.72 18.85c0.75,-0.52 3.72,-3.06 4.14,-3.71l-3.5 -4.08c-0.43,-0.53 -0.38,-0.59 -0.84,-1.12 -0.38,-0.44 -0.58,-0.58 -0.93,-1.03 -1,-1.27 -1.37,-1.38 -1.61,-2.33 0.46,-0.24 0.48,-0.26 0.83,-0.57 0.69,0.19 1.62,1 2.21,1.43 8.5,6.24 6.31,5.38 9.06,3.1 0.89,-0.74 1.32,-0.95 1.97,-1.96 -1.61,-1.12 -3.16,-2.09 -4.86,-3.26 -1.73,-1.2 -3.28,-2.33 -5.08,-3.31 0.66,-2.95 0.29,-4.51 -1.99,-7.08 -5.55,-6.26 -10.51,1.88 -15.11,5.08z"/>
   <path class="fil0" d="M538.5 238.48c0,-1.27 5.24,-1.43 6.34,-1.43 0,2.46 1.3,4.57 -4.14,4.57 -1.68,0 -2.21,-1.44 -2.21,-3.14zm-14.62 -4.28c0.04,1.77 0.55,3.37 0.55,5.43l10.76 -1.43c0.02,1.12 -0.08,0.67 0.28,1.43 -1.29,0.64 -9.13,3.91 -10.21,4 0,2.44 0.55,3.78 0.55,6 1.18,-0.29 9.73,-4.54 11.03,-4.86 2.69,1.86 0.68,2 5.79,2 4.17,0 6.07,-2.42 6.07,-6.57 0,-2.77 -0.58,-7.1 -1.1,-9.42 -1.65,0.4 -3.98,0.61 -5.78,0.87 -1.97,0.28 -4.03,0.56 -6.07,0.86l-11.88 1.7z"/>
   <path class="fil0" d="M540.16 332.16c-5.51,0 -4.02,-3.2 -3.86,-5.14 0.58,0.29 5.47,1.41 6.34,1.43 -0.37,1.66 -0.46,3.71 -2.48,3.71zm-17.38 -8c0.91,0.08 1.66,0.37 2.5,0.55 0.98,0.21 1.82,0.37 2.74,0.59 1.7,0.42 3.54,0.73 5.24,1.14 -0.35,0.76 -0.25,0.31 -0.28,1.43l-9.96 0.25c-1.77,0.08 -1.25,0.56 -1.62,2.32 -0.23,1.08 -0.55,2.11 -0.55,3.43l8.83 -0.57c1.26,-0.06 1.5,-0.29 3.03,-0.29 0.76,3.37 4.88,4.57 7.17,4.57 5.9,0 6.26,-8.43 7.45,-13.71l-23.45 -5.14c-0.26,0.57 -1.08,4.53 -1.1,5.43z"/>
   <path class="fil0" d="M93.8 476.96c-0.65,-1.01 -1.66,-1.33 -1.66,-2.86 0,-1.36 3.28,-6.45 6.34,-1.71 -1.03,1.59 -3.13,3.49 -4.69,4.57zm1.38 6.57l4.35 -4.07c0.75,-0.72 1.33,-1.39 2.06,-2.15 1.79,-1.87 10.16,-9.38 10.97,-10.64 -1.64,-1.14 -2.73,-3.12 -3.59,-3.71 -1.47,0.41 -6.51,6.65 -8.28,7.14 -0.92,-1.43 -0.12,-1.7 2.15,-5.2 0.65,-1 2.88,-4.43 3.09,-5.37 -0.86,-1.33 -2.91,-2.43 -3.31,-4l-6.28 10.07c-1.11,1.26 -2.58,-1.65 -6.62,2.57 -1.16,1.21 -2.17,1.85 -2.4,4.07 -0.17,1.69 0.75,3.47 1.57,4.64 1.02,1.47 2,2.19 2.96,3.5 0.65,0.88 2.32,2.87 3.31,3.14z"/>
   <path class="fil0" d="M310.91 537.8c1.05,-0.25 1.1,-0.29 2.48,-0.29 0.42,1.85 0.43,0.46 0.95,4.16l1.28 9.54c0.2,1.42 0.52,3.39 -1.22,3.64 -1.62,0.24 -1.9,-1.37 -2.13,-2.77 -0.26,-1.61 -0.39,-2.98 -0.62,-4.78 -0.32,-2.55 -1.32,-6.98 -0.75,-9.51zm2.21 21.13c9.69,0 8.2,-7.26 7.4,-13.09 -0.62,-4.49 -0.64,-12.62 -6.85,-12.62 -3.14,0 -6.02,0.96 -7.34,2.97 -1.58,2.4 -0.99,5.73 -0.61,8.98 0.28,2.4 0.76,6.89 1.45,9.07 0.88,2.78 2.53,4.69 5.95,4.69z"/>
   <path class="fil0" d="M521.67 345.3l0.28 -1.71c2.72,-0.67 6.29,1 9.99,1.94 7.54,1.92 6.34,1.96 5.74,4.63 -3.98,0 -8.74,-1.79 -12.69,-2.85 -1.07,-0.29 -3.31,-0.75 -3.31,-2zm-4.14 1.14c0,5.35 5.8,6.43 10.09,7.54 4.57,1.19 9.99,3.66 12.93,-0.84 2.12,-3.24 3.03,-9.31 -2.24,-11.65 -2.03,-0.9 -4.36,-1.33 -6.61,-2.01 -2.74,-0.83 -5.28,-1.61 -8.1,-1.61 -3.93,0 -6.07,4.4 -6.07,8.57z"/>
   <path class="fil0" d="M466.77 451.55c0,-2.1 1.59,-2.87 3.79,-0.79 1.35,1.28 9.61,8.11 9.9,9.47 0.32,1.5 -1.14,3.5 -4.94,-0.33 -0.66,-0.67 -0.71,-0.73 -1.47,-1.34 -1.06,-0.85 -7.29,-6.34 -7.29,-7.02zm-4.69 0.86c0,4.23 6.64,8.89 10.42,12.35 3.33,3.04 7.2,3.49 10.2,-0.14 5.31,-6.44 1.33,-9.26 -3.02,-13.28 -0.42,-0.39 -0.56,-0.6 -1,-0.97 -2.25,-1.88 -5.77,-5.96 -9.42,-5.96 -3.06,0 -7.17,4.74 -7.17,8z"/>
   <path class="fil0" d="M349.53 27.7c-3.28,0 -0.78,-6.28 -0.07,-9.78 0.29,-1.43 1.07,-7.36 2.55,-7.36 1.49,0 1.93,-0.02 1.93,1.71 0,1.88 -1.85,9.82 -2.42,12.35 -0.29,1.27 -0.58,3.08 -1.99,3.08zm-6.9 -4c0,3.61 -0.04,6.24 5.01,7.66 3.19,0.9 5.63,0.61 7.48,-1.59 1.95,-2.32 2.69,-8.42 3.56,-12.02 0.29,-1.18 0.77,-3.08 0.77,-4.63 0,-4.98 -4.11,-6.85 -8.83,-6.85 -5.35,0 -5.98,7.93 -6.95,11.94 -0.31,1.28 -1.05,3.95 -1.05,5.48z"/>
   <path class="fil0" d="M465.95 476.96c-1.81,-0.44 -2.62,-1.73 -3.79,-2.93l-6.46 -7.02c-0.87,-1.09 -2.3,-3.46 0.17,-3.87 1.29,-0.21 2.81,1.87 3.67,2.75 1.21,1.24 1.95,2.31 3.17,3.57 4.02,4.15 5.86,5.14 3.24,7.5zm-16.28 -11.14c0,3.81 2.92,5.75 4.18,7.38 2,2.59 7.15,8.61 10.44,8.61 1.93,0 3.84,-1.33 4.9,-2.35 6.24,-5.99 0.65,-10.14 -1.36,-12.74 -1.77,-2.29 -7.21,-8.61 -10.44,-8.61 -3.25,0 -7.72,4.28 -7.72,7.71z"/>
   <path class="fil0" d="M522.78 206.21c-0.89,0 -1.38,-1.04 -1.38,-2 0,-1.47 5.46,-2.58 6.99,-3.04 2.38,-0.71 5.74,-2.1 8.18,-2.1 1.27,0 2.04,2.27 0.1,3.24 -1.08,0.54 -3.16,1.02 -4.45,1.39 -1.38,0.4 -3.08,0.9 -4.51,1.33 -1.42,0.43 -3.29,1.18 -4.93,1.18zm-5.52 -2.86c0,1.85 0.87,4.3 1.59,5.49 2.41,3.98 6.37,2.91 9.94,1.87 1.28,-0.37 2.6,-0.77 4.08,-1.2 5.46,-1.61 10.89,-3 8.5,-10.84 -2.09,-6.87 -7.11,-5.24 -12.13,-3.76 -1.81,0.53 -3.52,1.06 -5.15,1.53 -3.39,0.97 -6.84,2.56 -6.84,6.92z"/>
   <path class="fil0" d="M400.84 506.67c0,-1.17 1.01,-1.49 1.93,-1.71 1.86,1.29 5.94,9.27 7.18,11.71 2.53,4.97 -1.18,4.59 -2.28,2.94 -0.43,-0.65 -0.7,-1.14 -1.03,-1.79 -0.63,-1.21 -1.29,-2.37 -2.02,-3.62 -0.68,-1.18 -3.77,-6.41 -3.77,-7.52zm-4.97 0.57c0,3.79 2.58,7.55 4.36,10.62 3.12,5.38 3.66,7.37 8.33,7.37 1.78,0 11.07,-2.93 5.64,-12.4 -0.98,-1.71 -1.78,-3.18 -2.7,-4.92 -3.22,-6.1 -6.32,-10.2 -12.76,-5.41 -1.41,1.05 -2.87,2.38 -2.87,4.74z"/>
   <path class="fil0" d="M188.42 25.7c1.47,0 2.88,4.89 3.63,6.81 1.39,3.6 4.76,9.75 1.06,9.75 -1.51,0 -3.39,-6.19 -4.18,-8.24 -1.36,-3.53 -4.09,-8.32 -0.51,-8.32zm-6.9 1.43c0,4.91 1.5,7.15 3.35,11.95 0.87,2.26 2.75,7.47 6.03,7.47 4.57,0 9.1,-1.76 9.1,-7.14 0,-1.98 -0.84,-3.89 -1.42,-5.39 -1.53,-3.94 -3.87,-12.61 -7.96,-12.61 -4.43,0 -9.1,2.2 -9.1,5.71z"/>
   <path class="fil0" d="M521.4 220.77c0,12.37 8.12,8.96 17.58,7.07l7.8 -1.35c0,-2 -0.78,-3.74 -0.83,-5.71 -3.01,0.73 -6.08,1.16 -9.27,1.83 -2.84,0.6 -7.26,1.59 -10.05,1.59 -1.25,0 -1.1,-1.27 -1.1,-2 0,-1.68 7.33,-2.59 9.3,-2.93 1.49,-0.26 3.58,-0.68 5.11,-0.99 1.54,-0.31 3.64,-0.9 5.17,-0.93 0,-1.85 -0.68,-3.63 -0.83,-5.43 -1.37,0 -2.37,0.29 -3.38,0.5l-9.98 1.95c-4.28,0.79 -9.54,1.41 -9.54,6.4z"/>
   <path class="fil0" d="M537.95 256.19l0.54 -0.33 -0.54 0.33zm0 0l-10.98 5.82c-0.04,0.04 0.25,3.19 0.27,3.27 0.21,0.72 0.78,0.54 2.94,0.29l10.37 -0.98c1.09,-0.16 2.66,-0.27 3.51,-0.36l7.13 -0.62c0,-2 -0.28,-2.73 -0.28,-4.57 -1.84,0 -3.64,0.12 -5.44,0.37 -1.21,0.16 -3.94,0.49 -5.32,0.49 1.11,-1 9.84,-5.62 10.21,-5.71 0,-1.75 -0.25,-2.7 -0.28,-4 -2.01,0 -4.03,0.12 -5.95,0.41l-18.05 1.59c0.11,1.33 0.44,3.53 0.55,4.86 1.76,0 3.99,-0.36 5.56,-0.53 2.05,-0.22 3.59,-0.33 5.75,-0.33z"/>
   <path class="fil0" d="M156.97 532.94c0.98,0.68 3.74,2.28 4.97,2.57 0.27,-1.2 4.52,-9.38 5.61,-11.62 0.46,-0.95 0.74,-1.3 1.2,-2.19 2.26,-4.35 1.76,-4.57 4.5,-3.9 0.14,0.64 0.28,0.66 0.28,1.43 0,2.19 -8.4,16.39 -8.55,18.28l4.69 2.28c0.82,-1.6 1.43,-3.07 2.36,-4.69 0.91,-1.57 1.61,-3.25 2.41,-4.93 2.85,-5.95 8.59,-12.81 -1.3,-16.84 -6.19,-2.52 -8.08,3.69 -9.92,7.22l-6.25 12.38z"/>
   <path class="fil0" d="M92.42 103.39l0 0zm0 0l-3.38 -2.78c-0.68,-0.67 -1,-0.83 -1.65,-1.43 -0.94,-0.87 -0.68,-0.84 -1.87,-1.49 -1.02,1.58 -2.29,2.71 -3.31,4.28l11.27 10.04c1.77,1.48 5.7,5.28 6.94,5.96 0.5,-0.38 2.9,-3.36 3.31,-4 -1.67,-2.58 -6.11,-4.81 -7.45,-7.43l7.65 3.22c0.89,0.4 1.78,0.67 2.56,1.06l1.74 -2.2c0.84,-1.02 1.24,-0.88 1.57,-2.37l-6.03 -2.33c-1.91,-0.8 -3.96,-1.48 -5.97,-2.39 -1.11,-0.5 -0.55,0.18 -1.79,-2.43 -0.46,-0.96 -0.92,-1.9 -1.38,-2.86 -0.79,-1.64 -2.47,-4.45 -2.76,-5.71l-3.59 4c0.24,1.05 0.49,1.27 0.99,2.12 0.47,0.8 0.72,1.41 1.13,2.26 0.59,1.22 1.75,3.28 2.02,4.47z"/>
   <path class="fil0" d="M262.9 14.85l-0.32 -0.56 0.32 0.56zm0 0c0.25,0.3 0.06,0.05 0.35,0.49l1.21 2.17c0.54,1.14 0.97,1.77 1.47,2.76 0.97,1.94 2.05,3.78 3.03,5.71 0.93,-0.08 2.72,-0.36 3.59,-0.57l-3.03 -24.56c-1.68,0 -2.95,0.45 -4.41,0.57 0,2.6 1.14,8.13 1.38,11.14 -0.7,-0.53 -3.89,-6.56 -4.6,-7.8 -0.49,-0.84 -1.24,-1.89 -1.47,-2.77 -1.11,0.1 -2.75,0.48 -3.86,0.57 0,1.74 0.55,4.53 0.75,6.08l1.51 12.15c0.22,1.61 0.74,4.7 0.78,6.33 1.67,0 3.2,-0.44 4.69,-0.57 -0.14,-1.77 -0.58,-4.06 -0.78,-5.76 -0.23,-2.01 -0.6,-3.92 -0.6,-5.95z"/>
   <path class="fil0" d="M108.97 497.24c0.57,0.81 2.57,2.61 3.59,2.86 1.28,-1.97 5.19,-6.25 6.9,-8.28 -0.15,1.85 -2.95,8.87 -3.59,11.71 0.2,0.29 2.42,2.33 2.76,2.57 0.92,-0.64 6.58,-7.78 7.93,-9.21l7.8 -9.35c-0.45,-0.69 -0.97,-1.22 -1.61,-1.76 -0.62,-0.51 -1.24,-1.18 -1.97,-1.38 -0.28,1.09 -1.02,1.37 -1.7,2.24l-2.8 3.39c-0.36,0.44 -0.59,0.6 -0.96,1.01 -0.88,0.98 -0.87,1.43 -2,2.22 0.47,-2.1 3.55,-9.65 4.14,-12.28 -1.09,-0.76 -1.58,-1.88 -3.03,-2.28 -0.76,1.17 -0.93,1.33 -1.86,2.35l-13.58 16.21z"/>
   <path class="fil0" d="M281.66 25.7c1.89,0 3.66,-0.42 4.14,-2.28 1.2,1.97 -1.46,1.71 4.14,1.71l-0.28 -12.85 -7.17 0 0 3.43 2.21 0c0,2.44 0.62,6 -1.93,6 -3.02,0 -1.57,-8.36 -2.01,-11.63 -1.02,-7.69 2.39,-6.09 2.88,-5.28 0.55,0.92 0.51,3.07 0.51,4.34l5.24 -0.29c0,-2.61 0.01,-4.76 -1.58,-6.65 -2.65,-3.14 -7.9,-2.36 -9.9,-0.95 -3.06,2.16 -3.11,7.18 -2.67,10.53 0.46,3.45 -1.58,13.92 6.42,13.92z"/>
   <path class="fil0" d="M292.98 11.71c0,4.8 -1.01,13.71 5.52,13.71 4.18,0 2.68,-0.19 4.69,-1.71 0.85,1.83 -0.92,1.71 3.86,1.71l0.28 -13.14 -6.9 0c-0.42,3.69 -0.86,3.43 1.93,3.43 0,3.61 0.41,5.71 -2.48,5.71 -2.35,0 -1.19,-9.99 -1.1,-11.71 0.25,-4.85 -0.68,-6.32 3.03,-5.43 1.22,5.41 -2.26,4.86 5.52,4.86 0,-2.11 0.52,-4.64 -1.17,-6.78 -1.72,-2.18 -3.47,-2.36 -6.27,-2.36 -6.19,0 -6.9,5.32 -6.9,11.71z"/>
   <path class="fil0" d="M396.7 44.84c0,1.27 0.32,2.36 1.01,3.24 1.83,2.36 4.71,3.67 7.27,1.9 -0.19,0.84 -0.28,0.87 -0.28,2 1.19,0.29 2.05,1.03 3.31,1.14l4.97 -11.71c-1.08,-0.26 -2.13,-0.99 -3.27,-1.47 -1.19,-0.5 -1.9,-1.04 -3.35,-1.39 -0.25,1.13 -0.85,2.01 -1.1,3.14 1.02,0.25 0.77,0.47 1.93,0.57 -1.5,3.24 -1.35,4.86 -3.86,4.86 -3.44,0 1,-7.99 1.56,-9.24 0.86,-1.9 2.57,-7.04 3.95,-7.04 3.68,0 0.9,3.9 0.55,5.43 0.74,0.37 1.47,0.64 2.3,1.05 0.75,0.37 1.81,0.88 2.67,0.95 0.48,-2.12 3.61,-6.52 -1.33,-10.04 -6.26,-4.46 -9.79,-0.72 -12.46,5.48 -1.21,2.82 -3.87,8.3 -3.87,11.13z"/>
   <path class="fil0" d="M198.63 527.52l0 0zm0 0c0.02,-1.12 -0.08,-0.67 0.28,-1.43 -0.8,-0.44 -2.52,-1.34 -3.59,-1.43 -0.41,1.81 -1.54,4.26 -2.21,6 -0.43,1.12 -2.13,5.03 -2.21,6 0.89,0.44 5.76,2.5 6.62,2.57 0.11,-1.39 0.7,-1.58 0.83,-3.14 -0.55,-0.27 -0.99,-0.41 -1.66,-0.57 0.08,-1 0.99,-3.27 1.45,-3.93 1.5,-2.15 3.74,-0.97 3.48,1.27l-1.62 4.37c-1.13,2.92 -3.22,10.3 -5.37,9.85 -2.76,-0.57 -0.27,-4.01 -0.15,-5.57 -1.73,-0.42 -3.29,-1.57 -4.97,-1.71 -0.39,1.73 -1.85,4.14 -0.92,6.96 1,3.05 9.85,9.24 14.01,-0.83 1.28,-3.1 3.84,-9.17 4.24,-12.2 0.6,-4.55 -4.13,-8.45 -8.22,-6.21z"/>
   <path class="fil0" d="M164.42 35.99c0,4.15 1.61,5.9 2.95,8.66 2.01,4.16 5.57,13.44 12.39,8.65 1.15,-0.81 1.77,-1.48 1.77,-3.31 0.9,0.62 0.61,0.47 1.1,1.43l3.31 -1.72c-0.95,-1.87 -1.81,-3.83 -2.75,-5.71 -0.78,-1.55 -2.36,-3.94 -2.76,-5.71 -1.31,0.11 -4.83,2.31 -6.34,3.14 0.28,1.24 0.82,1.61 1.1,2.86 1.03,-0.09 1.46,-0.45 2.21,-0.86 0.65,1.26 2.51,4.35 1.45,5.76 -2.63,3.5 -5.33,-5 -6.88,-7.85 -1.07,-1.98 -4.75,-7.33 -0.64,-7.33 1.03,0 2.26,2.71 2.48,3.71l4.69 -2.28c-0.2,-2.46 -3.16,-6 -5.79,-6 -3.59,0 -8.28,2.99 -8.28,6.57z"/>
   <path class="fil0" d="M26.48 282.75c-4.7,0 -6.34,0.62 -6.34,-1.71 0,-1.59 4.6,-1.14 6.34,-1.14 1.62,0 1.67,2.86 0,2.86zm-10.21 -2.28c0,7.07 3.31,7.71 9.38,7.71 4.07,0 8.07,-3.49 4.97,-8.28 4.15,0 2.77,-0.29 6.34,0.57 0,2.56 -0.21,2.28 -2.76,2.28l0 5.14c6.83,0 6.62,-3.8 6.62,-7.71 0,-7.07 -10.44,-5.71 -16.55,-5.71 -4.08,0 -8,1.71 -8,6z"/>
   <path class="fil0" d="M52.14 389.57c0.46,2.06 1.55,3.14 1.93,4.86 1.66,-0.14 4.18,-2.4 5.38,-1.3 2.86,2.64 -4.38,4.91 -7.68,6.63 -1.75,0.91 -7.36,4.41 -7.36,0.67 0,-1.19 3.11,-2.61 4.14,-2.86l-2.21 -5.14c-1.75,0.96 -6.34,2.91 -6.34,6.28 0,3.83 2.9,8.85 6.62,8.85 2.8,0 12.28,-4.71 14.74,-6.44 6.39,-4.5 1.03,-13.55 -3.16,-13.55 -2.26,0 -4.56,1.17 -6.07,2z"/>
   <path class="fil0" d="M142.63 505.53c1.37,0.38 3.05,2.19 4.41,2.57 0.47,-0.73 2.23,-4 3.03,-4 4.61,0 -0.58,6.5 -2.54,9.66 -1.76,2.84 -3.37,6.44 -5.2,5.53 -1.57,-0.78 -1,-2.18 -0.22,-3.43 0.51,-0.8 1.08,-1.36 1.33,-2.33l-4.41 -2.86c-1.64,2.54 -3.55,5.44 -2.22,8.58 0.88,2.08 7.37,8.54 12.39,1.96 2.04,-2.68 7.76,-11.35 7.76,-14.25 0,-5.34 -7.69,-10.32 -12.06,-5.35 -0.4,0.46 -0.91,1.23 -1.29,1.8 -0.51,0.75 -0.91,1.12 -0.99,2.12z"/>
   <path class="fil0" d="M325.8 20.28c0,2.82 -0.32,4.9 2.43,6.91 2.11,1.54 8.07,2.72 10.36,-1.38 0.99,-1.78 1.08,-3.4 1.56,-5.53 -0.46,-0.23 -4.93,-1.17 -5.24,-0.86 -0.4,0.41 -0.44,5.14 -1.93,5.14 -3.53,0 -1.48,-5.33 -0.71,-10.16 0.58,-3.6 0.5,-7.26 2.92,-7.26 2.44,0 0.85,4.61 0.83,5.71 1.74,0.15 3.45,0.86 5.24,0.86 0.02,-1.06 2.93,-10.57 -6.34,-10.57 -2.24,0 -4.07,-0.26 -5.8,2.27 -1.65,2.41 -3.3,12.73 -3.3,14.86z"/>
   <path class="fil0" d="M104.83 88.25c0.9,0.62 5.63,4.47 6.07,5.14l-1.59 1.78c-0.48,-1.6 -4.15,-5.64 -4.48,-6.92zm0 0l0 0zm-7.52 -3.5c1.06,2.02 2.07,3.46 3.27,5.32 1.36,2.11 9.13,14.9 10.04,15.59 1.15,-0.8 2.83,-2.26 3.59,-3.43l-2.76 -4.28 2.14 -2.35c1.08,0.35 3.21,2.23 4.2,2.92 1.02,-0.56 3.29,-2.55 3.59,-3.71l-17.15 -12.52c-0.81,-0.62 -1.69,-1.47 -2.72,-1.76l-4.2 4.21z"/>
   <path class="fil0" d="M150.07 51.7c1.12,0.78 2.79,3.28 3.79,4.35 0.79,0.84 0.64,0.61 1.17,1.64 -0.73,0.4 -1.2,0.74 -1.93,1.14 -0.59,-1.15 -0.95,-2.27 -1.56,-3.52 -0.52,-1.07 -1.37,-2.38 -1.47,-3.62zm0 0l0 0zm-0.55 -0.86l0.08 0.09c-0.01,-0.01 -0.11,-0.06 -0.08,-0.09zm-6.34 -4.57c0.08,1.04 8.15,21.56 9.1,23.42l4.14 -2.57c-0.08,-0.99 -1.51,-4.31 -1.93,-5.14 1.03,-0.57 1.73,-1.15 2.76,-1.71 1.59,1.1 2.06,2.66 3.59,3.71l4.14 -2.57c-0.59,-0.91 -1.28,-1.37 -2,-2.22 -2.55,-2.99 -13.43,-15.1 -14.83,-16.06 -1.2,0.33 -3.88,2.39 -4.97,3.14z"/>
   <path class="fil0" d="M84.42 458.97l0 0zm0 0c0.36,-1.39 1.71,-2.05 2.52,-3.1 0.81,-1.05 1.64,-2.52 2.99,-2.9 0.28,1.08 0.53,0.83 1.1,1.71 -1.07,0.74 -2.05,1.33 -3.2,2.11l-3.42 2.17zm-8 2.86l3.86 4.86 18.54 -10.8c0.95,-0.6 1.76,-0.96 2.71,-1.48 -0.35,-1.34 -2.06,-2.37 -3.03,-4.28 -1.55,0.85 -2.86,1.72 -4.41,2.57 -1.11,-0.77 -1.48,-1.45 -2.21,-2.57 0.75,-1.16 2.25,-2.5 3.03,-3.71 -0.28,-1.1 -2.44,-3.59 -3.03,-4 -0.64,0.44 -1.42,1.61 -1.93,2.29l-9.72 12.21c-1.27,1.61 -2.73,3.26 -3.8,4.92z"/>
   <path class="fil0" d="M81.66 115.96c1.01,0.24 5.28,2.98 6.62,3.71 -0.58,0.9 -0.8,0.87 -1.38,2l-5.24 -5.71zm0 0l-0.28 -0.29 0.28 0.29zm-0.28 -0.29l0 0zm-8 -2.28l16 18.56c0.69,-0.48 2.84,-3.23 3.03,-4 -0.3,-0.47 -2.91,-3.43 -3.31,-3.71 0.68,-1.06 1.37,-1.75 1.93,-2.86 1.6,0.88 3.1,1.7 4.69,2.57 1.06,-1.64 2.45,-2.9 2.76,-4.28l-21.52 -11.42c-0.86,1.33 -3.29,3.98 -3.59,5.14z"/>
   <path class="fil0" d="M275.87 541.51c0,3.38 0.13,3.96 2.36,6.7 2.83,3.48 5.92,3.32 5.92,7.87 0,1.33 -2.76,2.52 -2.76,-2.28 -1.76,0 -2.79,0.57 -4.69,0.57 0,10.53 12.69,8.2 12.69,1.43l0 -2c0,-6.19 -9.54,-6.6 -8,-13.42 2.52,-0.61 3.03,1.2 3.03,4 1.09,0 3.99,-0.51 4.69,-0.86 0,-10.93 -13.24,-9.02 -13.24,-2z"/>
   <path class="fil0" d="M427.32 485.82c0,3.76 2.97,6.3 6.13,7.07 1.59,0.39 3.93,0.56 5.73,0.64 0.95,0.05 1.99,0.24 2.66,0.67 2.2,1.4 1.71,3.61 0.38,3.61 -0.85,0 -1.81,-1.54 -2.48,-2 -0.91,0.25 -1.08,0.67 -1.73,1.35 -0.63,0.66 -1.12,1.06 -1.58,1.79 0.63,1.24 0.94,1.33 2.04,2.17 5.06,3.83 9.82,-2.36 9.82,-5.6 0,-3.08 -2.51,-6.36 -6.17,-7.03 -2.84,-0.52 -6.56,0.22 -8.53,-1.45 -1.09,-0.92 -2.62,-3.23 0.63,-3.23 0.88,0 2.04,1.79 2.76,2.28 0.44,-0.31 2.71,-2.93 3.03,-3.43 -4.94,-7.63 -12.69,-1.82 -12.69,3.14z"/>
   <path class="fil0" d="M26.76 338.73c-2.63,0 -2.26,-2.83 1.38,-3.14l-1.42 -4.56c-2.25,0.04 -5.75,2.27 -5.75,4.56l0 1.71c0,3.56 2.37,6.85 6.07,6.85 8.29,0 7.34,-10.85 12.97,-10.85 1.15,0 1.1,1.06 1.1,1.71 0,1.62 -2.53,1.76 -3.59,2.28 0.32,1.41 1.28,3.37 1.38,4.57 9.73,-0.84 7.44,-13.99 0.83,-13.99 -8.65,0 -8.39,10.85 -12.97,10.85z"/>
   <path class="fil0" d="M49.93 171.65c4.1,0 8.58,-4.35 11.93,-2.36 1.81,1.08 1.31,4.39 -3.93,1.79 -0.35,1.55 -1.26,3.33 -1.38,4.86 1.5,0.13 5.65,3.05 8.8,-1.17 4.99,-6.7 -0.68,-11.39 -4.11,-11.39 -6.97,0 -6.45,2.57 -11.03,2.57 -2.8,0 -2.85,-3.14 -1.65,-3.14 1.72,0 1.85,0.73 3.31,0.86 0.1,-1.2 1.06,-3.16 1.38,-4.57 -8.63,-4.29 -11.66,5.95 -8.48,9.93 1.05,1.32 3.96,2.64 5.17,2.64z"/>
   <path class="fil0" d="M48 192.87l0.2 0.2c0.45,0.22 0.47,0.02 0.07,0.32l-0.57 -0.32 -10.9 -2.41c-1.19,-0.27 -2.47,-0.71 -3.7,-0.74 -2.57,5.55 -1.4,4.46 0.57,4.83 3.22,0.62 20.1,4.31 21.78,4.31 0.61,-1.32 1.59,-3.92 1.93,-5.43l-20.69 -13.14c-0.42,0.82 -1.57,3.8 -1.65,4.86 0.87,0.24 2.35,1.29 3.23,1.8l6.34 3.72c1.11,0.63 2.28,1.5 3.4,1.99z"/>
   <path class="fil0" d="M207.46 30.85l0.08 0.08c-0.01,-0.01 -0.11,-0.06 -0.08,-0.08zm-2.76 -15.71c0.21,0.46 2.74,14.38 2.76,15.42 -0.85,-0.64 -6.22,-11.84 -7.17,-13.71 -1.16,0.1 -3.05,1.1 -4.41,1.43l11.59 21.99c1.89,-0.04 3.88,-1.32 5.52,-1.71 0,-1.78 -2.81,-19.61 -3.18,-22.69 -0.44,-3.6 -0.21,-1.9 -5.09,-0.73z"/>
   <path class="fil0" d="M410.77 55.12l9.38 5.43c0.39,-0.76 1.47,-2.72 1.65,-3.43 -1.48,-1.03 -3.21,-1.83 -4.69,-2.86 0.7,-1.08 3.06,-5.18 3.31,-6.28 1.13,0.62 2.62,1.7 3.86,2 0.49,-0.76 1.57,-2.37 1.65,-3.43 -1.11,-0.31 -2.2,-1.41 -3.31,-1.71 0.08,-1.02 2.16,-4.5 2.76,-5.43 1.48,1.03 3.21,1.83 4.69,2.86 0.77,-1.51 1.55,-2.43 1.65,-3.71 -1.64,-0.4 -7.74,-4.75 -9.38,-5.14l-10.99 20.04c-0.44,0.74 -0.51,0.59 -0.59,1.67z"/>
   <path class="fil0" d="M242.49 5.14c0,2.08 0.57,4.19 0.9,6.21l2.68 15.22c0.17,1.07 0.47,2.12 0.55,3.14 1.63,-0.39 3.75,-0.78 5.32,-1.06 1.68,-0.3 3.88,-0.9 5.44,-0.93 -0.1,-1.21 -0.52,-2.44 -0.55,-3.71 -2.17,0 -3.68,0.7 -5.52,0.86 -0.18,-2.29 -1.1,-4.62 -1.1,-7.14 1.44,-0.12 2.1,-0.57 3.86,-0.57 0,-1.67 -0.52,-2.46 -0.55,-4 -1.57,0.04 -2.29,0.57 -4.14,0.57 -0.28,-1.23 -0.72,-4.88 -1.1,-5.71 0.32,-0.03 4.74,-0.83 4.92,-0.91 0.75,-0.33 0.49,-0.35 0.23,-1.82 -0.45,-2.5 0.88,-2.41 -5.82,-1.11 -1.6,0.31 -3.69,0.85 -5.13,0.98z"/>
   <path class="fil0" d="M43.04 343.01c0.43,1.91 0.95,3.8 1.38,5.71 -2.33,0.05 -4.43,1.43 -6.9,1.43 -0.12,-1.44 -0.71,-2.56 -0.83,-4 -1.14,0.1 -2.5,0.59 -3.59,0.86 0,1.58 0.52,2.93 0.83,4.28 -1.84,0.44 -3.67,0.98 -5.52,1.43 -0.43,-0.93 -1.1,-4.19 -1.38,-5.43 -1.14,0.1 -2.5,0.59 -3.59,0.86 0.03,1.25 1.35,6.21 1.82,8.11 0.27,1.1 0.58,1.72 0.67,2.74 1.45,-0.03 4.5,-1.02 5.85,-1.37l17.6 -4.63c-0.73,-1.58 -2.02,-9.27 -2.76,-10.85 -1.14,0.1 -2.5,0.59 -3.59,0.86z"/>
   <path class="fil0" d="M485.26 419.84c1.5,0.36 1.81,1.35 3.31,1.71 0.2,-0.78 0.81,-1.69 1.27,-2.4 0.51,-0.8 0.89,-1.71 1.49,-2.17 1.5,0.41 4.26,3.06 5.79,3.43 -0.28,1.26 -1.58,2.76 -2.21,4 0.71,0.2 2.66,1.55 3.31,2 0.62,-1.22 1.27,-2.14 1.93,-3.43 1.04,0.09 4.01,2.2 4.97,2.86 -0.25,1.09 -0.73,1.5 -1.26,2.41 -0.58,0.97 -0.94,1.6 -1.5,2.45 0.82,0.57 2.32,1.73 3.31,2 0.89,-1.73 1.87,-3.06 2.85,-4.76 0.67,-1.17 2.58,-3.8 2.67,-4.95 -1.09,-0.3 -8.87,-5.63 -10.09,-6.4 -1.8,-1.14 -3.32,-2.24 -5.07,-3.32 -1.09,-0.68 -4.19,-3.04 -5.25,-3.13l-2.77 4.84c-0.69,1.2 -2.44,3.51 -2.75,4.87z"/>
   <path class="fil0" d="M63.73 402.42c0.43,1.65 2.35,3.83 2.48,5.43 -1.42,0.34 -4.58,2.73 -6.07,3.14 -0.65,-1.28 -1.3,-2.49 -1.93,-3.71 -1.16,0.63 -2.28,1.47 -3.31,1.71 0.2,0.76 1.5,3.16 1.93,4 -1.41,0.77 -4.12,2.47 -5.24,2.57 -0.34,-1.3 -1.87,-3.27 -2.21,-4.57 -1.6,0.14 -1.65,1.03 -3.31,1.43 0.1,1.2 1.54,3.6 2.3,5.05 0.88,1.7 1.83,3.32 2.67,4.95 1.04,-0.25 4.21,-2.12 5.33,-2.76 1.95,-1.13 14.63,-8.42 15.64,-8.66 -0.11,-1.42 -2.75,-5.92 -3.67,-7.62 -0.51,-0.94 -0.84,-1.78 -1.29,-2.66 -1.07,0.59 -2.01,1.4 -3.31,1.71z"/>
   <path class="fil0" d="M134.35 492.39l4.14 2.86c-0.29,1.31 -3.04,4.72 -3.86,6 -1.29,-0.7 -2.27,-1.97 -3.59,-2.28 -0.34,0.53 -0.59,0.95 -0.99,1.54 -0.56,0.83 -0.71,0.71 -0.94,1.6 1.12,0.78 2.08,1.61 3.31,2.28 -1.07,1.65 -2.24,3.2 -3.31,4.86 -0.8,-0.22 -1.63,-1 -2.37,-1.55 -0.94,-0.7 -1.31,-1.04 -2.32,-1.59 -0.65,1.26 -1.61,2.01 -1.93,3.43 1.06,0.29 7.67,5.48 8.83,6.28 1.18,-2.32 11.49,-16.44 13.79,-19.99 -0.79,-1.22 -7.63,-6.02 -8.83,-6.85 -1.1,2.15 -1.81,1.91 -1.93,3.43z"/>
   <path class="fil0" d="M383.18 42.27l10.21 4c0.29,-1.28 0.98,-2.19 1.1,-3.71 -1.61,-0.39 -3.64,-1.6 -4.97,-1.71 0.42,-1.88 2.13,-5.28 2.48,-6.85 1.49,0.36 2.47,1.28 4.14,1.43 0.12,-1.48 0.78,-2.27 1.1,-3.71 -0.92,-0.22 -3.06,-1.03 -3.86,-1.43 0.42,-0.82 1.85,-4.43 1.93,-5.43 1.95,0.17 3.57,1.67 5.52,1.71 0.1,-1.3 0.83,-2.2 1.1,-3.43l-10.21 -4c-0.53,2.37 -7.94,20.41 -8.55,23.13z"/>
   <path class="fil0" d="M527.19 280.75l3.59 0 0 -5.71 7.17 0 0 4.28 3.59 0c0,-5.33 -1.14,-4.28 5.79,-4.28l0 5.71 3.86 0 0 -11.14 -24 -0.29 0 11.42z"/>
   <path class="fil0" d="M344.84 526.09c0.46,1 0.64,2.71 1.1,3.71 1.5,-0.74 3.74,-0.97 5.24,-1.71 0.53,2.37 1.38,4.7 1.93,7.14 -1.55,0.13 -2.33,0.82 -3.86,0.86 0.04,1.72 0.71,2.51 0.83,4 1.28,-0.31 2.98,-1.04 4.14,-1.14l1.66 5.71c-1.67,0.14 -3.48,1.28 -5.24,1.43 0.12,1.48 0.72,2.36 0.83,3.71 1.26,-0.03 4.1,-1.04 5.27,-1.39 1.47,-0.44 3.74,-1.34 5.21,-1.46l-6.62 -23.99 -10.48 3.14z"/>
   <path class="fil0" d="M526.91 285.89c0,2.18 -0.28,3.18 -0.28,5.43 2.7,0 4.31,0.26 6.91,0.28 2.64,0.02 4.09,0.75 6.03,1.47l10.79 4.25 0.33 -5.14 -7.27 -2.45 7.49 -1.84 0.28 -4.24 0 -0.89c-2.32,0.09 -11.28,3.06 -14.18,3.61l-10.09 -0.47z"/>
   <path class="fil0" d="M36.41 360.44c0.58,1.26 0.85,3.14 1.38,4.28 -0.99,0.24 -1.76,0.57 -2.76,0.86 -1.01,0.29 -1.97,0.77 -3.03,0.86 -0.15,-1.91 -1.06,-3.05 -1.1,-4.86 -1.65,0.04 -2.07,0.73 -3.59,0.86 0.03,1.52 0.85,3.75 1.28,5.24 0.43,1.52 1.36,3.81 1.48,5.32 5.56,-1.34 17.05,-5.73 22.9,-7.14 0,-1.24 -0.98,-4.57 -1.38,-5.43 -1,0.09 -1.65,0.43 -2.58,0.75l-7.62 2.39c-0.13,-1.64 -0.97,-2.64 -1.1,-4.28 -0.83,0.07 -3.23,0.83 -3.86,1.14z"/>
   <path class="fil0" d="M524.98 311.31c2.93,0.25 7.6,1.49 10.21,1.71 0,1.87 -0.52,2.94 -0.55,4.57 1.45,0 2.56,0.46 3.86,0.57 0,-1.73 0.55,-2.84 0.55,-4.57 2.04,0.49 5.47,0.58 5.73,1.47 0.09,0.28 -0.4,2.74 -0.48,3.17 -0.18,1.03 -0.9,1.93 2.68,2.05 1.14,0.04 0.78,0.01 1.4,-3.87 0.37,-2.28 0.87,-4.29 0.87,-6.81 -3.12,-0.07 -20.13,-3.71 -23.72,-3.71 0,2.05 -0.55,3.38 -0.55,5.43z"/>
   <path class="fil0" d="M102.62 485.53c-0.99,-0.69 -1.49,-1.93 -2.76,-2.28 -1.04,0.72 -1.88,1.68 -2.48,2.86 1.59,2.46 7.69,7.39 8.83,9.14 0.63,-0.44 0.88,-0.77 1.45,-1.35 0.66,-0.68 1.06,-0.84 1.31,-1.79 -0.74,-1.15 -1.4,-1.53 -2.48,-2.28l10.41 -11.21c0.97,-1.01 3.03,-2.58 3.38,-3.93 -0.95,-1.48 -1.79,-1.87 -2.82,-2.79 -0.51,-0.46 -0.48,-0.53 -1.04,-0.92 -1.09,1.68 -5.16,5.49 -6.83,7.21 -1.83,1.9 -5.72,6.49 -6.97,7.35z"/>
   <path class="fil0" d="M18.21 316.17c0,3.08 1.65,9.81 1.65,13.14 1.34,-0.03 2.8,-0.54 4.14,-0.57 -0.02,-0.99 -0.36,-2.84 -0.55,-3.71 4.51,-1.09 14.91,-1.95 19.86,-3.14 -0.28,-1.25 -0.8,-4.05 -0.83,-5.43 -1.89,0 -7.59,1.07 -9.95,1.41l-9.92 1.44c0,-0.97 -0.12,-3.23 -0.64,-3.54 -0.31,-0.18 -2.9,0.4 -3.77,0.4z"/>
   <path class="fil0" d="M177.39 538.66c-1.31,-0.32 -2.38,-1.14 -3.59,-1.43 -0.32,1.41 -1.27,2.66 -1.38,4 1.46,0.35 4.21,1.96 5.75,2.61 1.38,0.58 4.63,2.43 5.83,2.53 0.34,-1.51 1.25,-2.15 1.38,-3.71 -1.03,-0.56 -1.99,-0.91 -3.03,-1.43 0.43,-1.93 3.96,-9.06 5.08,-11.88 0.74,-1.84 2.88,-5.64 2.92,-7.26 -1.72,-0.41 -3.51,-1.87 -4.97,-2l-8 18.56z"/>
   <path class="fil0" d="M502.36 388.71c1.36,0.33 3.1,1.31 4.49,1.92 2.34,1.04 12.17,5.7 13.72,6.08 -0.28,1.25 -1.07,2.35 -1.38,3.71 1.36,0.33 2.57,1.32 3.86,1.43l4.97 -12c-1.5,-0.36 -2.05,-1.27 -3.86,-1.43 -0.51,1 -0.85,2.11 -1.38,3.14 -2.48,-0.6 -16.5,-7.83 -18.48,-8 -0.45,1.99 -1.5,3.24 -1.93,5.14z"/>
   <path class="fil0" d="M57.66 426.41c-0.2,-0.9 -0.94,-2 -1.38,-2.86 -1.44,0.12 -2.1,1.35 -3.59,1.71 0.1,1.22 5.58,9.93 6.34,11.42 1.09,-0.26 2.56,-1.44 3.59,-2 -0.32,-0.63 -0.5,-1.01 -0.88,-1.66 -0.41,-0.69 -0.58,-0.92 -0.77,-1.77 4.22,-2.31 12.4,-8.14 16.83,-10.57 -0.89,-1.75 -1.89,-3.15 -2.76,-4.86l-14.95 9.37c-0.74,0.47 -1.48,1.11 -2.43,1.2z"/>
   <path class="fil0" d="M439.74 472.97c0.13,1.64 5.19,6.73 6.23,8.12 1.5,2.01 5.35,6.16 6.46,7.88 -0.87,1.35 -1.67,1.32 -2.48,2.57 0.68,1.05 1.84,2.15 2.48,3.14 0.59,-0.41 0.63,-0.57 1.19,-1.05l7.15 -6.31c0.58,-0.54 0.67,-0.76 1.32,-1.21 -0.38,-0.58 -0.72,-0.92 -1.22,-1.59 -0.52,-0.7 -0.9,-1.1 -1.54,-1.55 -0.84,0.76 -1.64,1.53 -2.48,2.28l-13.24 -15.42c-1.35,0.93 -2.84,2.86 -3.86,3.14z"/>
   <path class="fil0" d="M410.77 495.24c0.31,1.21 1.87,3.25 2.57,4.48 1.36,2.38 7.59,11.78 7.91,13.23 -0.76,0.53 -1.83,1.46 -2.76,1.71 0.21,0.91 1.24,2.36 1.93,3.71 0.72,-0.2 1.86,-1.06 2.64,-1.55l8.12 -5.31c-0.2,-0.91 -0.46,-1.16 -0.94,-1.88 -0.49,-0.75 -0.62,-1.1 -0.99,-1.83 -1.15,0.63 -2.16,1.37 -3.31,2 -0.69,-1.36 -10.24,-16.49 -10.48,-17.42 -0.86,0.47 -1.44,0.93 -2.22,1.41 -0.72,0.45 -1.72,1.23 -2.47,1.44z"/>
   <path class="fil0" d="M293.81 535.58c-0,4.39 1.07,12.35 1.38,17.64 0.08,1.34 0.82,2.68 -0.33,3.1 -1.24,0.45 -2.52,-0.65 -2.95,0.68 -0.06,0.18 0.24,2.81 0.24,3.66l12.69 -1.14c0,-1.79 -0.28,-2.57 -0.28,-4 -2.2,0 -1.75,-0.16 -3.59,0.29l-0.87 -10.24c-0.33,-3.29 -0.79,-6.63 -0.79,-10.33l-5.51 0.35z"/>
   <path class="fil0" d="M377.12 514.09l4.1 9.47c0.39,0.98 0.63,1.4 1.05,2.34 0.42,0.92 0.56,1.47 1.01,2.38 0.79,1.63 1.33,3.13 2.12,4.66 -0.54,0.27 -0.93,0.36 -1.56,0.67 -0.77,0.38 -0.9,0.55 -1.75,0.76 0.21,0.95 1.23,3.16 1.66,4l11.59 -5.43c-0.6,-1.17 -1.04,-2.51 -1.65,-3.71 -1.76,0.15 -1.63,1.1 -3.59,1.14l-8 -18.56 -4.97 2.28z"/>
   <path class="fil0" d="M211.59 12.85c0.22,0.99 0.74,3.22 1.1,4 1.31,-0.11 2.15,-0.73 3.59,-0.86l5.52 19.71c1.72,-0.41 3.31,-1.03 4.97,-1.43 0,-2.42 -5.05,-17.57 -5.24,-19.99 1.04,-0.25 2.3,-0.77 3.31,-0.86 -0.04,-1.83 -0.79,-2.17 -0.83,-4 -1.92,0 -9.83,2.8 -12.41,3.43z"/>
   <path class="fil0" d="M370.73 37.69c1.31,0.12 4.11,1.28 5.32,1.69 1.67,0.58 3.53,1.35 5.21,1.75 0.08,-0.93 0.78,-3 1.1,-3.71l-5.23 -1.76 6.37 -19.94c-0.81,-0.39 -4.34,-1.65 -5.28,-1.73l-7.49 23.69z"/>
   <path class="fil0" d="M81.38 432.7c0.42,1.61 2.34,3.24 2.76,4.86 -0.46,0.65 -3.07,2.41 -3.97,3.03 -1.48,1.02 -2.71,1.8 -4.11,2.89 -0.73,0.57 -7.67,5.57 -8.47,5.79 0.83,1.63 2.04,3.33 3.03,4.86l19.86 -13.99 -6.07 -9.42c-1,0.7 -1.94,1.4 -3.03,2z"/>
   <path class="fil0" d="M358.36 33.99c1.32,0.03 4.03,1.03 5.3,1.37 1.83,0.48 3.37,1.05 5.18,1.49 0.09,-1.18 0.57,-2.59 0.83,-3.71 -1.59,-0.38 -3.59,-1.29 -5.24,-1.43 0.76,-3.38 1.89,-6.76 2.7,-10.06 0.43,-1.76 0.94,-3.48 1.41,-5.11 0.4,-1.41 0.89,-3.99 1.41,-5.11 -0.49,-0.24 -4.37,-1.43 -4.97,-1.43 -0.66,0 -4.81,16.6 -5.14,17.81 -0.45,1.62 -1.48,4.52 -1.48,6.18z"/>
   <path class="fil0" d="M517.81 188.79c-1.14,0 -2.03,0.14 -2.21,-2 -1.09,0.03 -3.09,0.76 -3.86,1.14 2.56,5.52 1.21,8.56 11.07,5.18 1.7,-0.58 3.14,-1.18 4.89,-1.79l7.44 -2.58c0.79,-0.31 1.43,-0.72 2.52,-0.81 -0.08,-0.97 -1.29,-4.64 -1.65,-5.43 -2.9,0.7 -17.04,6.28 -18.21,6.28z"/>
   <path class="fil0" d="M16.83 295.32c0,5.85 -0.37,3.06 1.66,6.28 1.1,1.74 0.87,2.99 4.96,2 -0.22,-0.99 -0.94,-2.28 -1.38,-3.14 3.55,0 11.87,-0.87 15.44,-0.87 0.59,0 2.32,0.1 2.78,0 1.24,-0.25 0.54,0.03 0.54,-5.42l-20.7 1.13c-0.99,0.09 -2.27,0.02 -3.3,0.02z"/>
   <path class="fil0" d="M38.07 177.08c3.97,2.18 14.27,6.4 19.03,8.86 0.72,0.37 2.09,1.06 3.04,1.14 0.45,-1.99 1.5,-3.24 1.93,-5.14l-19.13 -8.76c-0.84,-0.44 -2.04,-1.02 -2.94,-1.24 -0.12,1.51 -1.53,3.36 -1.93,5.14z"/>
   <path class="fil0" d="M17.66 308.52l0.27 4.51c6.02,0 4.17,-0.95 4.14,-2.57 1.58,0 2.35,-0.1 2.76,1.71 0.55,-0.27 0.99,-0.41 1.65,-0.57 -0.51,-1.09 -0.18,-1.65 -1.16,-2.51 -1.62,-1.44 -5.26,-0.74 -7.67,-0.57z"/>
   <path class="fil0" d="M315.04 21.14c-5.7,0 -4.75,-1.65 -4.99,2.88 -0.12,2.3 -0.53,1.53 1.93,1.72 1.3,0.1 2.48,0.93 2.79,-0.6 0.23,-1.15 -0.06,-2.54 0.27,-4z"/>
   <path class="fil0" d="M230.9 27.99c0.06,0.81 0.84,4.29 1.1,4.86 0.8,-0.4 3.35,-0.89 4.41,-1.14 -0.04,-1.77 -0.79,-2.8 -0.83,-4.57 -2.17,0 -2.92,0.7 -4.69,0.86z"/>
   <polygon class="fil0" points="47.71,193.07 48.28,193.39 48.2,193.07 48,192.87 "/>
   <polygon class="fil0" points="272.01,593.49 272.01,593.78 272.33,593.54 "/>
  </g>
 </g>
</svg>
