<?xml version="1.0" standalone="no"?><!-- Generator: Gravit.io --><svg xmlns="http://www.w3.org/2000/svg" xmlns:xlink="http://www.w3.org/1999/xlink" style="isolation:isolate" viewBox="0 0 500 500" width="500" height="500"><defs><clipPath id="_clipPath_ruhrVvfxN7IKpoMIilctVewntKCkZQYO"><rect width="500" height="500"/></clipPath></defs><g clip-path="url(#_clipPath_ruhrVvfxN7IKpoMIilctVewntKCkZQYO)"><clipPath id="_clipPath_84wTlmLAoTcz11natjL8TGQIPBZaw4xd"><path d=" M 0 0 L 0 500 L 500 500 L 500 0 L 0 0 Z " fill="rgb(255,255,255)"/></clipPath><g clip-path="url(#_clipPath_84wTlmLAoTcz11natjL8TGQIPBZaw4xd)"><linearGradient id="_lgradient_16" x1="0" y1="0" x2="1" y2="0" gradientTransform="matrix(-46.263,46.263,-46.263,-46.263,149.396,144.911)" gradientUnits="userSpaceOnUse"><stop offset="0%" stop-opacity="1" style="stop-color:rgb(63,121,152)"/><stop offset="14.373342857142857%" stop-opacity="1" style="stop-color:rgb(73,140,174)"/><stop offset="49.508180952380954%" stop-opacity="1" style="stop-color:rgb(104,187,228)"/><stop offset="50.306700000000006%" stop-opacity="1" style="stop-color:rgb(104,188,228)"/><stop offset="78.70287142857143%" stop-opacity="1" style="stop-color:rgb(117,203,242)"/><stop offset="100%" stop-opacity="1" style="stop-color:rgb(131,212,246)"/></linearGradient><path d=" M 103.452 145.234 C 116.049 132.637 136.475 132.638 149.069 145.235 C 161.666 157.831 161.669 178.254 149.069 190.851 C 136.475 203.446 116.049 203.446 103.449 190.849 C 90.853 178.253 90.853 157.831 103.452 145.234 Z  M 149.396 191.173 C 162.172 178.399 162.172 157.686 149.396 144.912 C 136.621 132.136 115.909 132.136 103.132 144.911 C 90.359 157.686 90.358 178.401 103.132 191.175 C 115.907 203.95 136.621 203.95 149.396 191.173 Z " fill-rule="evenodd" fill="url(#_lgradient_16)"/></g><clipPath id="_clipPath_1S2LisZYHXlo5QGZUm67rnNIOjT5vfjm"><path d=" M 0 0 L 0 500 L 500 500 L 500 0 L 0 0 Z " fill="rgb(255,255,255)"/></clipPath><g clip-path="url(#_clipPath_1S2LisZYHXlo5QGZUm67rnNIOjT5vfjm)"><linearGradient id="_lgradient_17" x1="0" y1="0" x2="1" y2="0" gradientTransform="matrix(55.556,0,0,55.556,98.484,168.042)" gradientUnits="userSpaceOnUse"><stop offset="0%" stop-opacity="1" style="stop-color:rgb(63,121,152)"/><stop offset="14.373342857142857%" stop-opacity="1" style="stop-color:rgb(73,140,174)"/><stop offset="49.508180952380954%" stop-opacity="1" style="stop-color:rgb(104,187,228)"/><stop offset="50.306700000000006%" stop-opacity="1" style="stop-color:rgb(104,188,228)"/><stop offset="78.70287142857143%" stop-opacity="1" style="stop-color:rgb(117,203,242)"/><stop offset="100%" stop-opacity="1" style="stop-color:rgb(131,212,246)"/></linearGradient><path d=" M 154.04 168.043 C 154.04 183.383 141.604 195.82 126.261 195.82 C 110.922 195.82 98.484 183.383 98.484 168.043 C 98.484 152.702 110.922 140.265 126.261 140.265 C 141.604 140.266 154.04 152.702 154.04 168.043 Z " fill="url(#_lgradient_17)"/></g><path d=" M 0 0 L 0 500 L 500 500 L 500 0 L 0 0 Z " fill="none"/><clipPath id="_clipPath_lJHatjGff61fPL9JtTBY0YTJQSnUqRT6"><path d=" M 0 0 L 0 500 L 500 500 L 500 0 L 0 0 Z " fill="rgb(255,255,255)"/></clipPath><g clip-path="url(#_clipPath_lJHatjGff61fPL9JtTBY0YTJQSnUqRT6)"><path d=" M 110.555 254.889 L 110.555 253.533 L 106.736 253.533 L 106.736 241.524 L 105.247 241.524 L 105.247 254.889 L 110.555 254.889 Z  M 111.567 251.662 C 111.567 253.686 112.579 255.023 114.622 255.023 C 116.684 255.023 117.696 253.686 117.696 251.662 L 117.696 244.75 C 117.696 242.707 116.684 241.39 114.622 241.39 C 112.579 241.39 111.567 242.707 111.567 244.75 L 111.567 251.662 Z  M 113.037 244.674 C 113.037 243.471 113.552 242.746 114.622 242.746 C 115.71 242.746 116.206 243.471 116.206 244.674 L 116.206 251.739 C 116.206 252.961 115.71 253.667 114.622 253.667 C 113.552 253.667 113.037 252.961 113.037 251.739 L 113.037 244.674 Z  M 121.991 241.39 C 119.948 241.39 118.994 242.726 118.994 244.75 L 118.994 251.662 C 118.994 253.686 119.948 255.023 121.991 255.023 C 124.053 255.023 125.008 253.686 125.008 251.662 L 125.008 247.729 L 122.22 247.729 L 122.22 249.065 L 123.595 249.065 L 123.595 251.739 C 123.595 252.941 123.118 253.667 122.029 253.667 C 120.96 253.667 120.464 252.941 120.464 251.739 L 120.464 244.674 C 120.464 243.471 120.96 242.746 122.029 242.746 C 123.118 242.746 123.595 243.471 123.595 244.674 L 123.595 245.896 L 125.008 245.896 L 125.008 244.75 C 125.008 242.726 124.053 241.39 121.991 241.39 Z  M 126.306 251.662 C 126.306 253.686 127.318 255.023 129.361 255.023 C 131.424 255.023 132.436 253.686 132.436 251.662 L 132.436 244.75 C 132.436 242.707 131.424 241.39 129.361 241.39 C 127.318 241.39 126.306 242.707 126.306 244.75 L 126.306 251.662 Z  M 127.777 244.674 C 127.777 243.471 128.292 242.746 129.361 242.746 C 130.45 242.746 130.946 243.471 130.946 244.674 L 130.946 251.739 C 130.946 252.961 130.45 253.667 129.361 253.667 C 128.292 253.667 127.777 252.961 127.777 251.739 L 127.777 244.674 Z " fill="rgb(254,254,254)"/></g><path d=" M 0 0 L 0 500 L 500 500 L 500 0 L 0 0 Z " fill="none"/><path d=" M 0 0 L 0 500 L 500 500 L 500 0 L 0 0 Z " fill="none"/><path d=" M 0 0 L 0 500 L 500 500 L 500 0 L 0 0 Z " fill="none"/><path d=" M 0 0 L 0 500 L 500 500 L 500 0 L 0 0 Z " fill="none"/><path d=" M 0 0 L 0 500 L 500 500 L 500 0 L 0 0 Z " fill="none"/><path d=" M 0 0 L 0 500 L 500 500 L 500 0 L 0 0 Z " fill="none"/><path d=" M 0 0 L 0 500 L 500 500 L 500 0 L 0 0 Z " fill="none"/><path d=" M 0 0 L 0 500 L 500 500 L 500 0 L 0 0 Z " fill="none"/><clipPath id="_clipPath_ZnRZ3ujHfxLGD0H6TN6g8yzjrdVUtLsQ"><path d=" M 0 0 L 0 500 L 500 500 L 500 0 L 0 0 Z " fill="rgb(255,255,255)"/></clipPath><g clip-path="url(#_clipPath_ZnRZ3ujHfxLGD0H6TN6g8yzjrdVUtLsQ)"><path d=" M 110.555 339.833 L 110.555 338.477 L 106.736 338.477 L 106.736 326.468 L 105.247 326.468 L 105.247 339.833 L 110.555 339.833 Z  M 111.567 336.606 C 111.567 338.63 112.579 339.967 114.622 339.967 C 116.684 339.967 117.696 338.63 117.696 336.606 L 117.696 329.694 C 117.696 327.651 116.684 326.334 114.622 326.334 C 112.579 326.334 111.567 327.651 111.567 329.694 L 111.567 336.606 Z  M 113.037 329.618 C 113.037 328.415 113.552 327.69 114.622 327.69 C 115.71 327.69 116.206 328.415 116.206 329.618 L 116.206 336.683 C 116.206 337.905 115.71 338.611 114.622 338.611 C 113.552 338.611 113.037 337.905 113.037 336.683 L 113.037 329.618 Z  M 121.991 326.334 C 119.948 326.334 118.994 327.67 118.994 329.694 L 118.994 336.606 C 118.994 338.63 119.948 339.967 121.991 339.967 C 124.053 339.967 125.008 338.63 125.008 336.606 L 125.008 332.673 L 122.22 332.673 L 122.22 334.009 L 123.595 334.009 L 123.595 336.683 C 123.595 337.885 123.118 338.611 122.029 338.611 C 120.96 338.611 120.464 337.885 120.464 336.683 L 120.464 329.618 C 120.464 328.415 120.96 327.69 122.029 327.69 C 123.118 327.69 123.595 328.415 123.595 329.618 L 123.595 330.84 L 125.008 330.84 L 125.008 329.694 C 125.008 327.67 124.053 326.334 121.991 326.334 Z  M 126.306 336.606 C 126.306 338.63 127.318 339.967 129.361 339.967 C 131.424 339.967 132.436 338.63 132.436 336.606 L 132.436 329.694 C 132.436 327.651 131.424 326.334 129.361 326.334 C 127.318 326.334 126.306 327.651 126.306 329.694 L 126.306 336.606 Z  M 127.777 329.618 C 127.777 328.415 128.292 327.69 129.361 327.69 C 130.45 327.69 130.946 328.415 130.946 329.618 L 130.946 336.683 C 130.946 337.905 130.45 338.611 129.361 338.611 C 128.292 338.611 127.777 337.905 127.777 336.683 L 127.777 329.618 Z " fill="rgb(254,254,254)"/></g><path d=" M 0 0 L 0 500 L 500 500 L 500 0 L 0 0 Z " fill="none"/><path d=" M 0 0 L 0 500 L 500 500 L 500 0 L 0 0 Z " fill="none"/><path d=" M 0 0 L 0 500 L 500 500 L 500 0 L 0 0 Z " fill="none"/><path d=" M 0 0 L 0 500 L 500 500 L 500 0 L 0 0 Z " fill="none"/><path d=" M 0 0 L 0 500 L 500 500 L 500 0 L 0 0 Z " fill="none"/><path d=" M 0 0 L 0 500 L 500 500 L 500 0 L 0 0 Z " fill="none"/><path d=" M 0 0 L 0 500 L 500 500 L 500 0 L 0 0 Z " fill="none"/><path d=" M 0 0 L 0 500 L 500 500 L 500 0 L 0 0 Z " fill="none"/><path d=" M 0 0 L 0 500 L 500 500 L 500 0 L 0 0 Z " fill="none"/><path d=" M 0 0 L 0 500 L 500 500 L 500 0 L 0 0 Z " fill="none"/><path d=" M 0 0 L 0 500 L 500 500 L 500 0 L 0 0 Z " fill="none"/><path d=" M 0 0 L 0 500 L 500 500 L 500 0 L 0 0 Z " fill="none"/><path d=" M 0 0 L 0 500 L 500 500 L 500 0 L 0 0 Z " fill="none"/><path d=" M 0 0 L 0 500 L 500 500 L 500 0 L 0 0 Z " fill="none"/><path d=" M 0 0 L 0 500 L 500 500 L 500 0 L 0 0 Z " fill="none"/><path d=" M 0 0 L 0 500 L 500 500 L 500 0 L 0 0 Z " fill="none"/><path d=" M 0 0 L 0 500 L 500 500 L 500 0 L 0 0 Z " fill="none"/><path d=" M 0 0 L 0 500 L 500 500 L 500 0 L 0 0 Z " fill="none"/><path d=" M 0 0 L 0 500 L 500 500 L 500 0 L 0 0 Z " fill="none"/><path d=" M 0 0 L 0 500 L 500 500 L 500 0 L 0 0 Z " fill="none"/><path d=" M 0 0 L 0 500 L 500 500 L 500 0 L 0 0 Z " fill="none"/><path d=" M 0 0 L 0 500 L 500 500 L 500 0 L 0 0 Z " fill="none"/><path d=" M 0 0 L 0 500 L 500 500 L 500 0 L 0 0 Z " fill="none"/><clipPath id="_clipPath_GxWv9S1ruvYmdbl6LgD0hOB2r7q5ASvP"><path d=" M 0 0 L 0 500 L 500 500 L 500 0 L 0 0 Z " fill="rgb(255,255,255)"/></clipPath><g clip-path="url(#_clipPath_GxWv9S1ruvYmdbl6LgD0hOB2r7q5ASvP)"><line x1="245.272" y1="472.908" x2="245.271" y2="472.897"/></g><clipPath id="_clipPath_L7qt12wHxNJdJd53kFtkfPr2VLkXMxkV"><path d=" M 0 0 L 0 500 L 500 500 L 500 0 L 0 0 Z " fill="rgb(255,255,255)"/></clipPath><g clip-path="url(#_clipPath_L7qt12wHxNJdJd53kFtkfPr2VLkXMxkV)"><path d=" M 245.354 473.426 L 245.355 473.426 C 245.324 473.278 245.3 473.132 245.281 472.987 C 245.3 473.133 245.324 473.28 245.354 473.426 Z " fill="rgb(85,85,85)"/></g><clipPath id="_clipPath_a8HUfgUVlUBP35SaFxz4iTGIm95NCJmS"><path d=" M 0 0 L 0 500 L 500 500 L 500 0 L 0 0 Z " fill="rgb(255,255,255)"/></clipPath><g clip-path="url(#_clipPath_a8HUfgUVlUBP35SaFxz4iTGIm95NCJmS)"><line x1="245.89" y1="474.93" x2="245.879" y2="474.909"/></g><clipPath id="_clipPath_pCctCfDoAbwAhd2kzwgsnY5fHl3BaH1N"><path d=" M 0 0 L 0 500 L 500 500 L 500 0 L 0 0 Z " fill="rgb(255,255,255)"/></clipPath><g clip-path="url(#_clipPath_pCctCfDoAbwAhd2kzwgsnY5fHl3BaH1N)"><line x1="245.839" y1="474.83" x2="245.798" y2="474.746"/></g><clipPath id="_clipPath_nNrHohOGryaXTn8Lu28yBYjSQhjGT71k"><path d=" M 86 125 L 86 211 L 169 211 L 169 125 L 86 125 Z " fill="rgb(255,255,255)"/></clipPath><g clip-path="url(#_clipPath_nNrHohOGryaXTn8Lu28yBYjSQhjGT71k)"><path d=" M 126.754 206.529 C 126.767 206.572 126.783 206.614 126.801 206.653 C 126.782 206.613 126.767 206.571 126.754 206.529 L 126.754 206.529 Z " fill="rgb(85,85,85)"/></g><path d=" M 0 0 L 0 500 L 196 500 L 196 0 L 0 0 Z " fill="none"/></g></svg>