<?xml version="1.0" standalone="no"?><!-- Generator: Gravit.io --><svg xmlns="http://www.w3.org/2000/svg" xmlns:xlink="http://www.w3.org/1999/xlink" style="isolation:isolate" viewBox="0 0 434 232" width="434" height="232"><defs><clipPath id="_clipPath_BiPqRiuUaQvIdtxj1iWCmuwMEnLVwROp"><rect width="434" height="232"/></clipPath></defs><g clip-path="url(#_clipPath_BiPqRiuUaQvIdtxj1iWCmuwMEnLVwROp)"><path d=" M 0 0 L 0 500 L 500 500 L 500 0 L 0 0 Z " fill="none"/><path d=" M 0 0 L 0 500 L 500 500 L 500 0 L 0 0 Z " fill="none"/><path d=" M 0 0 L 0 500 L 500 500 L 500 0 L 0 0 Z " fill="none"/><path d=" M 0 0 L 0 500 L 500 500 L 500 0 L 0 0 Z " fill="none"/><path d=" M 0 0 L 0 500 L 500 500 L 500 0 L 0 0 Z " fill="none"/><path d=" M 0 0 L 0 500 L 500 500 L 500 0 L 0 0 Z " fill="none"/><path d=" M 0 0 L 0 500 L 500 500 L 500 0 L 0 0 Z " fill="none"/><path d=" M 0 0 L 0 500 L 500 500 L 500 0 L 0 0 Z " fill="none"/><path d=" M 0 0 L 0 500 L 500 500 L 500 0 L 0 0 Z " fill="none"/><path d=" M 0 0 L 0 500 L 500 500 L 500 0 L 0 0 Z " fill="none"/><clipPath id="_clipPath_UOcvUs0VBOHJjXnRwtU6YfabmNcJ5NAj"><path d=" M 0 0 L 0 500 L 500 500 L 500 0 L 0 0 Z " fill="rgb(255,255,255)"/></clipPath><g clip-path="url(#_clipPath_UOcvUs0VBOHJjXnRwtU6YfabmNcJ5NAj)"><linearGradient id="_lgradient_9" x1="0" y1="0" x2="1" y2="0" gradientTransform="matrix(317.303,0,0,317.303,108.407,164.583)" gradientUnits="userSpaceOnUse"><stop offset="0%" stop-opacity="1" style="stop-color:rgb(63,121,152)"/><stop offset="14.373342857142857%" stop-opacity="1" style="stop-color:rgb(73,140,174)"/><stop offset="49.508180952380954%" stop-opacity="1" style="stop-color:rgb(104,187,228)"/><stop offset="50.306700000000006%" stop-opacity="1" style="stop-color:rgb(104,188,228)"/><stop offset="78.70287142857143%" stop-opacity="1" style="stop-color:rgb(117,203,242)"/><stop offset="100%" stop-opacity="1" style="stop-color:rgb(131,212,246)"/></linearGradient><path d=" M 402.499 176.438 L 108.407 176.438 L 133.394 152.728 L 425.71 152.728 L 402.499 176.438 Z " fill="url(#_lgradient_9)"/></g><clipPath id="_clipPath_T8hgIvfowRU6bPD29iASeIP4gmr6q61W"><path d=" M 0 0 L 0 500 L 500 500 L 500 0 L 0 0 Z " fill="rgb(255,255,255)"/></clipPath><g clip-path="url(#_clipPath_T8hgIvfowRU6bPD29iASeIP4gmr6q61W)"><linearGradient id="_lgradient_10" x1="0" y1="0" x2="1" y2="0" gradientTransform="matrix(300.297,0,0,300.297,112.73,177.944)" gradientUnits="userSpaceOnUse"><stop offset="0.370046031746033%" stop-opacity="1" style="stop-color:rgb(63,63,63)"/><stop offset="7.400920634920635%" stop-opacity="1" style="stop-color:rgb(82,82,83)"/><stop offset="13.691703174603177%" stop-opacity="1" style="stop-color:rgb(98,98,99)"/><stop offset="23.3129%" stop-opacity="1" style="stop-color:rgb(115,117,118)"/><stop offset="23.702422222222225%" stop-opacity="1" style="stop-color:rgb(114,115,117)"/><stop offset="32.661433333333335%" stop-opacity="1" style="stop-color:rgb(89,89,90)"/><stop offset="44.347100000000005%" stop-opacity="1" style="stop-color:rgb(65,65,65)"/><stop offset="47.8528%" stop-opacity="1" style="stop-color:rgb(62,62,62)"/><stop offset="48.30074920634921%" stop-opacity="1" style="stop-color:rgb(63,63,63)"/><stop offset="55.91588571428572%" stop-opacity="1" style="stop-color:rgb(80,80,81)"/><stop offset="63.97897142857143%" stop-opacity="1" style="stop-color:rgb(96,97,99)"/><stop offset="69.3543619047619%" stop-opacity="1" style="stop-color:rgb(106,108,109)"/><stop offset="76.0736%" stop-opacity="1" style="stop-color:rgb(115,117,118)"/><stop offset="76.0736%" stop-opacity="1" style="stop-color:rgb(115,117,118)"/><stop offset="81.39057777777778%" stop-opacity="1" style="stop-color:rgb(108,109,111)"/><stop offset="86.32777142857142%" stop-opacity="1" style="stop-color:rgb(98,99,100)"/><stop offset="94.3032380952381%" stop-opacity="1" style="stop-color:rgb(78,78,79)"/><stop offset="100%" stop-opacity="1" style="stop-color:rgb(62,62,62)"/></linearGradient><path d=" M 388.793 190.246 L 112.73 190.246 L 136.962 165.643 L 413.027 165.643 L 388.793 190.246 Z " fill="url(#_lgradient_10)"/></g><clipPath id="_clipPath_1qrRcxY12AoS9nY0w878He6VAcgZ2dtl"><path d=" M 0 0 L 0 500 L 500 500 L 500 0 L 0 0 Z " fill="rgb(255,255,255)"/></clipPath><g clip-path="url(#_clipPath_1qrRcxY12AoS9nY0w878He6VAcgZ2dtl)"><linearGradient id="_lgradient_11" x1="0" y1="0" x2="1" y2="0" gradientTransform="matrix(343.498,0,0,343.498,69.653,170.603)" gradientUnits="userSpaceOnUse"><stop offset="0.370046031746033%" stop-opacity="1" style="stop-color:rgb(203,203,203)"/><stop offset="14.80184126984127%" stop-opacity="1" style="stop-color:rgb(240,240,240)"/><stop offset="23.3129%" stop-opacity="1" style="stop-color:rgb(254,254,254)"/><stop offset="23.702422222222225%" stop-opacity="1" style="stop-color:rgb(254,254,254)"/><stop offset="40.062355555555555%" stop-opacity="1" style="stop-color:rgb(213,213,214)"/><stop offset="47.8528%" stop-opacity="1" style="stop-color:rgb(202,202,202)"/><stop offset="48.30074920634921%" stop-opacity="1" style="stop-color:rgb(203,203,203)"/><stop offset="66.66666666666666%" stop-opacity="1" style="stop-color:rgb(241,241,242)"/><stop offset="76.0736%" stop-opacity="1" style="stop-color:rgb(254,254,254)"/><stop offset="76.0736%" stop-opacity="1" style="stop-color:rgb(254,254,254)"/><stop offset="85.9479873015873%" stop-opacity="1" style="stop-color:rgb(239,238,239)"/><stop offset="100%" stop-opacity="1" style="stop-color:rgb(202,202,202)"/></linearGradient><path d=" M 387.161 183.332 L 69.653 183.332 L 95.641 157.874 L 413.151 157.874 L 387.161 183.332 Z " fill="url(#_lgradient_11)"/></g><clipPath id="_clipPath_9sycLoBcahuURd1LAZxG48rlPHHYaqVD"><path d=" M 0 0 L 0 500 L 500 500 L 500 0 L 0 0 Z " fill="rgb(255,255,255)"/></clipPath><g clip-path="url(#_clipPath_9sycLoBcahuURd1LAZxG48rlPHHYaqVD)"><linearGradient id="_lgradient_12" x1="0" y1="0" x2="1" y2="0" gradientTransform="matrix(56.749,0.098,-0.091,56.749,140.931,157.601)" gradientUnits="userSpaceOnUse"><stop offset="0%" stop-opacity="1" style="stop-color:rgb(41,41,41)"/><stop offset="9.582228571428573%" stop-opacity="1" style="stop-color:rgb(43,43,44)"/><stop offset="19.96297619047619%" stop-opacity="1" style="stop-color:rgb(44,47,54)"/><stop offset="25.552609523809522%" stop-opacity="1" style="stop-color:rgb(42,49,61)"/><stop offset="31.940761904761906%" stop-opacity="1" style="stop-color:rgb(42,52,70)"/><stop offset="38.32891428571429%" stop-opacity="1" style="stop-color:rgb(44,56,80)"/><stop offset="49.508180952380954%" stop-opacity="1" style="stop-color:rgb(49,66,99)"/><stop offset="50.306700000000006%" stop-opacity="1" style="stop-color:rgb(49,66,100)"/><stop offset="60.56087301587302%" stop-opacity="1" style="stop-color:rgb(44,80,118)"/><stop offset="72.39261111111112%" stop-opacity="1" style="stop-color:rgb(40,99,139)"/><stop offset="86.59069682539682%" stop-opacity="1" style="stop-color:rgb(43,122,163)"/><stop offset="100%" stop-opacity="1" style="stop-color:rgb(45,143,183)"/></linearGradient><path d=" M 174.298 169.341 L 140.912 169.282 L 164.311 145.958 L 197.698 146.017 L 174.298 169.341 Z " fill="url(#_lgradient_12)"/></g><clipPath id="_clipPath_AmPEMzSZGpZfLex8uARRFqsH1rQjTzDB"><path d=" M 0 0 L 0 500 L 500 500 L 500 0 L 0 0 Z " fill="rgb(255,255,255)"/></clipPath><g clip-path="url(#_clipPath_AmPEMzSZGpZfLex8uARRFqsH1rQjTzDB)"><linearGradient id="_lgradient_13" x1="0" y1="0" x2="1" y2="0" gradientTransform="matrix(26.025,0.045,-0.045,26.032,141.706,142.204)" gradientUnits="userSpaceOnUse"><stop offset="0%" stop-opacity="1" style="stop-color:rgb(63,121,152)"/><stop offset="14.373342857142857%" stop-opacity="1" style="stop-color:rgb(73,140,174)"/><stop offset="49.508180952380954%" stop-opacity="1" style="stop-color:rgb(104,187,228)"/><stop offset="50.306700000000006%" stop-opacity="1" style="stop-color:rgb(104,188,228)"/><stop offset="78.70287142857143%" stop-opacity="1" style="stop-color:rgb(117,203,242)"/><stop offset="100%" stop-opacity="1" style="stop-color:rgb(131,212,246)"/></linearGradient><path d=" M 157.009 147.588 L 141.697 147.562 L 152.429 136.864 L 167.74 136.891 L 157.009 147.588 Z " fill="url(#_lgradient_13)"/></g><clipPath id="_clipPath_I29g8o4GELzXqSwtmb6Xo1bJOeMoW6st"><path d=" M 0 0 L 0 500 L 500 500 L 500 0 L 0 0 Z " fill="rgb(255,255,255)"/></clipPath><g clip-path="url(#_clipPath_I29g8o4GELzXqSwtmb6Xo1bJOeMoW6st)"><linearGradient id="_lgradient_14" x1="0" y1="0" x2="1" y2="0" gradientTransform="matrix(26.025,0.045,-0.045,26.033,71.61,155.356)" gradientUnits="userSpaceOnUse"><stop offset="0%" stop-opacity="1" style="stop-color:rgb(178,179,180)"/><stop offset="49.508180952380954%" stop-opacity="1" style="stop-color:rgb(202,202,202)"/><stop offset="50.306700000000006%" stop-opacity="1" style="stop-color:rgb(202,202,202)"/><stop offset="100%" stop-opacity="1" style="stop-color:rgb(217,218,219)"/></linearGradient><path d=" M 86.911 160.741 L 71.601 160.715 L 82.333 150.017 L 97.645 150.043 L 86.911 160.741 Z " fill="url(#_lgradient_14)"/></g><clipPath id="_clipPath_yPAeBoO7HZaJvwLcdQ4Q918hwVlX8XAu"><path d=" M 0 0 L 0 500 L 500 500 L 500 0 L 0 0 Z " fill="rgb(255,255,255)"/></clipPath><g clip-path="url(#_clipPath_yPAeBoO7HZaJvwLcdQ4Q918hwVlX8XAu)"><linearGradient id="_lgradient_15" x1="0" y1="0" x2="1" y2="0" gradientTransform="matrix(66.497,-1.178,1.178,66.497,67.886,184.037)" gradientUnits="userSpaceOnUse"><stop offset="0%" stop-opacity="1" style="stop-color:rgb(48,51,83)"/><stop offset="24.754090476190477%" stop-opacity="1" style="stop-color:rgb(49,64,98)"/><stop offset="49.508180952380954%" stop-opacity="1" style="stop-color:rgb(41,81,114)"/><stop offset="50.306700000000006%" stop-opacity="1" style="stop-color:rgb(41,81,114)"/><stop offset="63.71600317460317%" stop-opacity="1" style="stop-color:rgb(42,98,133)"/><stop offset="77.12530634920635%" stop-opacity="1" style="stop-color:rgb(43,114,152)"/><stop offset="100%" stop-opacity="1" style="stop-color:rgb(45,143,183)"/></linearGradient><path d=" M 107.25 197.727 L 68.129 197.727 L 95.017 169.171 L 134.142 169.171 L 107.25 197.727 Z " fill="url(#_lgradient_15)"/></g><path d=" M 0 0 L 0 500 L 500 500 L 500 0 L 0 0 Z " fill="none"/><path d=" M 0 0 L 0 500 L 500 500 L 500 0 L 0 0 Z " fill="none"/><path d=" M 0 0 L 0 500 L 500 500 L 500 0 L 0 0 Z " fill="none"/><path d=" M 0 0 L 0 500 L 500 500 L 500 0 L 0 0 Z " fill="none"/><path d=" M 0 0 L 0 500 L 500 500 L 500 0 L 0 0 Z " fill="none"/><path d=" M 0 0 L 0 500 L 500 500 L 500 0 L 0 0 Z " fill="none"/><path d=" M 0 0 L 0 500 L 500 500 L 500 0 L 0 0 Z " fill="none"/><path d=" M 0 0 L 0 500 L 500 500 L 500 0 L 0 0 Z " fill="none"/><path d=" M 0 0 L 0 500 L 500 500 L 500 0 L 0 0 Z " fill="none"/><path d=" M 0 0 L 0 500 L 500 500 L 500 0 L 0 0 Z " fill="none"/><path d=" M 0 0 L 0 500 L 500 500 L 500 0 L 0 0 Z " fill="none"/><path d=" M 0 0 L 0 500 L 500 500 L 500 0 L 0 0 Z " fill="none"/><clipPath id="_clipPath_HGjP6WBkxAs6dRgffpqCBtgwd31AuKEK"><path d=" M 0 0 L 0 500 L 500 500 L 500 0 L 0 0 Z " fill="rgb(255,255,255)"/></clipPath><g clip-path="url(#_clipPath_HGjP6WBkxAs6dRgffpqCBtgwd31AuKEK)"><path d=" M 110.555 254.889 L 110.555 253.533 L 106.736 253.533 L 106.736 241.524 L 105.247 241.524 L 105.247 254.889 L 110.555 254.889 Z  M 111.567 251.662 C 111.567 253.686 112.579 255.023 114.622 255.023 C 116.684 255.023 117.696 253.686 117.696 251.662 L 117.696 244.75 C 117.696 242.707 116.684 241.39 114.622 241.39 C 112.579 241.39 111.567 242.707 111.567 244.75 L 111.567 251.662 Z  M 113.037 244.674 C 113.037 243.471 113.552 242.746 114.622 242.746 C 115.71 242.746 116.206 243.471 116.206 244.674 L 116.206 251.739 C 116.206 252.961 115.71 253.667 114.622 253.667 C 113.552 253.667 113.037 252.961 113.037 251.739 L 113.037 244.674 Z  M 121.991 241.39 C 119.948 241.39 118.994 242.726 118.994 244.75 L 118.994 251.662 C 118.994 253.686 119.948 255.023 121.991 255.023 C 124.053 255.023 125.008 253.686 125.008 251.662 L 125.008 247.729 L 122.22 247.729 L 122.22 249.065 L 123.595 249.065 L 123.595 251.739 C 123.595 252.941 123.118 253.667 122.029 253.667 C 120.96 253.667 120.464 252.941 120.464 251.739 L 120.464 244.674 C 120.464 243.471 120.96 242.746 122.029 242.746 C 123.118 242.746 123.595 243.471 123.595 244.674 L 123.595 245.896 L 125.008 245.896 L 125.008 244.75 C 125.008 242.726 124.053 241.39 121.991 241.39 Z  M 126.306 251.662 C 126.306 253.686 127.318 255.023 129.361 255.023 C 131.424 255.023 132.436 253.686 132.436 251.662 L 132.436 244.75 C 132.436 242.707 131.424 241.39 129.361 241.39 C 127.318 241.39 126.306 242.707 126.306 244.75 L 126.306 251.662 Z  M 127.777 244.674 C 127.777 243.471 128.292 242.746 129.361 242.746 C 130.45 242.746 130.946 243.471 130.946 244.674 L 130.946 251.739 C 130.946 252.961 130.45 253.667 129.361 253.667 C 128.292 253.667 127.777 252.961 127.777 251.739 L 127.777 244.674 Z " fill="rgb(254,254,254)"/></g><path d=" M 0 0 L 0 500 L 500 500 L 500 0 L 0 0 Z " fill="none"/><path d=" M 0 0 L 0 500 L 500 500 L 500 0 L 0 0 Z " fill="none"/><path d=" M 0 0 L 0 500 L 500 500 L 500 0 L 0 0 Z " fill="none"/><path d=" M 0 0 L 0 500 L 500 500 L 500 0 L 0 0 Z " fill="none"/><path d=" M 0 0 L 0 500 L 500 500 L 500 0 L 0 0 Z " fill="none"/><path d=" M 0 0 L 0 500 L 500 500 L 500 0 L 0 0 Z " fill="none"/><path d=" M 0 0 L 0 500 L 500 500 L 500 0 L 0 0 Z " fill="none"/><path d=" M 0 0 L 0 500 L 500 500 L 500 0 L 0 0 Z " fill="none"/><path d=" M 0 0 L 0 500 L 500 500 L 500 0 L 0 0 Z " fill="none"/><path d=" M 0 0 L 0 500 L 500 500 L 500 0 L 0 0 Z " fill="none"/><clipPath id="_clipPath_J7rpKRgSX5jBZgfiFIQCunh5oaEsvXWw"><path d=" M 0 0 L 0 500 L 500 500 L 500 0 L 0 0 Z " fill="rgb(255,255,255)"/></clipPath><g clip-path="url(#_clipPath_J7rpKRgSX5jBZgfiFIQCunh5oaEsvXWw)"><path d=" M 110.555 339.833 L 110.555 338.477 L 106.736 338.477 L 106.736 326.468 L 105.247 326.468 L 105.247 339.833 L 110.555 339.833 Z  M 111.567 336.606 C 111.567 338.63 112.579 339.967 114.622 339.967 C 116.684 339.967 117.696 338.63 117.696 336.606 L 117.696 329.694 C 117.696 327.651 116.684 326.334 114.622 326.334 C 112.579 326.334 111.567 327.651 111.567 329.694 L 111.567 336.606 Z  M 113.037 329.618 C 113.037 328.415 113.552 327.69 114.622 327.69 C 115.71 327.69 116.206 328.415 116.206 329.618 L 116.206 336.683 C 116.206 337.905 115.71 338.611 114.622 338.611 C 113.552 338.611 113.037 337.905 113.037 336.683 L 113.037 329.618 Z  M 121.991 326.334 C 119.948 326.334 118.994 327.67 118.994 329.694 L 118.994 336.606 C 118.994 338.63 119.948 339.967 121.991 339.967 C 124.053 339.967 125.008 338.63 125.008 336.606 L 125.008 332.673 L 122.22 332.673 L 122.22 334.009 L 123.595 334.009 L 123.595 336.683 C 123.595 337.885 123.118 338.611 122.029 338.611 C 120.96 338.611 120.464 337.885 120.464 336.683 L 120.464 329.618 C 120.464 328.415 120.96 327.69 122.029 327.69 C 123.118 327.69 123.595 328.415 123.595 329.618 L 123.595 330.84 L 125.008 330.84 L 125.008 329.694 C 125.008 327.67 124.053 326.334 121.991 326.334 Z  M 126.306 336.606 C 126.306 338.63 127.318 339.967 129.361 339.967 C 131.424 339.967 132.436 338.63 132.436 336.606 L 132.436 329.694 C 132.436 327.651 131.424 326.334 129.361 326.334 C 127.318 326.334 126.306 327.651 126.306 329.694 L 126.306 336.606 Z  M 127.777 329.618 C 127.777 328.415 128.292 327.69 129.361 327.69 C 130.45 327.69 130.946 328.415 130.946 329.618 L 130.946 336.683 C 130.946 337.905 130.45 338.611 129.361 338.611 C 128.292 338.611 127.777 337.905 127.777 336.683 L 127.777 329.618 Z " fill="rgb(254,254,254)"/></g><path d=" M 0 0 L 0 500 L 500 500 L 500 0 L 0 0 Z " fill="none"/><path d=" M 0 0 L 0 500 L 500 500 L 500 0 L 0 0 Z " fill="none"/><path d=" M 0 0 L 0 500 L 500 500 L 500 0 L 0 0 Z " fill="none"/><path d=" M 0 0 L 0 500 L 500 500 L 500 0 L 0 0 Z " fill="none"/><path d=" M 0 0 L 0 500 L 500 500 L 500 0 L 0 0 Z " fill="none"/><path d=" M 0 0 L 0 500 L 500 500 L 500 0 L 0 0 Z " fill="none"/><path d=" M 0 0 L 0 500 L 500 500 L 500 0 L 0 0 Z " fill="none"/><path d=" M 0 0 L 0 500 L 500 500 L 500 0 L 0 0 Z " fill="none"/><path d=" M 0 0 L 0 500 L 500 500 L 500 0 L 0 0 Z " fill="none"/><path d=" M 0 0 L 0 500 L 500 500 L 500 0 L 0 0 Z " fill="none"/><path d=" M 0 0 L 0 500 L 500 500 L 500 0 L 0 0 Z " fill="none"/><path d=" M 0 0 L 0 500 L 500 500 L 500 0 L 0 0 Z " fill="none"/><path d=" M 0 0 L 0 500 L 500 500 L 500 0 L 0 0 Z " fill="none"/><path d=" M 0 0 L 0 500 L 500 500 L 500 0 L 0 0 Z " fill="none"/><path d=" M 0 0 L 0 500 L 500 500 L 500 0 L 0 0 Z " fill="none"/><path d=" M 0 0 L 0 500 L 500 500 L 500 0 L 0 0 Z " fill="none"/><path d=" M 0 0 L 0 500 L 500 500 L 500 0 L 0 0 Z " fill="none"/><path d=" M 0 0 L 0 500 L 500 500 L 500 0 L 0 0 Z " fill="none"/><path d=" M 0 0 L 0 500 L 500 500 L 500 0 L 0 0 Z " fill="none"/><path d=" M 0 0 L 0 500 L 500 500 L 500 0 L 0 0 Z " fill="none"/><path d=" M 0 0 L 0 500 L 500 500 L 500 0 L 0 0 Z " fill="none"/><path d=" M 0 0 L 0 500 L 500 500 L 500 0 L 0 0 Z " fill="none"/><path d=" M 0 0 L 0 500 L 500 500 L 500 0 L 0 0 Z " fill="none"/><path d=" M 0 0 L 0 500 L 500 500 L 500 0 L 0 0 Z " fill="none"/><path d=" M 0 0 L 0 500 L 500 500 L 500 0 L 0 0 Z " fill="none"/><path d=" M 0 0 L 0 500 L 500 500 L 500 0 L 0 0 Z " fill="none"/><clipPath id="_clipPath_aEmUBR4Ie7hqTN8nJZkWQdlag2swWNl2"><path d=" M 0 0 L 0 500 L 500 500 L 500 0 L 0 0 Z " fill="rgb(255,255,255)"/></clipPath><g clip-path="url(#_clipPath_aEmUBR4Ie7hqTN8nJZkWQdlag2swWNl2)"><line x1="245.272" y1="472.908" x2="245.271" y2="472.897"/></g><clipPath id="_clipPath_nAaNe4c8wIOdq7dcaqJqmQzg7nCe6DMO"><path d=" M 0 0 L 0 500 L 500 500 L 500 0 L 0 0 Z " fill="rgb(255,255,255)"/></clipPath><g clip-path="url(#_clipPath_nAaNe4c8wIOdq7dcaqJqmQzg7nCe6DMO)"><path d=" M 245.354 473.426 L 245.355 473.426 C 245.324 473.278 245.3 473.132 245.281 472.987 C 245.3 473.133 245.324 473.28 245.354 473.426 Z " fill="rgb(85,85,85)"/></g><clipPath id="_clipPath_3Ul1SaP7Ck9dblz98JTDCxUFN0pHGDKS"><path d=" M 0 0 L 0 500 L 500 500 L 500 0 L 0 0 Z " fill="rgb(255,255,255)"/></clipPath><g clip-path="url(#_clipPath_3Ul1SaP7Ck9dblz98JTDCxUFN0pHGDKS)"><line x1="245.89" y1="474.93" x2="245.879" y2="474.909"/></g><clipPath id="_clipPath_JqEhdSo0lEhgbwW33U25Q1BZ0Trt5xaQ"><path d=" M 0 0 L 0 500 L 500 500 L 500 0 L 0 0 Z " fill="rgb(255,255,255)"/></clipPath><g clip-path="url(#_clipPath_JqEhdSo0lEhgbwW33U25Q1BZ0Trt5xaQ)"><line x1="245.839" y1="474.83" x2="245.798" y2="474.746"/></g><clipPath id="_clipPath_aL0yLuE7Ali6CeKDZRAETAAGWRUIy3MS"><path d=" M 0 0 L 0 500 L 500 500 L 500 0 L 0 0 Z " fill="rgb(255,255,255)"/></clipPath><g clip-path="url(#_clipPath_aL0yLuE7Ali6CeKDZRAETAAGWRUIy3MS)"><path d=" M 245.504 474.006 C 245.583 474.256 245.679 474.498 245.79 474.729 C 245.677 474.493 245.583 474.25 245.507 474.006 L 245.504 474.006 Z " fill="rgb(85,85,85)"/></g><path d=" M 0 0 L 0 500 L 500 500 L 500 0 L 0 0 Z " fill="none"/><path d=" M 57 126 L 57 209 L 433 209 L 433 126 L 57 126 Z " fill="none"/><path d=" M 0 0 L 0 500 L 500 500 L 500 0 L 0 0 Z " fill="none"/><path d=" M 0 0 L 0 232 L 434 232 L 434 0 L 0 0 Z " fill="none"/></g></svg>