<?xml version="1.0" standalone="no"?><!-- Generator: Gravit.io --><svg xmlns="http://www.w3.org/2000/svg" xmlns:xlink="http://www.w3.org/1999/xlink" style="isolation:isolate" viewBox="0 0 1500 500" width="1500" height="500"><defs><clipPath id="_clipPath_LcUKYN4o8kV6nzDSbHZtUmehBVNxvfLw"><rect width="500" height="500"/></clipPath></defs><g clip-path="url(#_clipPath_LcUKYN4o8kV6nzDSbHZtUmehBVNxvfLw)"><clipPath id="_clipPath_NVpL5eW6hy9HjQ17tMDYJxzeZyUb2Yvx"><rect x="-59.6" y="-10" width="682" height="500" transform="matrix(1,0,0,1,0,0)" fill="rgb(255,255,255)"/></clipPath><g clip-path="url(#_clipPath_NVpL5eW6hy9HjQ17tMDYJxzeZyUb2Yvx)"><path d=" M -71.876 63 L -71.876 551.2 L 610.124 551.2 L 610.124 63 L -71.876 63 Z " fill="none"/><g><linearGradient id="_lgradient_18" x1="0" y1="0.5" x2="0.9999999999999998" y2="0.5" gradientTransform="matrix(442.214,0,0,23.15,56.186,19.124)" gradientUnits="userSpaceOnUse"><stop offset="0%" stop-opacity="1" style="stop-color:rgb(63,121,152)"/><stop offset="14.373342857142857%" stop-opacity="1" style="stop-color:rgb(73,140,174)"/><stop offset="49.508180952380954%" stop-opacity="1" style="stop-color:rgb(104,187,228)"/><stop offset="50.306700000000006%" stop-opacity="1" style="stop-color:rgb(104,188,228)"/><stop offset="78.70287142857143%" stop-opacity="1" style="stop-color:rgb(117,203,242)"/><stop offset="100%" stop-opacity="1" style="stop-color:rgb(131,212,246)"/></linearGradient><path d=" M 466.052 42.274 L 56.186 42.274 L 91.009 19.124 L 498.4 19.124 L 466.052 42.274 Z " fill="url(#_lgradient_18)"/></g><path d=" M -71.876 63 L -71.876 551.2 L 610.124 551.2 L 610.124 63 L -71.876 63 Z " fill="none"/><g><linearGradient id="_lgradient_19" x1="0" y1="0.49997967727512815" x2="1.0000000000000004" y2="0.49997967727512815" gradientTransform="matrix(418.513,0,0,24.022,62.211,31.734)" gradientUnits="userSpaceOnUse"><stop offset="0.370046031746033%" stop-opacity="1" style="stop-color:rgb(63,63,63)"/><stop offset="7.400920634920635%" stop-opacity="1" style="stop-color:rgb(82,82,83)"/><stop offset="13.691703174603177%" stop-opacity="1" style="stop-color:rgb(98,98,99)"/><stop offset="23.3129%" stop-opacity="1" style="stop-color:rgb(115,117,118)"/><stop offset="23.702422222222225%" stop-opacity="1" style="stop-color:rgb(114,115,117)"/><stop offset="32.661433333333335%" stop-opacity="1" style="stop-color:rgb(89,89,90)"/><stop offset="44.347100000000005%" stop-opacity="1" style="stop-color:rgb(65,65,65)"/><stop offset="47.8528%" stop-opacity="1" style="stop-color:rgb(62,62,62)"/><stop offset="48.30074920634921%" stop-opacity="1" style="stop-color:rgb(63,63,63)"/><stop offset="55.91588571428572%" stop-opacity="1" style="stop-color:rgb(80,80,81)"/><stop offset="63.97897142857143%" stop-opacity="1" style="stop-color:rgb(96,97,99)"/><stop offset="69.3543619047619%" stop-opacity="1" style="stop-color:rgb(106,108,109)"/><stop offset="76.0736%" stop-opacity="1" style="stop-color:rgb(115,117,118)"/><stop offset="76.0736%" stop-opacity="1" style="stop-color:rgb(115,117,118)"/><stop offset="81.39057777777778%" stop-opacity="1" style="stop-color:rgb(108,109,111)"/><stop offset="86.32777142857142%" stop-opacity="1" style="stop-color:rgb(98,99,100)"/><stop offset="94.3032380952381%" stop-opacity="1" style="stop-color:rgb(78,78,79)"/><stop offset="100%" stop-opacity="1" style="stop-color:rgb(62,62,62)"/></linearGradient><path d=" M 446.95 55.756 L 62.211 55.756 L 95.982 31.734 L 480.724 31.734 L 446.95 55.756 Z " fill="url(#_lgradient_19)"/></g><path d=" M -71.876 63 L -71.876 551.2 L 610.124 551.2 L 610.124 63 L -71.876 63 Z " fill="none"/><g><linearGradient id="_lgradient_20" x1="0" y1="0.5000000000000009" x2="1.0000000000000002" y2="0.5000000000000009" gradientTransform="matrix(478.721,0,0,24.857,2.176,24.148)" gradientUnits="userSpaceOnUse"><stop offset="0.370046031746033%" stop-opacity="1" style="stop-color:rgb(203,203,203)"/><stop offset="14.80184126984127%" stop-opacity="1" style="stop-color:rgb(240,240,240)"/><stop offset="23.3129%" stop-opacity="1" style="stop-color:rgb(254,254,254)"/><stop offset="23.702422222222225%" stop-opacity="1" style="stop-color:rgb(254,254,254)"/><stop offset="40.062355555555555%" stop-opacity="1" style="stop-color:rgb(213,213,214)"/><stop offset="47.8528%" stop-opacity="1" style="stop-color:rgb(202,202,202)"/><stop offset="48.30074920634921%" stop-opacity="1" style="stop-color:rgb(203,203,203)"/><stop offset="66.66666666666666%" stop-opacity="1" style="stop-color:rgb(241,241,242)"/><stop offset="76.0736%" stop-opacity="1" style="stop-color:rgb(254,254,254)"/><stop offset="76.0736%" stop-opacity="1" style="stop-color:rgb(254,254,254)"/><stop offset="85.9479873015873%" stop-opacity="1" style="stop-color:rgb(239,238,239)"/><stop offset="100%" stop-opacity="1" style="stop-color:rgb(202,202,202)"/></linearGradient><path d=" M 444.676 49.005 L 2.176 49.005 L 38.394 24.148 L 480.897 24.148 L 444.676 49.005 Z " fill="url(#_lgradient_20)"/></g><path d=" M -71.876 63 L -71.876 551.2 L 610.124 551.2 L 610.124 63 L -71.876 63 Z " fill="none"/><path d=" M -71.876 63 L -71.876 551.2 L 610.124 551.2 L 610.124 63 L -71.876 63 Z " fill="none"/><path d=" M -71.876 63 L -71.876 551.2 L 610.124 551.2 L 610.124 63 L -71.876 63 Z " fill="none"/><g><linearGradient id="_lgradient_21" x1="0.00034556903701421504" y1="0.49785527788138495" x2="0.9996160344033171" y2="0.4995831230664557" gradientTransform="matrix(36.297,0,0,10.471,4.891,16.477)" gradientUnits="userSpaceOnUse"><stop offset="0%" stop-opacity="1" style="stop-color:rgb(178,179,180)"/><stop offset="49.508180952380954%" stop-opacity="1" style="stop-color:rgb(202,202,202)"/><stop offset="50.306700000000006%" stop-opacity="1" style="stop-color:rgb(202,202,202)"/><stop offset="100%" stop-opacity="1" style="stop-color:rgb(217,218,219)"/></linearGradient><path d=" M 26.228 26.948 L 4.891 26.922 L 19.848 16.477 L 41.187 16.502 L 26.228 26.948 Z " fill="url(#_lgradient_21)"/></g><path d=" M -71.876 63 L -71.876 551.2 L 610.124 551.2 L 610.124 63 L -71.876 63 Z " fill="none"/><path d=" M -71.876 63 L -71.876 551.2 L 610.124 551.2 L 610.124 63 L -71.876 63 Z " fill="none"/><path d=" M -71.876 63 L -71.876 551.2 L 610.124 551.2 L 610.124 63 L -71.876 63 Z " fill="none"/><path d=" M -71.876 63 L -71.876 551.2 L 610.124 551.2 L 610.124 63 L -71.876 63 Z " fill="none"/><path d=" M -71.876 63 L -71.876 551.2 L 610.124 551.2 L 610.124 63 L -71.876 63 Z " fill="none"/><g><path d=" M 78.921 311.874 L 78.921 310.55 L 73.712 310.55 L 73.712 298.824 L 71.681 298.824 L 71.681 311.874 L 78.921 311.874 Z  M 80.301 308.723 C 80.301 310.699 81.682 312.004 84.468 312.004 C 87.281 312.004 88.661 310.699 88.661 308.723 L 88.661 301.974 C 88.661 299.979 87.281 298.693 84.468 298.693 C 81.682 298.693 80.301 299.979 80.301 301.974 L 80.301 308.723 Z  M 82.306 301.9 C 82.306 300.725 83.009 300.017 84.468 300.017 C 85.952 300.017 86.629 300.725 86.629 301.9 L 86.629 308.798 C 86.629 309.991 85.952 310.68 84.468 310.68 C 83.009 310.68 82.306 309.991 82.306 308.798 L 82.306 301.9 Z  M 94.52 298.693 C 91.733 298.693 90.432 299.998 90.432 301.974 L 90.432 308.723 C 90.432 310.699 91.733 312.004 94.52 312.004 C 97.332 312.004 98.635 310.699 98.635 308.723 L 98.635 304.883 L 94.832 304.883 L 94.832 306.187 L 96.708 306.187 L 96.708 308.798 C 96.708 309.972 96.057 310.68 94.572 310.68 C 93.113 310.68 92.437 309.972 92.437 308.798 L 92.437 301.9 C 92.437 300.725 93.113 300.017 94.572 300.017 C 96.057 300.017 96.708 300.725 96.708 301.9 L 96.708 303.093 L 98.635 303.093 L 98.635 301.974 C 98.635 299.998 97.332 298.693 94.52 298.693 Z  M 100.405 308.723 C 100.405 310.699 101.786 312.004 104.572 312.004 C 107.386 312.004 108.767 310.699 108.767 308.723 L 108.767 301.974 C 108.767 299.979 107.386 298.693 104.572 298.693 C 101.786 298.693 100.405 299.979 100.405 301.974 L 100.405 308.723 Z  M 102.412 301.9 C 102.412 300.725 103.114 300.017 104.572 300.017 C 106.058 300.017 106.734 300.725 106.734 301.9 L 106.734 308.798 C 106.734 309.991 106.058 310.68 104.572 310.68 C 103.114 310.68 102.412 309.991 102.412 308.798 L 102.412 301.9 Z " fill="rgb(254,254,254)"/></g><path d=" M -71.876 63 L -71.876 551.2 L 610.124 551.2 L 610.124 63 L -71.876 63 Z " fill="none"/><path d=" M -71.876 63 L -71.876 551.2 L 610.124 551.2 L 610.124 63 L -71.876 63 Z " fill="none"/><path d=" M -71.876 63 L -71.876 551.2 L 610.124 551.2 L 610.124 63 L -71.876 63 Z " fill="none"/><path d=" M -71.876 63 L -71.876 551.2 L 610.124 551.2 L 610.124 63 L -71.876 63 Z " fill="none"/><path d=" M -71.876 63 L -71.876 551.2 L 610.124 551.2 L 610.124 63 L -71.876 63 Z " fill="none"/><path d=" M -71.876 63 L -71.876 551.2 L 610.124 551.2 L 610.124 63 L -71.876 63 Z " fill="none"/><path d=" M -71.876 63 L -71.876 551.2 L 610.124 551.2 L 610.124 63 L -71.876 63 Z " fill="none"/><path d=" M -71.876 63 L -71.876 551.2 L 610.124 551.2 L 610.124 63 L -71.876 63 Z " fill="none"/><path d=" M -71.876 63 L -71.876 551.2 L 610.124 551.2 L 610.124 63 L -71.876 63 Z " fill="none"/><g><path d=" M 78.921 394.813 L 78.921 393.489 L 73.712 393.489 L 73.712 381.763 L 71.681 381.763 L 71.681 394.813 L 78.921 394.813 Z  M 80.301 391.662 C 80.301 393.638 81.682 394.944 84.468 394.944 C 87.281 394.944 88.661 393.638 88.661 391.662 L 88.661 384.913 C 88.661 382.918 87.281 381.633 84.468 381.633 C 81.682 381.633 80.301 382.918 80.301 384.913 L 80.301 391.662 Z  M 82.306 384.839 C 82.306 383.664 83.009 382.957 84.468 382.957 C 85.952 382.957 86.629 383.664 86.629 384.839 L 86.629 391.737 C 86.629 392.93 85.952 393.62 84.468 393.62 C 83.009 393.62 82.306 392.93 82.306 391.737 L 82.306 384.839 Z  M 94.52 381.633 C 91.733 381.633 90.432 382.937 90.432 384.913 L 90.432 391.662 C 90.432 393.638 91.733 394.944 94.52 394.944 C 97.332 394.944 98.635 393.638 98.635 391.662 L 98.635 387.822 L 94.832 387.822 L 94.832 389.126 L 96.708 389.126 L 96.708 391.737 C 96.708 392.911 96.057 393.62 94.572 393.62 C 93.113 393.62 92.437 392.911 92.437 391.737 L 92.437 384.839 C 92.437 383.664 93.113 382.957 94.572 382.957 C 96.057 382.957 96.708 383.664 96.708 384.839 L 96.708 386.032 L 98.635 386.032 L 98.635 384.913 C 98.635 382.937 97.332 381.633 94.52 381.633 Z  M 100.405 391.662 C 100.405 393.638 101.786 394.944 104.572 394.944 C 107.386 394.944 108.767 393.638 108.767 391.662 L 108.767 384.913 C 108.767 382.918 107.386 381.633 104.572 381.633 C 101.786 381.633 100.405 382.918 100.405 384.913 L 100.405 391.662 Z  M 102.412 384.839 C 102.412 383.664 103.114 382.957 104.572 382.957 C 106.058 382.957 106.734 383.664 106.734 384.839 L 106.734 391.737 C 106.734 392.93 106.058 393.62 104.572 393.62 C 103.114 393.62 102.412 392.93 102.412 391.737 L 102.412 384.839 Z " fill="rgb(254,254,254)"/></g><path d=" M -71.876 63 L -71.876 551.2 L 610.124 551.2 L 610.124 63 L -71.876 63 Z " fill="none"/><path d=" M -71.876 63 L -71.876 551.2 L 610.124 551.2 L 610.124 63 L -71.876 63 Z " fill="none"/><path d=" M -71.876 63 L -71.876 551.2 L 610.124 551.2 L 610.124 63 L -71.876 63 Z " fill="none"/><path d=" M -71.876 63 L -71.876 551.2 L 610.124 551.2 L 610.124 63 L -71.876 63 Z " fill="none"/><path d=" M -71.876 63 L -71.876 551.2 L 610.124 551.2 L 610.124 63 L -71.876 63 Z " fill="none"/><path d=" M -71.876 63 L -71.876 551.2 L 610.124 551.2 L 610.124 63 L -71.876 63 Z " fill="none"/><path d=" M -71.876 63 L -71.876 551.2 L 610.124 551.2 L 610.124 63 L -71.876 63 Z " fill="none"/><path d=" M -71.876 63 L -71.876 551.2 L 610.124 551.2 L 610.124 63 L -71.876 63 Z " fill="none"/><path d=" M -71.876 63 L -71.876 551.2 L 610.124 551.2 L 610.124 63 L -71.876 63 Z " fill="none"/><path d=" M -71.876 63 L -71.876 551.2 L 610.124 551.2 L 610.124 63 L -71.876 63 Z " fill="none"/><path d=" M -71.876 63 L -71.876 551.2 L 610.124 551.2 L 610.124 63 L -71.876 63 Z " fill="none"/><path d=" M -71.876 63 L -71.876 551.2 L 610.124 551.2 L 610.124 63 L -71.876 63 Z " fill="none"/><path d=" M -71.876 63 L -71.876 551.2 L 610.124 551.2 L 610.124 63 L -71.876 63 Z " fill="none"/><path d=" M -71.876 63 L -71.876 551.2 L 610.124 551.2 L 610.124 63 L -71.876 63 Z " fill="none"/><path d=" M -71.876 63 L -71.876 551.2 L 610.124 551.2 L 610.124 63 L -71.876 63 Z " fill="none"/><path d=" M -71.876 63 L -71.876 551.2 L 610.124 551.2 L 610.124 63 L -71.876 63 Z " fill="none"/><path d=" M -71.876 63 L -71.876 551.2 L 610.124 551.2 L 610.124 63 L -71.876 63 Z " fill="none"/><path d=" M -71.876 63 L -71.876 551.2 L 610.124 551.2 L 610.124 63 L -71.876 63 Z " fill="none"/><path d=" M -71.876 63 L -71.876 551.2 L 610.124 551.2 L 610.124 63 L -71.876 63 Z " fill="none"/><path d=" M -71.876 63 L -71.876 551.2 L 610.124 551.2 L 610.124 63 L -71.876 63 Z " fill="none"/><path d=" M -71.876 63 L -71.876 551.2 L 610.124 551.2 L 610.124 63 L -71.876 63 Z " fill="none"/><path d=" M -71.876 63 L -71.876 551.2 L 610.124 551.2 L 610.124 63 L -71.876 63 Z " fill="none"/><path d=" M -71.876 63 L -71.876 551.2 L 610.124 551.2 L 610.124 63 L -71.876 63 Z " fill="none"/><path d=" M -71.876 63 L -71.876 551.2 L 610.124 551.2 L 610.124 63 L -71.876 63 Z " fill="none"/><g><line x1="262.675" y1="524.747" x2="262.674" y2="524.737"/></g><path d=" M -71.876 63 L -71.876 551.2 L 610.124 551.2 L 610.124 63 L -71.876 63 Z " fill="none"/><g><path d=" M 262.787 525.253 L 262.788 525.253 C 262.746 525.109 262.713 524.966 262.687 524.825 C 262.713 524.967 262.746 525.111 262.787 525.253 Z " fill="rgb(85,85,85)"/></g><path d=" M -71.876 63 L -71.876 551.2 L 610.124 551.2 L 610.124 63 L -71.876 63 Z " fill="none"/><g><line x1="263.518" y1="526.722" x2="263.503" y2="526.701"/></g><path d=" M -71.876 63 L -71.876 551.2 L 610.124 551.2 L 610.124 63 L -71.876 63 Z " fill="none"/><g><line x1="263.448" y1="526.624" x2="263.392" y2="526.542"/></g><path d=" M -71.876 63 L -71.876 551.2 L 610.124 551.2 L 610.124 63 L -71.876 63 Z " fill="none"/><g><path d=" M 262.991 525.819 C 263.099 526.064 263.23 526.3 263.382 526.525 C 263.227 526.295 263.099 526.058 262.996 525.819 L 262.991 525.819 Z " fill="rgb(85,85,85)"/></g></g></g></svg>