<?xml version="1.0" encoding="UTF-8"?>
<!DOCTYPE svg PUBLIC "-//W3C//DTD SVG 1.1//EN" "http://www.w3.org/Graphics/SVG/1.1/DTD/svg11.dtd">
<!-- Creator: CorelDRAW 2017 -->
<svg xmlns="http://www.w3.org/2000/svg" xml:space="preserve" width="13.3333in" height="1.5935in" version="1.1" style="shape-rendering:geometricPrecision; text-rendering:geometricPrecision; image-rendering:optimizeQuality; fill-rule:evenodd; clip-rule:evenodd"
viewBox="0 0 13331 1593"
 xmlns:xlink="http://www.w3.org/1999/xlink">
 <defs>
  <style type="text/css">
   <![CDATA[
    .fil2 {fill:url(#id1);fill-rule:nonzero}
    .fil1 {fill:url(#id2);fill-rule:nonzero}
    .fil5 {fill:url(#id3);fill-rule:nonzero}
    .fil0 {fill:url(#id4);fill-rule:nonzero}
    .fil3 {fill:url(#id5);fill-rule:nonzero;fill-opacity:0.800000}
    .fil4 {fill:url(#id6);fill-rule:nonzero;fill-opacity:0.800000}
   ]]>
  </style>
    <clipPath id="id0" style="clip-rule:nonzero">
     <rect y="285" width="13331" height="1308"/>
    </clipPath>
  <linearGradient id="id1" gradientUnits="userSpaceOnUse" x1="0" y1="797" x2="13343" y2="797">
   <stop offset="0" style="stop-opacity:1; stop-color:#006EAA"/>
   <stop offset="0.25098" style="stop-opacity:1; stop-color:#A5DFFF"/>
   <stop offset="0.470588" style="stop-opacity:1; stop-color:#00507C"/>
   <stop offset="0.65098" style="stop-opacity:1; stop-color:#B3E4FF"/>
   <stop offset="0.839216" style="stop-opacity:1; stop-color:#0074B1"/>
   <stop offset="1" style="stop-opacity:1; stop-color:#006EAA"/>
  </linearGradient>
  <linearGradient id="id2" gradientUnits="userSpaceOnUse" x1="0" y1="955" x2="13343" y2="955">
   <stop offset="0" style="stop-opacity:1; stop-color:#626262"/>
   <stop offset="0.25098" style="stop-opacity:1; stop-color:#E1E1E1"/>
   <stop offset="0.470588" style="stop-opacity:1; stop-color:#7C7C7D"/>
   <stop offset="0.65098" style="stop-opacity:1; stop-color:#F5F6F6"/>
   <stop offset="0.839216" style="stop-opacity:1; stop-color:#949595"/>
   <stop offset="1" style="stop-opacity:1; stop-color:#626262"/>
  </linearGradient>
  <linearGradient id="id3" gradientUnits="userSpaceOnUse" x1="0" y1="780" x2="13343" y2="780">
   <stop offset="0" style="stop-opacity:1; stop-color:#00507C"/>
   <stop offset="0.501961" style="stop-opacity:1; stop-color:#006EAA"/>
   <stop offset="1" style="stop-opacity:1; stop-color:#00507C"/>
  </linearGradient>
  <linearGradient id="id4" gradientUnits="userSpaceOnUse" x1="0" y1="562" x2="13343" y2="562">
   <stop offset="0" style="stop-opacity:1; stop-color:#626262"/>
   <stop offset="0.14902" style="stop-opacity:1; stop-color:#D7D7D7"/>
   <stop offset="0.34902" style="stop-opacity:1; stop-color:#949595"/>
   <stop offset="0.701961" style="stop-opacity:1; stop-color:#EBEBEC"/>
   <stop offset="1" style="stop-opacity:1; stop-color:#ACACAC"/>
  </linearGradient>
  <radialGradient id="id5" gradientUnits="userSpaceOnUse" gradientTransform="matrix(0.970177 -0 -0 0.0534516 90 569)" cx="3025" cy="601" r="846" fx="3025" fy="601">
   <stop offset="0" style="stop-opacity:1; stop-color:#CCEDFF"/>
   <stop offset="1" style="stop-opacity:1; stop-color:black"/>
  </radialGradient>
  <radialGradient id="id6" gradientUnits="userSpaceOnUse" gradientTransform="matrix(1.42443 -0 -0 0.07798 -3789 736)" xlink:href="#id5" cx="8928" cy="798" r="502" fx="8928" fy="798">
  </radialGradient>
 </defs>
 <g id="Layer_x0020_1">
  <metadata id="CorelCorpID_0Corel-Layer"/>
  <g id="_2434256728864">
   <g style="clip-path:url(#id0)">
    <image x="0" y="285" width="13331" height="1308" xlink:href="6992-header-38e7de50-42c5-4df7-9747-6752216a39d1_Images\6992-header-38e7de50-42c5-4df7-9747-6752216a39d1_ImgID1.png"/>
   </g>
   <polygon class="fil0" points="4241,756 4964,1124 8565,1124 9288,756 13331,756 13331,0 0,0 0,756 "/>
   <polygon class="fil1" points="58,785 4241,785 4964,1153 8565,1153 9288,785 13286,785 13331,763 13331,756 9288,756 8565,1124 4964,1124 4241,756 0,756 "/>
   <polygon class="fil2" points="0,637 4241,637 4964,1005 8565,1005 9288,637 13331,637 13331,588 9288,588 8565,956 4964,956 4241,588 0,588 "/>
   <g>
    <path class="fil3" d="M2179 601c0,-4 16,-9 45,-13l1602 0c29,4 45,8 45,13 0,16 -219,30 -529,36l-634 0c-310,-6 -529,-20 -529,-36z"/>
    <path class="fil4" d="M8502 1005c27,-20 64,-44 108,-72l678 -345 69 0c-20,15 -46,33 -77,52l-715 364 -62 0z"/>
   </g>
   <polygon class="fil5" points="9288,588 8565,956 4964,956 4241,588 0,588 0,603 4241,603 4964,971 8565,971 9288,603 13331,603 13331,588 "/>
  </g>
 </g>
</svg>
